<svg xmlns="http://www.w3.org/2000/svg" width="19" height="18" fill="none"><path fill="#FBBF24" fill-rule="evenodd" d="M7.01 10.46a4.409 4.409 0 0 1 2.635-.878c.982 0 1.892.326 2.635.877a.573.573 0 1 1-.683.922 3.262 3.262 0 0 0-1.952-.652c-.724 0-1.396.239-1.953.652a.573.573 0 1 1-.683-.922Z" clip-rule="evenodd"/><path fill="#FBBF24" d="M12.646 6.574c0 .634-.342 1.147-.764 1.147-.423 0-.765-.513-.765-1.147 0-.633.342-1.147.765-1.147.422 0 .764.514.764 1.147ZM8.059 6.574c0 .634-.343 1.147-.765 1.147s-.765-.513-.765-1.147c0-.633.343-1.147.765-1.147s.765.514.765 1.147Z"/><path fill="#FBBF24" fill-rule="evenodd" d="M13.837 1.8c-.738-.07-1.683-.07-3-.07H5.606C3.23 1.69 2.18 3.827 2.252 6.085a.61.61 0 1 1-1.22 0C.83 3.302 2.553.53 5.604.51h5.264c1.278 0 2.28 0 3.081.074.817.076 1.486.234 2.079.588a4.678 4.678 0 0 1 1.614 1.615c.354.592.512 1.262.588 2.078.075.802.075 1.804.075 3.082v2.083c0 .685 0 1.102-.056 1.462a4.678 4.678 0 0 1-3.899 3.898c-.36.056-.777.056-1.462.056h-.14l-.016.001a.203.203 0 0 0-.125.058l-.01.011-.05.058-.475.554c-.42.492-.777.91-1.105 1.197-.347.306-.745.542-1.25.533-.505-.009-.895-.26-1.231-.577-.317-.299-.66-.73-1.062-1.235l-.192-.241c-.127-.16-.2-.25-.26-.313a.486.486 0 0 0-.05-.049l-.007-.005h-.002l-.009-.003a.498.498 0 0 0-.07-.01 5.26 5.26 0 0 0-.406-.004l-1.809.025a.61.61 0 0 1-.01-1.22l1.808-.025h.076c.31-.005.644-.009.946.135.301.144.509.406.7.649l.048.06.164.206c.438.55.727.91.973 1.143.233.22.344.243.415.244.07.001.181-.017.423-.23.254-.223.555-.572 1.012-1.107l.446-.52.009-.011c.038-.044.078-.091.122-.135.236-.233.547-.376.877-.404.062-.005.123-.005.181-.005h.015c.77 0 1.084-.002 1.338-.042a3.457 3.457 0 0 0 2.881-2.88c.04-.255.042-.57.042-1.34V7.979c0-1.316 0-2.261-.07-3-.068-.728-.198-1.193-.42-1.565-.293-.49-.703-.9-1.194-1.193-.371-.222-.836-.353-1.565-.42Z" clip-rule="evenodd"/><path fill="#FBBF24" d="M5.154 12.918H.69c-.32 0-.586-.277-.586-.61 0-.334.266-.61.586-.61h4.463c.32 0 .585.276.585.61 0 .333-.265.61-.585.61ZM3.616 10.123H.714c-.32 0-.585-.276-.585-.61 0-.333.265-.61.585-.61h2.902c.32 0 .586.277.586.61 0 .334-.266.61-.586.61Z"/></svg>