<svg width="24" height="24" viewBox="0 0 24 24" fill="none" xmlns="http://www.w3.org/2000/svg">
<path d="M5.34381 3.98245C6.03733 3.44855 6.38409 3.18161 6.78433 3.00969C6.96581 2.93174 7.1545 2.86875 7.34817 2.82147C7.77532 2.71719 8.22825 2.71719 9.1341 2.71719H14.8658C15.7716 2.71719 16.2246 2.71719 16.6517 2.82147C16.8454 2.86875 17.0341 2.93174 17.2156 3.00969C17.6158 3.18161 17.9626 3.44855 18.6561 3.98245C20.9541 5.75152 22.1031 6.63605 22.497 7.78151C22.6722 8.29101 22.7376 8.82685 22.6898 9.35924C22.5821 10.5561 21.6751 11.6516 19.861 13.8424L15.5859 19.0052C13.9403 20.9926 13.1175 21.9862 11.9999 21.9862C10.8824 21.9862 10.0596 20.9926 8.41395 19.0052L4.13894 13.8424C2.32483 11.6516 1.41778 10.5561 1.31013 9.35924C1.26224 8.82685 1.32772 8.29101 1.50292 7.78151C1.8968 6.63605 3.0458 5.75152 5.34381 3.98245Z" stroke="#024C5B" stroke-width="1.5"/>
<path d="M5.85125 10.1814C7.16723 9.9992 8.19979 8.96109 8.3749 7.64415C8.4124 7.36214 8.81889 7.35788 8.8623 7.63904L8.8751 7.72193C9.07614 9.02388 10.1134 10.0363 11.4199 10.2056C11.7014 10.2421 11.7086 10.6471 11.4285 10.6935L11.3851 10.7008C10.1052 10.9132 9.10141 11.9149 8.88647 13.1944L8.87197 13.2807C8.82375 13.5678 8.40933 13.5612 8.36797 13.2731C8.1776 11.947 7.13274 10.8956 5.80945 10.6864C5.52392 10.6412 5.51878 10.2274 5.80512 10.1878L5.85125 10.1814Z" stroke="#2DE5AE"/>
<path d="M10.0972 15.1579C10.9601 15.0385 11.6372 14.3577 11.752 13.4942C11.7766 13.3092 12.0432 13.3064 12.0717 13.4908L12.08 13.5452C12.2119 14.3989 12.8921 15.0628 13.7488 15.1738C13.9334 15.1978 13.9381 15.4633 13.7545 15.4938L13.726 15.4985C12.8867 15.6378 12.2284 16.2947 12.0875 17.1338L12.078 17.1903C12.0464 17.3786 11.7746 17.3743 11.7475 17.1853C11.6227 16.3157 10.9375 15.6263 10.0698 15.4891C9.88252 15.4595 9.87915 15.1881 10.0669 15.1621L10.0972 15.1579Z" stroke="#C4CBD2"/>
</svg>
