<svg width="20" height="17" viewBox="0 0 20 17" fill="none" xmlns="http://www.w3.org/2000/svg">
<circle cx="7.08284" cy="5.58333" r="1.83333" stroke="#2DE5AE" stroke-width="1.2"/>
<path d="M10.7498 11.0833C10.7498 12.0959 10.7498 12.9167 7.08317 12.9167C3.4165 12.9167 3.4165 12.0959 3.4165 11.0833C3.4165 10.0708 5.05813 9.25 7.08317 9.25C9.10821 9.25 10.7498 10.0708 10.7498 11.0833Z" stroke="#2DE5AE" stroke-width="1.2"/>
<path d="M0.666504 8.33333C0.666504 4.87637 0.666504 3.14788 1.74045 2.07394C2.81439 1 4.54287 1 7.99984 1H11.6665C15.1235 1 16.852 1 17.9259 2.07394C18.9998 3.14788 18.9998 4.87637 18.9998 8.33333C18.9998 11.7903 18.9998 13.5188 17.9259 14.5927C16.852 15.6667 15.1235 15.6667 11.6665 15.6667H7.99984C4.54287 15.6667 2.81439 15.6667 1.74045 14.5927C0.666504 13.5188 0.666504 11.7903 0.666504 8.33333Z" stroke="#024C5B" stroke-width="1.2"/>
<path d="M16.2495 8.33331H12.5828" stroke="#024C5B" stroke-width="1.2" stroke-linecap="round"/>
<path d="M16.2495 5.58331H11.6662" stroke="#024C5B" stroke-width="1.2" stroke-linecap="round"/>
<path d="M16.2495 11.0833H13.4995" stroke="#024C5B" stroke-width="1.2" stroke-linecap="round"/>
</svg>
