<svg width="19" height="19" viewBox="0 0 19 19" fill="none" xmlns="http://www.w3.org/2000/svg">
<path d="M17.6803 15.6994L17.7379 15.7023C18.0205 15.7312 18.2409 15.9699 18.2409 16.2601C18.2409 16.5503 18.0205 16.789 17.7379 16.8179L17.6803 16.8208L7.21401 16.8208C6.90435 16.8208 6.65332 16.5698 6.65332 16.2601C6.65332 15.9504 6.90435 15.6994 7.21401 15.6994L17.6803 15.6994Z" fill="#024C5B"/>
<path d="M14.8774 15.5125V7.28899C14.8774 6.97933 15.1285 6.7283 15.4381 6.7283C15.7478 6.7283 15.9988 6.97933 15.9988 7.28899V15.5125C15.9988 15.8221 15.7478 16.0732 15.4381 16.0732C15.1285 16.0732 14.8774 15.8221 14.8774 15.5125Z" fill="#024C5B"/>
<path d="M3.66309 10.2793V7.28899C3.66309 6.97933 3.91412 6.7283 4.22378 6.7283C4.53344 6.7283 4.78447 6.97933 4.78447 7.28899V10.2793C4.78447 10.589 4.53344 10.84 4.22378 10.84C3.91412 10.84 3.66309 10.589 3.66309 10.2793Z" fill="#024C5B"/>
<path d="M13.9282 2.15469e-06C14.4109 2.15469e-06 14.8164 -0.000901708 15.1496 0.0343153C15.4963 0.0709769 15.8121 0.150487 16.1089 0.338023L16.2162 0.41103C16.4569 0.588606 16.6373 0.813885 16.7995 1.07466C16.9784 1.36217 17.1579 1.732 17.3741 2.17414L18.4005 4.27308C18.5839 4.64812 18.7757 5.11163 18.8393 5.58648C18.9003 6.0417 18.8477 6.55508 18.513 6.9977L18.4422 7.0853C18.0404 7.55116 17.4472 7.84968 16.7835 7.84968C16.1246 7.84964 15.5406 7.5564 15.1386 7.09698C14.7367 7.5562 14.1531 7.84959 13.4945 7.84968C12.8355 7.84968 12.2509 7.55651 11.8489 7.09698C11.4469 7.55618 10.8635 7.84967 10.2048 7.84968C9.54597 7.84968 8.96198 7.55638 8.55998 7.09698C8.15798 7.55632 7.57394 7.84968 6.91514 7.84968C6.25632 7.84961 5.67225 7.5564 5.27029 7.09698C4.86834 7.55619 4.28483 7.84962 3.62618 7.84968C3.00395 7.84968 2.44346 7.58739 2.04486 7.17072L1.96747 7.0853C1.56963 6.62383 1.50528 6.07199 1.57031 5.58648C1.63396 5.11163 1.82575 4.64812 2.00908 4.27308L3.03556 2.17414L3.33708 1.56673C3.43146 1.38307 3.52066 1.21845 3.61012 1.07466C3.79556 0.776602 4.0048 0.525093 4.30077 0.338023L4.41247 0.272317C4.67651 0.130934 4.95662 0.0664037 5.26007 0.0343153C5.59324 -0.000901639 5.99875 2.15469e-06 6.48148 2.15469e-06H13.9282ZM6.48148 1.12139C5.97514 1.12139 5.63835 1.12229 5.37761 1.14986C5.19228 1.16947 5.07257 1.19998 4.98192 1.24112L4.89942 1.28565C4.79799 1.3498 4.69789 1.45044 4.56286 1.66748C4.49207 1.78126 4.41823 1.91507 4.33435 2.0785L4.04305 2.66694L3.01658 4.76515C2.85013 5.10561 2.72176 5.44041 2.68221 5.73541C2.64409 6.01999 2.69421 6.21115 2.81654 6.35305L2.89612 6.43554C3.09049 6.61904 3.34681 6.7283 3.62618 6.7283C4.21296 6.72818 4.71033 6.23811 4.71033 5.60692C4.71033 5.29726 4.96136 5.04623 5.27102 5.04623C5.56107 5.0464 5.79995 5.26677 5.8288 5.54924L5.83172 5.60692L5.83683 5.72373C5.89366 6.29756 6.3651 6.72817 6.91514 6.7283C7.50201 6.7283 7.99928 6.23818 7.99928 5.60692C7.99928 5.29729 8.25036 5.04628 8.55998 5.04623C8.85016 5.04623 9.08887 5.26668 9.11775 5.54924L9.12651 5.72373C9.18336 6.29763 9.65468 6.7283 10.2048 6.7283C10.7917 6.72828 11.289 6.23817 11.289 5.60692C11.289 5.29726 11.54 5.04623 11.8497 5.04623C12.1398 5.04631 12.3786 5.26672 12.4074 5.54924L12.4162 5.72373C12.4731 6.29761 12.9444 6.7283 13.4945 6.7283C14.0812 6.72813 14.5779 6.23807 14.5779 5.60692C14.5779 5.29735 14.8291 5.04638 15.1386 5.04623C15.4288 5.04623 15.6675 5.26669 15.6964 5.54924L15.7051 5.72373C15.762 6.29759 16.2334 6.72823 16.7835 6.7283C17.1026 6.7283 17.3921 6.58614 17.5931 6.35305L17.6354 6.29756C17.7267 6.16208 17.7608 5.98457 17.7274 5.73541C17.6879 5.44041 17.5595 5.10561 17.3931 4.76515L16.3666 2.66694C16.1404 2.20433 15.9884 1.89516 15.8468 1.66748C15.7454 1.50449 15.6636 1.40725 15.5861 1.34187L15.5102 1.28565C15.4095 1.22202 15.2791 1.176 15.032 1.14986C14.7713 1.12229 14.4345 1.12139 13.9282 1.12139H6.48148Z" fill="#2DE5AE"/>
<path d="M4.85947 14.0173C4.85947 13.6664 4.57526 13.3821 4.22431 13.3821C3.87336 13.3821 3.58915 13.6664 3.58915 14.0173C3.58915 14.3683 3.87336 14.6525 4.22431 14.6525C4.57526 14.6525 4.85947 14.3683 4.85947 14.0173ZM5.83191 14.0173C5.83191 14.905 5.112 15.6249 4.22431 15.6249C3.33661 15.6249 2.6167 14.905 2.6167 14.0173C2.6167 13.1296 3.33661 12.4097 4.22431 12.4097C5.112 12.4097 5.83191 13.1296 5.83191 14.0173Z" fill="#2DE5AE"/>
<path d="M7.48027 13.6883C7.4802 13.5659 7.37741 13.4641 7.25541 13.4641C6.81382 13.4641 6.37528 13.304 6.14716 12.9085C5.91915 12.5129 5.99994 12.0524 6.22163 11.6696C6.27434 11.5784 6.25287 11.4612 6.17637 11.3929L6.13986 11.3666L5.49302 10.9965L5.48572 10.9921C5.43037 10.9593 5.34359 10.9736 5.29956 11.0476L5.26159 11.1133C5.03981 11.4959 4.68119 11.7958 4.2249 11.7959C3.76837 11.7959 3.41051 11.4964 3.19039 11.1133L3.15243 11.0476L3.13418 11.022C3.08732 10.9703 3.01465 10.9634 2.96626 10.9921L2.95896 10.9965L2.31212 11.3666C2.20698 11.4268 2.17007 11.5652 2.23035 11.6696C2.45207 12.0524 2.53357 12.5129 2.30555 12.9085C2.07747 13.3042 1.6383 13.4641 1.19658 13.4641C1.07417 13.4641 0.972513 13.5663 0.972449 13.6883V14.346C0.972449 14.4681 1.07413 14.5702 1.19658 14.5702L1.36158 14.5782C1.74468 14.6143 2.10598 14.7802 2.30555 15.1265C2.53335 15.522 2.4511 15.9813 2.22962 16.3639L2.23035 16.3647C2.17751 16.4561 2.19939 16.5739 2.27635 16.6421L2.31212 16.6677V16.6684L2.95896 17.0385L2.96626 17.0422L3.01226 17.0582C3.06208 17.0648 3.11932 17.0429 3.15243 16.9874L3.19039 16.921L3.28019 16.7815C3.50358 16.468 3.82793 16.2385 4.22709 16.2384C4.68339 16.2384 5.04072 16.5382 5.26086 16.921H5.26159L5.29956 16.9874L5.31781 17.0122C5.36469 17.0642 5.43727 17.071 5.48572 17.0422L5.49302 17.0378L6.13986 16.6684V16.6677L6.17564 16.6421C6.25232 16.5747 6.2755 16.4592 6.2209 16.3632V16.3625C6.00017 15.9801 5.91959 15.5214 6.14716 15.1265C6.37523 14.7308 6.81371 14.5702 7.25541 14.5702C7.37786 14.5702 7.48027 14.4681 7.48027 14.346V13.6883ZM8.45199 14.346C8.45199 15.0015 7.91793 15.5426 7.25541 15.5426C7.14188 15.5427 7.07066 15.5625 7.03201 15.5806C6.99592 15.5974 6.98907 15.6117 6.98893 15.612C6.98787 15.6138 6.98054 15.6275 6.98382 15.6645C6.98667 15.6965 6.99745 15.7452 7.0269 15.8091L7.06267 15.8777L7.06486 15.8806L7.11961 15.9894C7.36498 16.5411 7.1613 17.2025 6.62171 17.5109L6.62244 17.5116L5.9756 17.8818L5.97487 17.881C5.4408 18.1933 4.77025 17.998 4.46436 17.4839L4.46144 17.4795L4.42056 17.4079L4.4191 17.4065C4.36268 17.3081 4.30991 17.2563 4.27527 17.232C4.24317 17.2095 4.2275 17.2101 4.22709 17.2101C4.22456 17.2101 4.20878 17.2114 4.17817 17.2327C4.14272 17.2575 4.08871 17.3099 4.03143 17.4087L4.0307 17.4079L3.99055 17.4795L3.98763 17.4839C3.68162 17.9982 3.01055 18.1938 2.47639 17.881V17.8818L1.82955 17.5116V17.5109C1.25503 17.182 1.06031 16.4466 1.38859 15.8785L1.38932 15.8777L1.42509 15.8091C1.45454 15.7452 1.46532 15.6965 1.46816 15.6645C1.47147 15.6272 1.46403 15.6136 1.46305 15.612C1.46292 15.6117 1.45609 15.5974 1.41998 15.5806C1.39097 15.5671 1.34368 15.5521 1.27397 15.5455L1.19658 15.5426C0.534061 15.5426 0 15.0015 0 14.346V13.6883C6.22808e-05 13.0329 0.5341 12.4924 1.19658 12.4924C1.31016 12.4924 1.38131 12.4718 1.41998 12.4537C1.45425 12.4377 1.46223 12.4245 1.46305 12.423C1.46319 12.4228 1.4717 12.4095 1.46816 12.3698C1.46434 12.3271 1.44641 12.2551 1.38932 12.1566L1.38859 12.1558C1.06032 11.5875 1.25472 10.8514 1.82955 10.5227L2.46909 10.1576V10.1569C2.9709 9.85837 3.59617 10.0118 3.92557 10.4577L3.98763 10.5504L3.99055 10.5555L4.03143 10.6264L4.03289 10.6285L4.07377 10.6935C4.11412 10.7507 4.15071 10.784 4.17671 10.8023C4.20896 10.8249 4.22448 10.8242 4.2249 10.8242C4.22714 10.8242 4.2434 10.8233 4.27454 10.8016C4.30999 10.7767 4.36346 10.7248 4.42056 10.6264L4.46144 10.5555L4.46436 10.5504L4.52642 10.4577C4.85581 10.0117 5.48107 9.85836 5.9829 10.1569L5.98217 10.1576L6.62244 10.5227H6.62171C7.19678 10.8513 7.39175 11.5874 7.0634 12.1558V12.1566L6.64288 11.9127L7.06267 12.1566C7.00559 12.2551 6.98765 12.3271 6.98382 12.3698C6.98028 12.4095 6.9888 12.4228 6.98893 12.423C6.98963 12.4243 6.99749 12.4376 7.03201 12.4537C7.07066 12.4718 7.14188 12.4924 7.25541 12.4924C7.91082 12.4924 8.45192 13.0258 8.45199 13.6883V14.346Z" fill="#024C5B"/>
</svg>
