<svg xmlns="http://www.w3.org/2000/svg" viewBox="0 0 97 21"><svg width="18" height="18" fill="none"><path fill="#024C5B" d="m17.97 14.449-1.684-9.554a1.923 1.923 0 0 0-1.173-1.454L11.093 1.8a1.914 1.914 0 0 0-.535-.132L10.341.436a.527.527 0 1 0-1.038.183L9.52 1.85c-.165.079-.316.18-.452.302l-.455.41-.068-.06a1.914 1.914 0 0 0-.457-.308L8.365.619A.527.527 0 0 0 7.327.436L7.049 2.01a1.913 1.913 0 0 0-.527.13L2.466 3.778a1.923 1.923 0 0 0-1.18 1.457L.03 12.363a1.936 1.936 0 0 0 1.568 2.24l5.136.905.157.894a1.937 1.937 0 0 0 2.24 1.569l7.271-1.282a1.936 1.936 0 0 0 1.568-2.24Zm-1.751 1.2-7.27 1.283a.873.873 0 0 1-.658-.146.873.873 0 0 1-.361-.567l-.091-.516 1.03.182a1.92 1.92 0 0 0 1.445-.32 1.92 1.92 0 0 0 .795-1.249l1.257-7.13a1.923 1.923 0 0 0-.605-1.767L9.398 3.275l.376-.339a.883.883 0 0 1 .92-.16l4.02 1.641c.281.115.48.362.533.661l1.685 9.554a.88.88 0 0 1-.713 1.018Zm-15.15-3.103L2.324 5.42a.874.874 0 0 1 .536-.663l3.988-1.611-.114.648a.527.527 0 1 0 1.038.183l.115-.649L11.052 6.2a.874.874 0 0 1 .275.803l-1.257 7.13a.873.873 0 0 1-.361.567.873.873 0 0 1-.657.146l-7.27-1.282a.88.88 0 0 1-.714-1.018Z"/><path fill="#2DE5AE" d="m6.67 11.818-1.218-.211c-.797-.138-1.327-.92-1.184-1.746a.372.372 0 0 1 .428-.301.37.37 0 0 1 .3.427c-.072.423.188.823.582.891l1.219.211c.315.055.626-.181.685-.521.073-.423-.063-.531-.295-.662L5.349 8.878c-.356-.197-.817-.567-.667-1.436.13-.748.822-1.248 1.54-1.124l1.22.211c.796.138 1.325.92 1.183 1.746a.372.372 0 0 1-.428.3.372.372 0 0 1-.3-.427c.072-.422-.189-.822-.582-.89l-1.219-.211c-.315-.055-.626.181-.685.521-.073.423.063.531.295.661l1.838 1.029c.356.197.817.567.667 1.436-.134.742-.822 1.248-1.54 1.124Z"/><path fill="#2DE5AE" d="M5.879 12.346a.372.372 0 0 1-.301-.428l1.009-5.827a.372.372 0 0 1 .427-.301.37.37 0 0 1 .301.427l-1.009 5.828a.372.372 0 0 1-.427.3Z"/></svg><svg width="18" height="18" x="18" fill="none"><path fill="#024C5B" d="M12 17.063H6c-2.737 0-4.313-1.575-4.313-4.313v-7.5C1.688 2.513 3.264.937 6 .937h6c2.738 0 4.313 1.576 4.313 4.313v7.5c0 2.738-1.575 4.313-4.313 4.313Zm-6-15c-2.145 0-3.188 1.042-3.188 3.187v7.5c0 2.145 1.043 3.188 3.188 3.188h6c2.145 0 3.188-1.043 3.188-3.188v-7.5c0-2.145-1.043-3.188-3.188-3.188H6Z"/><path fill="#024C5B" d="M13.875 6.938h-1.5a2.061 2.061 0 0 1-2.063-2.063v-1.5c0-.308.256-.563.563-.563.307 0 .563.256.563.563v1.5c0 .518.42.938.937.938h1.5c.307 0 .563.255.563.562a.567.567 0 0 1-.563.563Z"/><path fill="#2DE5AE" d="M9 10.313H6a.567.567 0 0 1-.563-.563c0-.307.255-.563.563-.563h3c.307 0 .563.256.563.563a.567.567 0 0 1-.563.563Zm3 3H6a.567.567 0 0 1-.563-.563c0-.307.255-.563.563-.563h6c.307 0 .563.256.563.563a.567.567 0 0 1-.563.563Z"/></svg><svg width="20" height="20" x="36" fill="none"><path fill="#2DE5AE" d="M10 11.458a.63.63 0 0 1-.625-.625V6.458A.63.63 0 0 1 10 5.833a.63.63 0 0 1 .625.625v4.375a.63.63 0 0 1-.625.625Zm0 2.917a.825.825 0 0 1-.592-.242 1.217 1.217 0 0 1-.183-.275.821.821 0 0 1-.058-.316c0-.217.091-.434.241-.592.309-.308.875-.308 1.184 0 .15.158.241.375.241.592a.829.829 0 0 1-.066.316.96.96 0 0 1-.175.275.825.825 0 0 1-.592.242Z"/><path fill="#024C5B" d="M10 18.958a3.231 3.231 0 0 1-1.625-.433l-4.95-2.858A3.272 3.272 0 0 1 1.8 12.85v-5.7c0-1.158.625-2.233 1.625-2.817l4.95-2.858c1-.583 2.242-.583 3.25 0l4.95 2.858A3.272 3.272 0 0 1 18.2 7.15v5.7a3.272 3.272 0 0 1-1.625 2.817l-4.95 2.858c-.5.292-1.067.433-1.625.433Zm0-16.666a2.04 2.04 0 0 0-1 .266L4.05 5.417c-.617.358-1 1.016-1 1.733v5.7c0 .708.383 1.375 1 1.733L9 17.442a1.979 1.979 0 0 0 1.992 0l4.95-2.859c.616-.358 1-1.016 1-1.733v-5.7c0-.708-.384-1.375-1-1.733l-4.95-2.859c-.3-.175-.65-.266-.992-.266Z"/></svg><svg width="21" height="21" x="56" fill="none"><path fill="#024C5B" d="M14.747 19.572c-.907 0-1.863-.216-2.85-.634a15.103 15.103 0 0 1-2.883-1.654 25.063 25.063 0 0 1-2.706-2.305 23.988 23.988 0 0 1-2.305-2.698c-.69-.964-1.245-1.927-1.638-2.859-.418-.996-.627-1.96-.627-2.867 0-.626.113-1.22.33-1.774a4.29 4.29 0 0 1 1.076-1.558c.618-.61 1.325-.916 2.08-.916.313 0 .634.073.907.201.313.145.578.361.77.65l1.864 2.626c.168.233.297.458.385.683.105.24.16.482.16.715 0 .305-.087.602-.256.883-.12.217-.305.45-.538.683l-.546.57a.39.39 0 0 0 .024.056c.096.169.289.458.658.891.394.45.763.86 1.133 1.237.473.466.867.835 1.236 1.14.458.386.755.578.932.667l-.016.04.586-.578c.249-.25.49-.434.723-.554.441-.273 1.003-.322 1.566-.089.208.089.433.209.674.378l2.666 1.895c.297.2.514.457.643.763.12.305.176.586.176.867 0 .385-.088.77-.257 1.132a3.739 3.739 0 0 1-.642.964c-.458.506-.956.867-1.534 1.1a4.742 4.742 0 0 1-1.79.345ZM5.224 3.512c-.442 0-.852.193-1.245.578a3.08 3.08 0 0 0-.787 1.132c-.169.418-.25.86-.25 1.333 0 .747.178 1.558.53 2.393.362.851.868 1.735 1.51 2.618A22.215 22.215 0 0 0 7.16 14.12c.803.795 1.67 1.534 2.561 2.184a13.047 13.047 0 0 0 2.642 1.518c1.374.586 2.658.722 3.718.28.41-.168.771-.425 1.1-.794.185-.201.33-.418.45-.675.097-.2.145-.41.145-.618a.959.959 0 0 0-.088-.402.608.608 0 0 0-.225-.24l-2.666-1.896a2.303 2.303 0 0 0-.442-.249c-.177-.072-.249-.144-.522.024-.16.08-.305.201-.466.362l-.61.602a1.144 1.144 0 0 1-1.165.241l-.216-.096c-.33-.177-.715-.45-1.14-.811a25.28 25.28 0 0 1-1.31-1.213 28.083 28.083 0 0 1-1.196-1.3c-.377-.443-.65-.82-.82-1.133l-.095-.241a1.499 1.499 0 0 1-.065-.402c0-.289.105-.546.305-.746l.603-.627c.16-.16.28-.313.361-.45a.515.515 0 0 0 .088-.272.746.746 0 0 0-.064-.257 2.303 2.303 0 0 0-.257-.426L5.922 3.849a.74.74 0 0 0-.297-.249 1.006 1.006 0 0 0-.401-.088Zm6.713 9.845-.129.546.217-.562c-.04-.008-.072 0-.088.016Z"/><path stroke="#2DE5AE" stroke-linecap="round" stroke-linejoin="round" stroke-miterlimit="10" stroke-width="1.2" d="M17.054 5.283h-3.031m3.68 3.434h-1.731l-1.927 1.282a.432.432 0 0 1-.671-.36v-.922c-1.3 0-2.165-.866-2.165-2.165V3.954c0-1.3.866-2.165 2.165-2.165h4.33c1.299 0 2.165.866 2.165 2.165v2.598c0 1.299-.866 2.165-2.166 2.165Z"/></svg><svg width="20" height="20" x="77" fill="none"><path stroke="#024C5B" stroke-linecap="round" stroke-linejoin="round" stroke-width="1.2" d="M17.567 7.15v5.7c0 .933-.5 1.8-1.309 2.275l-4.95 2.858a2.636 2.636 0 0 1-2.625 0l-4.95-2.858a2.624 2.624 0 0 1-1.308-2.275v-5.7c0-.933.5-1.8 1.308-2.275l4.95-2.858a2.636 2.636 0 0 1 2.625 0l4.95 2.858a2.635 2.635 0 0 1 1.309 2.275Z"/><path stroke="#2DE5AE" stroke-linecap="round" stroke-linejoin="round" stroke-width="1.2" d="M10 9.167a1.942 1.942 0 1 0 0-3.884 1.942 1.942 0 0 0 0 3.884Zm3.333 4.716c0-1.5-1.491-2.716-3.333-2.716s-3.333 1.216-3.333 2.716"/></svg></svg>