<svg xmlns="http://www.w3.org/2000/svg" width="397" height="415" fill="none"><path fill="#10B982" d="M0 0h397v414H0V0Z"/><mask id="a" width="397" height="415" x="0" y="0" maskUnits="userSpaceOnUse" style="mask-type:alpha"><path fill="#10B982" d="M0 0h397v415H0V0Z"/></mask><g mask="url(#a)"><g opacity=".15" style="mix-blend-mode:soft-light"><path fill="#EAEAEB" fill-opacity=".7" d="M218.793 0h29.793c2.571 0 4.655 1.984 4.655 4.43V32.79c0 2.447-2.084 4.43-4.655 4.43h-29.793c-2.571 0-4.655-1.983-4.655-4.43V4.43c0-2.447 2.084-4.431 4.655-4.431Z"/><path fill="#E1E2E2" fill-opacity=".49" d="M175.966 0h29.793c2.571 0 4.655 1.984 4.655 4.43V32.79c0 2.447-2.084 4.43-4.655 4.43h-29.793c-2.571 0-4.656-1.983-4.656-4.43V4.43c0-2.447 2.085-4.431 4.656-4.431Z"/><path fill="#F1F2F3" d="M347.276 40.764h29.793c2.571 0 4.655 1.984 4.655 4.431v28.358c0 2.447-2.084 4.43-4.655 4.43h-29.793c-2.571 0-4.655-1.983-4.655-4.43V45.195c0-2.447 2.084-4.43 4.655-4.43ZM304.448 0h29.793c2.571 0 4.656 1.984 4.656 4.43V32.79c0 2.447-2.085 4.43-4.656 4.43h-29.793c-2.571 0-4.655-1.983-4.655-4.43V4.43c0-2.447 2.084-4.431 4.655-4.431Z"/><path fill="#F2F3F4" d="M90.31 40.764h29.793c2.571 0 4.656 1.984 4.656 4.431v28.358c0 2.447-2.085 4.43-4.656 4.43H90.31c-2.57 0-4.655-1.983-4.655-4.43V45.195c0-2.447 2.084-4.43 4.655-4.43Z"/><path fill="#EAEAEB" fill-opacity=".7" d="M90.31 0h29.793c2.571 0 4.656 1.984 4.656 4.43V32.79c0 2.447-2.085 4.43-4.656 4.43H90.31c-2.57 0-4.655-1.983-4.655-4.43V4.43C85.655 1.984 87.74 0 90.31 0Z"/><path fill="#F1F2F3" d="M47.483 40.764h29.793c2.57 0 4.655 1.984 4.655 4.431v28.358c0 2.447-2.084 4.43-4.655 4.43H47.483c-2.571 0-4.655-1.983-4.655-4.43V45.195c0-2.447 2.084-4.43 4.655-4.43Z"/><path fill="#EAEAEB" fill-opacity=".7" d="M47.483 81.529h29.793c2.57 0 4.655 1.983 4.655 4.43v28.358c0 2.447-2.084 4.431-4.655 4.431H47.483c-2.571 0-4.655-1.984-4.655-4.431V85.96c0-2.448 2.084-4.431 4.655-4.431Z"/><path fill="#F2F3F4" d="M175.966 81.529h29.793c2.571 0 4.655 1.983 4.655 4.43v28.358c0 2.447-2.084 4.431-4.655 4.431h-29.793c-2.571 0-4.656-1.984-4.656-4.431V85.96c0-2.448 2.085-4.431 4.656-4.431Z"/><path fill="#EAEAEB" fill-opacity=".7" d="M218.793 81.529h29.793c2.571 0 4.655 1.983 4.655 4.43v28.358c0 2.447-2.084 4.431-4.655 4.431h-29.793c-2.571 0-4.655-1.984-4.655-4.431V85.96c0-2.448 2.084-4.431 4.655-4.431Z"/><path fill="#E1E2E2" fill-opacity=".49" d="M261.621 81.529h29.793c2.571 0 4.655 1.983 4.655 4.43v28.358c0 2.447-2.084 4.431-4.655 4.431h-29.793c-2.571 0-4.655-1.984-4.655-4.431V85.96c0-2.448 2.084-4.431 4.655-4.431Z"/><path fill="#F2F3F4" d="M304.448 122.293h29.793c2.571 0 4.656 1.984 4.656 4.431v28.357c0 2.447-2.085 4.431-4.656 4.431h-29.793c-2.571 0-4.655-1.984-4.655-4.431v-28.357c0-2.447 2.084-4.431 4.655-4.431Z"/><path fill="#EAEAEB" fill-opacity=".7" d="M304.448 163.057h29.793c2.571 0 4.656 1.984 4.656 4.431v28.358c0 2.447-2.085 4.43-4.656 4.43h-29.793c-2.571 0-4.655-1.983-4.655-4.43v-28.358c0-2.447 2.084-4.431 4.655-4.431Z"/><path fill="#F1F2F3" d="M218.793 163.057h29.793c2.571 0 4.655 1.984 4.655 4.431v28.358c0 2.447-2.084 4.43-4.655 4.43h-29.793c-2.571 0-4.655-1.983-4.655-4.43v-28.358c0-2.447 2.084-4.431 4.655-4.431ZM218.793 122.293h29.793c2.571 0 4.655 1.984 4.655 4.431v28.357c0 2.447-2.084 4.431-4.655 4.431h-29.793c-2.571 0-4.655-1.984-4.655-4.431v-28.357c0-2.447 2.084-4.431 4.655-4.431ZM90.31 122.293h29.793c2.571 0 4.656 1.984 4.656 4.431v28.357c0 2.447-2.085 4.431-4.656 4.431H90.31c-2.57 0-4.655-1.984-4.655-4.431v-28.357c0-2.447 2.084-4.431 4.655-4.431Z"/><path fill="#F2F3F4" d="M90.31 163.057h29.793c2.571 0 4.656 1.984 4.656 4.431v28.358c0 2.447-2.085 4.43-4.656 4.43H90.31c-2.57 0-4.655-1.983-4.655-4.43v-28.358c0-2.447 2.084-4.431 4.655-4.431Z"/><path fill="#F1F2F3" d="M47.483 163.057h29.793c2.57 0 4.655 1.984 4.655 4.431v28.358c0 2.447-2.084 4.43-4.655 4.43H47.483c-2.571 0-4.655-1.983-4.655-4.43v-28.358c0-2.447 2.084-4.431 4.655-4.431ZM47.483 203.821h29.793c2.57 0 4.655 1.984 4.655 4.431v28.358c0 2.447-2.084 4.431-4.655 4.431H47.483c-2.571 0-4.655-1.984-4.655-4.431v-28.358c0-2.447 2.084-4.431 4.655-4.431Z"/><path fill="#EAEAEB" fill-opacity=".7" d="M47.483 244.585h29.793c2.57 0 4.655 1.984 4.655 4.431v28.358c0 2.447-2.084 4.431-4.655 4.431H47.483c-2.571 0-4.655-1.984-4.655-4.431v-28.358c0-2.447 2.084-4.431 4.655-4.431ZM90.31 366.878h29.793c2.571 0 4.656 1.984 4.656 4.431v28.358c0 2.447-2.085 4.431-4.656 4.431H90.31c-2.57 0-4.655-1.984-4.655-4.431v-28.358c0-2.447 2.084-4.431 4.655-4.431Z"/><path fill="#F1F2F3" d="M304.448 407.642h29.793c2.571 0 4.656 1.984 4.656 4.431v28.358c0 2.447-2.085 4.431-4.656 4.431h-29.793c-2.571 0-4.655-1.984-4.655-4.431v-28.358c0-2.447 2.084-4.431 4.655-4.431ZM47.483 366.878h29.793c2.57 0 4.655 1.984 4.655 4.431v28.358c0 2.447-2.084 4.431-4.655 4.431H47.483c-2.571 0-4.655-1.984-4.655-4.431v-28.358c0-2.447 2.084-4.431 4.655-4.431ZM4.655 285.35h29.793c2.571 0 4.655 1.983 4.655 4.431v28.357c0 2.447-2.084 4.431-4.655 4.431H4.655c-2.57 0-4.655-1.984-4.655-4.431v-28.357c0-2.448 2.084-4.431 4.655-4.431Z"/><path fill="#EAEAEB" fill-opacity=".7" d="M4.655 163.057h29.793c2.571 0 4.655 1.984 4.655 4.431v28.358c0 2.447-2.084 4.43-4.655 4.43H4.655c-2.57 0-4.655-1.983-4.655-4.43v-28.358c0-2.447 2.084-4.431 4.655-4.431ZM304.448 203.821h29.793c2.571 0 4.656 1.984 4.656 4.431v28.358c0 2.447-2.085 4.431-4.656 4.431h-29.793c-2.571 0-4.655-1.984-4.655-4.431v-28.358c0-2.447 2.084-4.431 4.655-4.431Z"/><path fill="#F2F3F4" d="M347.276 163.057h29.793c2.571 0 4.655 1.984 4.655 4.431v28.358c0 2.447-2.084 4.43-4.655 4.43h-29.793c-2.571 0-4.655-1.983-4.655-4.43v-28.358c0-2.447 2.084-4.431 4.655-4.431Z"/><path fill="#F1F2F3" d="M347.276 244.585h29.793c2.571 0 4.655 1.984 4.655 4.431v28.358c0 2.447-2.084 4.431-4.655 4.431h-29.793c-2.571 0-4.655-1.984-4.655-4.431v-28.358c0-2.447 2.084-4.431 4.655-4.431Z"/><path fill="#F2F3F4" d="M347.276 203.821h29.793c2.571 0 4.655 1.984 4.655 4.431v28.358c0 2.447-2.084 4.431-4.655 4.431h-29.793c-2.571 0-4.655-1.984-4.655-4.431v-28.358c0-2.447 2.084-4.431 4.655-4.431Z"/><path fill="#E1E2E2" fill-opacity=".49" d="M304.448 326.114h29.793c2.571 0 4.656 1.984 4.656 4.431v28.357c0 2.448-2.085 4.431-4.656 4.431h-29.793c-2.571 0-4.655-1.983-4.655-4.431v-28.357c0-2.447 2.084-4.431 4.655-4.431Z"/><path fill="#EAEAEB" fill-opacity=".7" d="M261.621 326.114h29.793c2.571 0 4.655 1.984 4.655 4.431v28.357c0 2.448-2.084 4.431-4.655 4.431h-29.793c-2.571 0-4.655-1.983-4.655-4.431v-28.357c0-2.447 2.084-4.431 4.655-4.431Z"/><path fill="#F2F3F4" d="M261.621 244.585h29.793c2.571 0 4.655 1.984 4.655 4.431v28.358c0 2.447-2.084 4.431-4.655 4.431h-29.793c-2.571 0-4.655-1.984-4.655-4.431v-28.358c0-2.447 2.084-4.431 4.655-4.431Z"/><path fill="#E1E2E2" fill-opacity=".49" d="M218.793 285.35h29.793c2.571 0 4.655 1.983 4.655 4.431v28.357c0 2.447-2.084 4.431-4.655 4.431h-29.793c-2.571 0-4.655-1.984-4.655-4.431v-28.357c0-2.448 2.084-4.431 4.655-4.431Z"/><path fill="#EAEAEB" fill-opacity=".7" d="M175.966 285.35h29.793c2.571 0 4.655 1.983 4.655 4.431v28.357c0 2.447-2.084 4.431-4.655 4.431h-29.793c-2.571 0-4.656-1.984-4.656-4.431v-28.357c0-2.448 2.085-4.431 4.656-4.431Z"/><path fill="#F2F3F4" d="M175.966 326.114h29.793c2.571 0 4.655 1.984 4.655 4.431v28.357c0 2.448-2.084 4.431-4.655 4.431h-29.793c-2.571 0-4.656-1.983-4.656-4.431v-28.357c0-2.447 2.085-4.431 4.656-4.431Z"/><path fill="#F1F2F3" d="M175.966 366.878h29.793c2.571 0 4.655 1.984 4.655 4.431v28.358c0 2.447-2.084 4.431-4.655 4.431h-29.793c-2.571 0-4.656-1.984-4.656-4.431v-28.358c0-2.447 2.085-4.431 4.656-4.431ZM218.793 366.878h29.793c2.571 0 4.655 1.984 4.655 4.431v28.358c0 2.447-2.084 4.431-4.655 4.431h-29.793c-2.571 0-4.655-1.984-4.655-4.431v-28.358c0-2.447 2.084-4.431 4.655-4.431Z"/><path fill="#EAEAEB" fill-opacity=".7" d="M218.793 407.642h29.793c2.571 0 4.655 1.984 4.655 4.431v28.358c0 2.447-2.084 4.431-4.655 4.431h-29.793c-2.571 0-4.655-1.984-4.655-4.431v-28.358c0-2.447 2.084-4.431 4.655-4.431ZM133.138 326.114h29.793c2.571 0 4.655 1.984 4.655 4.431v28.357c0 2.448-2.084 4.431-4.655 4.431h-29.793c-2.571 0-4.655-1.983-4.655-4.431v-28.357c0-2.447 2.084-4.431 4.655-4.431ZM90.31 326.114h29.793c2.571 0 4.656 1.984 4.656 4.431v28.357c0 2.448-2.085 4.431-4.656 4.431H90.31c-2.57 0-4.655-1.983-4.655-4.431v-28.357c0-2.447 2.084-4.431 4.655-4.431Z"/><path fill="#F1F2F3" d="M175.966 244.585h29.793c2.571 0 4.655 1.984 4.655 4.431v28.358c0 2.447-2.084 4.431-4.655 4.431h-29.793c-2.571 0-4.656-1.984-4.656-4.431v-28.358c0-2.447 2.085-4.431 4.656-4.431Z"/><path fill="#EAEAEB" fill-opacity=".7" d="M175.966 203.821h29.793c2.571 0 4.655 1.984 4.655 4.431v28.358c0 2.447-2.084 4.431-4.655 4.431h-29.793c-2.571 0-4.656-1.984-4.656-4.431v-28.358c0-2.447 2.085-4.431 4.656-4.431Z"/><path fill="#F2F3F4" d="M133.138 244.585h29.793c2.571 0 4.655 1.984 4.655 4.431v28.358c0 2.447-2.084 4.431-4.655 4.431h-29.793c-2.571 0-4.655-1.984-4.655-4.431v-28.358c0-2.447 2.084-4.431 4.655-4.431Z"/><path fill="#F1F2F3" d="M90.31 244.585h29.793c2.571 0 4.656 1.984 4.656 4.431v28.358c0 2.447-2.085 4.431-4.656 4.431H90.31c-2.57 0-4.655-1.984-4.655-4.431v-28.358c0-2.447 2.084-4.431 4.655-4.431Z"/><path fill="#EAEAEB" fill-opacity=".7" d="M47.483 0h29.793c2.57 0 4.655 1.984 4.655 4.43V32.79c0 2.447-2.084 4.43-4.655 4.43H47.483c-2.571 0-4.655-1.983-4.655-4.43V4.43C42.828 1.984 44.912 0 47.483 0Z"/><path fill="#F2F3F4" d="M4.655 40.764h29.793c2.571 0 4.655 1.984 4.655 4.431v28.358c0 2.447-2.084 4.43-4.655 4.43H4.655C2.085 77.984 0 76 0 73.554V45.195c0-2.447 2.084-4.43 4.655-4.43Z"/></g></g></svg>