<svg xmlns="http://www.w3.org/2000/svg" width="18" height="17" fill="none"><path fill="#68788F" d="M10.536 16.625c-.735 0-1.51-.175-2.31-.513a12.211 12.211 0 0 1-2.334-1.34A20.307 20.307 0 0 1 3.7 12.905a19.432 19.432 0 0 1-1.866-2.185C1.274 9.94.826 9.16.507 8.405.17 7.599 0 6.818 0 6.083c0-.507.091-.988.267-1.437.182-.462.474-.891.871-1.262.5-.494 1.073-.741 1.685-.741.253 0 .513.058.734.163.254.117.469.292.625.526L5.69 5.46c.136.189.24.37.312.553.084.195.13.39.13.579 0 .247-.072.487-.208.715a2.602 2.602 0 0 1-.436.553l-.442.461c.006.02.013.033.02.046.077.137.233.37.533.722.318.364.617.696.917 1.001.383.378.702.677 1.001.924.37.312.611.468.754.54l-.013.032.475-.468c.202-.202.397-.351.586-.449.357-.22.812-.26 1.268-.071.169.071.35.169.546.305l2.16 1.535c.24.163.415.37.52.618.097.247.143.475.143.702 0 .313-.072.625-.209.917a3.029 3.029 0 0 1-.52.78c-.37.41-.774.703-1.242.892a3.84 3.84 0 0 1-1.45.28ZM2.823 3.618c-.358 0-.69.157-1.009.469-.299.28-.507.585-.637.917a2.846 2.846 0 0 0-.201 1.08c0 .604.143 1.261.429 1.937.292.69.702 1.405 1.222 2.12.52.716 1.113 1.412 1.763 2.069.65.643 1.353 1.242 2.074 1.768.703.514 1.425.93 2.14 1.23 1.112.474 2.153.585 3.011.227.332-.136.625-.344.891-.644.15-.162.267-.338.364-.546.079-.162.118-.331.118-.5a.776.776 0 0 0-.072-.326.492.492 0 0 0-.182-.195l-2.16-1.535a1.865 1.865 0 0 0-.357-.201c-.143-.059-.202-.117-.423.02-.13.064-.247.162-.377.292l-.494.488a.927.927 0 0 1-.943.195l-.176-.078a5.543 5.543 0 0 1-.923-.657c-.312-.267-.65-.579-1.06-.982-.319-.325-.638-.67-.97-1.054-.305-.357-.526-.663-.663-.917L4.11 8.6a1.214 1.214 0 0 1-.052-.325c0-.234.085-.442.247-.605l.488-.507c.13-.13.228-.254.293-.364a.417.417 0 0 0 .071-.221c0-.052-.02-.13-.052-.209a1.865 1.865 0 0 0-.208-.344L3.388 3.892a.6.6 0 0 0-.24-.202.814.814 0 0 0-.325-.072Zm5.436 7.974-.104.442.176-.455c-.033-.007-.059 0-.072.013Z"/><path fill="#68788F" fill-opacity=".5" d="M11.183 5.138a.408.408 0 0 1-.243-.06c.006.049.009.096.009.143.002.046.004.1.004.16v1.001h-.53V5.33c0-.174-.005-.32-.013-.442a3.339 3.339 0 0 0-.037-.33 2.596 2.596 0 0 0-.055-.277c-.022-.09-.047-.185-.075-.286l.501-.187a7200.722 7200.722 0 0 1 .146.555.486.486 0 0 0 .042.095.26.26 0 0 0 .071.065.247.247 0 0 0 .113.022c.067 0 .113-.016.138-.048a.188.188 0 0 0 .041-.121c0-.07-.022-.22-.066-.45l.505-.118c.047.22.07.418.07.594 0 .107-.013.207-.041.3a.67.67 0 0 1-.125.233.579.579 0 0 1-.197.152.612.612 0 0 1-.258.052ZM13.39 5.307a1.6 1.6 0 0 1-.335-.034.714.714 0 0 1-.267-.113v.113c.003.037.004.073.004.108v1.001h-.53V5.33c0-.174-.004-.32-.013-.442a3.339 3.339 0 0 0-.037-.33 2.596 2.596 0 0 0-.055-.277c-.022-.09-.047-.185-.075-.286l.501-.187c.037.13.066.246.088.347.022.101.047.2.075.295.02.072.04.124.063.156.025.032.065.06.12.082a.486.486 0 0 1-.04-.139 2.098 2.098 0 0 1-.005-.125.58.58 0 0 1 .05-.239.657.657 0 0 1 .146-.203.67.67 0 0 1 .217-.144.683.683 0 0 1 .276-.056c.07 0 .14.007.213.022.072.014.155.039.246.073l-.15.538a1.631 1.631 0 0 0-.175-.048.656.656 0 0 0-.134-.013.222.222 0 0 0-.146.052.164.164 0 0 0-.063.14c0 .06.017.108.05.142.034.032.08.048.138.048.07 0 .14-.01.213-.03.072-.024.155-.052.246-.087l.134.498a2.08 2.08 0 0 1-.405.152 1.61 1.61 0 0 1-.35.04Z"/><path fill="#68788F" fill-opacity=".84" d="M12.194 10.054c-.326 0-.656-.117-.903-.346l-.796-.73c-.2-.182-.46-.281-.74-.281H9.4c-.964 0-1.746-.722-1.746-1.608V2.372c0-.886.782-1.608 1.746-1.608h5.586c.964 0 1.746.722 1.746 1.608V7.09c0 .886-.782 1.608-1.746 1.608h-.354c-.279 0-.544.099-.74.28l-.796.731c-.246.23-.577.346-.903.346ZM9.401 1.408c-.577 0-1.047.433-1.047.96v4.716c0 .532.47.96 1.047.96h.354c.465 0 .903.168 1.233.471l.796.73a.623.623 0 0 0 .824 0l.796-.73c.331-.303.769-.471 1.234-.471h.35c.577 0 1.047-.432 1.047-.96V2.368c0-.532-.47-.96-1.048-.96H9.401Z"/></svg>