<svg xmlns="http://www.w3.org/2000/svg" width="18" height="18" fill="none"><path stroke="#68788F" stroke-linecap="round" stroke-linejoin="round" stroke-miterlimit="10" stroke-width="1.2" d="M13.485 8.093v3c0 .194-.008.382-.03.562-.172 2.025-1.365 3.03-3.563 3.03h-.3a.604.604 0 0 0-.48.24l-.9 1.2c-.397.532-1.042.532-1.44 0l-.9-1.2a.693.693 0 0 0-.48-.24h-.3c-2.392 0-3.592-.593-3.592-3.593v-3c0-2.197 1.013-3.39 3.03-3.562.18-.022.368-.03.563-.03h4.8c2.392 0 3.592 1.2 3.592 3.593Z"/><path stroke="#68788F" stroke-linecap="round" stroke-linejoin="round" stroke-miterlimit="10" stroke-opacity=".5" stroke-width="1.2" d="M16.485 5.093v3c0 2.204-1.012 3.39-3.03 3.562.022-.18.03-.367.03-.563v-3c0-2.392-1.2-3.592-3.592-3.592h-4.8c-.195 0-.383.008-.563.03.173-2.017 1.365-3.03 3.563-3.03h4.8c2.392 0 3.592 1.2 3.592 3.593Z"/><path stroke="#68788F" stroke-linecap="round" stroke-linejoin="round" stroke-opacity=".5" stroke-width="1.5" d="M10.122 9.938h.006M7.497 9.938h.006M4.872 9.938h.006"/></svg>