<svg xmlns="http://www.w3.org/2000/svg" width="1204" height="1151.629"><g data-name="Group 392"><g data-name="Group 100" opacity=".17" fill="none"><g data-name="Path 135" opacity=".31"><path d="M602 0c332.475 0 602 257.8 602 575.814s-269.525 575.814-602 575.814S0 893.828 0 575.814 269.525 0 602 0Z"/><path d="M602 130c-260.262 0-472 199.991-472 445.814 0 245.824 211.738 445.815 472 445.815s472-199.991 472-445.815C1074 329.991 862.262 130 602 130m0-130c332.476 0 602 257.8 602 575.814 0 318.014-269.524 575.815-602 575.815S0 893.828 0 575.814C0 257.801 269.524 0 602 0Z" fill="#fff"/></g><g data-name="Path 134" opacity=".31"><path d="M602 201.552c218.129 0 394.957 169.721 394.957 379.084S820.129 959.719 602 959.719 207.043 789.998 207.043 580.636 383.871 201.552 602 201.552Z"/><path d="M602 351.552c-135.07 0-244.957 102.767-244.957 229.084 0 126.317 109.887 229.083 244.957 229.083s244.957-102.766 244.957-229.083S737.07 351.552 602 351.552m0-150c218.129 0 394.957 169.722 394.957 379.084S820.13 959.719 602 959.719 207.043 789.998 207.043 580.636c0-209.362 176.828-379.084 394.957-379.084Z" fill="#fff"/></g><g data-name="Path 133" opacity=".31"><path d="M602 420.989c88.733 0 160.666 69.318 160.666 154.826S690.733 730.64 602 730.64s-160.667-69.318-160.667-154.825S513.266 420.989 602 420.989Z"/><path d="M602 520.989c-33.452 0-60.667 24.595-60.667 54.826 0 30.23 27.215 54.825 60.667 54.825 33.451 0 60.666-24.595 60.666-54.825 0-30.231-27.215-54.826-60.666-54.826m0-100c88.733 0 160.666 69.318 160.666 154.826 0 85.507-71.933 154.825-160.666 154.825-88.734 0-160.667-69.318-160.667-154.825 0-85.508 71.933-154.826 160.667-154.826Z" fill="#fff"/></g></g></g></svg>