<svg width="47" height="47" viewBox="0 0 47 47" fill="none" xmlns="http://www.w3.org/2000/svg">
<rect x="0.175171" y="0.145752" width="46.2678" height="46.2678" rx="11" fill="#FBFDFF"/>
<path d="M19.5202 16.6353C19.1262 16.6353 18.7995 16.3086 18.7995 15.9146V13.032C18.7995 12.638 19.1262 12.3113 19.5202 12.3113C19.9141 12.3113 20.2408 12.638 20.2408 13.032V15.9146C20.2408 16.3086 19.9141 16.6353 19.5202 16.6353Z" fill="#404040"/>
<path d="M27.2074 16.6353C26.8134 16.6353 26.4867 16.3086 26.4867 15.9146V13.032C26.4867 12.638 26.8134 12.3113 27.2074 12.3113C27.6013 12.3113 27.928 12.638 27.928 13.032V15.9146C27.928 16.3086 27.6013 16.6353 27.2074 16.6353Z" fill="#404040"/>
<path d="M31.5314 20.5654H15.1961C14.8022 20.5654 14.4755 20.2387 14.4755 19.8447C14.4755 19.4507 14.8022 19.124 15.1961 19.124H31.5314C31.9254 19.124 32.2521 19.4507 32.2521 19.8447C32.2521 20.2387 31.9254 20.5654 31.5314 20.5654Z" fill="#404040"/>
<path d="M27.2073 32.9706H19.5202C16.0129 32.9706 13.995 30.9527 13.995 27.4455V19.2778C13.995 15.7706 16.0129 13.7527 19.5202 13.7527H27.2073C30.7146 13.7527 32.7325 15.7706 32.7325 19.2778V27.4455C32.7325 30.9527 30.7146 32.9706 27.2073 32.9706ZM19.5202 15.194C16.772 15.194 15.4363 16.5297 15.4363 19.2778V27.4455C15.4363 30.1936 16.772 31.5293 19.5202 31.5293H27.2073C29.9555 31.5293 31.2911 30.1936 31.2911 27.4455V19.2778C31.2911 16.5297 29.9555 15.194 27.2073 15.194H19.5202Z" fill="#404040"/>
<path d="M20.0006 25.0431C19.8757 25.0431 19.7508 25.0143 19.6355 24.9663C19.5202 24.9182 19.4145 24.851 19.3184 24.7645C19.2319 24.6684 19.1646 24.5627 19.1166 24.4474C19.0685 24.3321 19.0397 24.2072 19.0397 24.0822C19.0397 23.8324 19.1454 23.5826 19.3184 23.4C19.4145 23.3135 19.5202 23.2463 19.6355 23.1982C19.8084 23.1213 20.0006 23.1021 20.1928 23.1406C20.2505 23.1502 20.3081 23.1694 20.3658 23.1982C20.4234 23.2174 20.4811 23.2463 20.5387 23.2847C20.5868 23.3232 20.6348 23.3616 20.6829 23.4C20.7213 23.4481 20.7693 23.4961 20.7982 23.5441C20.8366 23.6018 20.8655 23.6594 20.8847 23.7171C20.9135 23.7748 20.9327 23.8324 20.9423 23.8901C20.9519 23.9573 20.9615 24.015 20.9615 24.0822C20.9615 24.3321 20.8558 24.5819 20.6829 24.7645C20.5003 24.9374 20.2505 25.0431 20.0006 25.0431Z" fill="#404040"/>
<path d="M23.3638 25.0433C23.114 25.0433 22.8641 24.9376 22.6816 24.7646C22.6431 24.7166 22.6047 24.6685 22.5663 24.6205C22.5278 24.5628 22.499 24.5052 22.4798 24.4475C22.4509 24.3899 22.4317 24.3322 22.4221 24.2746C22.4125 24.2073 22.4029 24.1497 22.4029 24.0824C22.4029 23.9575 22.4317 23.8326 22.4798 23.7172C22.5278 23.6019 22.5951 23.4963 22.6816 23.4002C22.9506 23.1311 23.383 23.0446 23.7289 23.1984C23.8539 23.2464 23.9499 23.3137 24.046 23.4002C24.219 23.5827 24.3247 23.8326 24.3247 24.0824C24.3247 24.1497 24.3151 24.2073 24.3055 24.2746C24.2959 24.3322 24.2767 24.3899 24.2478 24.4475C24.2286 24.5052 24.1998 24.5628 24.1613 24.6205C24.1229 24.6685 24.0845 24.7166 24.046 24.7646C23.9499 24.8511 23.8539 24.9184 23.7289 24.9664C23.6136 25.0145 23.4887 25.0433 23.3638 25.0433Z" fill="#404040"/>
<path d="M20.0006 28.4063C19.8757 28.4063 19.7508 28.3775 19.6355 28.3295C19.5202 28.2814 19.4145 28.2141 19.3184 28.1277C19.2319 28.0316 19.1646 27.9355 19.1166 27.8106C19.0685 27.6953 19.0397 27.5703 19.0397 27.4454C19.0397 27.1956 19.1454 26.9458 19.3184 26.7632C19.4145 26.6767 19.5202 26.6094 19.6355 26.5614C19.991 26.4077 20.4138 26.4942 20.6829 26.7632C20.7213 26.8112 20.7693 26.8593 20.7982 26.9073C20.8366 26.965 20.8655 27.0226 20.8847 27.0803C20.9135 27.1379 20.9327 27.1956 20.9423 27.2629C20.9519 27.3205 20.9615 27.3878 20.9615 27.4454C20.9615 27.6953 20.8558 27.9451 20.6829 28.1277C20.5003 28.3006 20.2505 28.4063 20.0006 28.4063Z" fill="#404040"/>
</svg>
