<svg width="47" height="47" viewBox="0 0 47 47" fill="none" xmlns="http://www.w3.org/2000/svg">
<rect x="0.175171" y="0.194824" width="46.2678" height="46.2678" rx="11" fill="#FBFDFF"/>
<path d="M26.433 33.1506H20.1851C15.4801 33.1506 13.4677 31.1383 13.4677 26.4332V26.3086C13.4677 22.0539 15.1447 20.0033 18.9011 19.6487C19.2844 19.62 19.6485 19.9074 19.6868 20.3003C19.7252 20.6932 19.4377 21.0478 19.0352 21.0861C16.0263 21.364 14.9051 22.7822 14.9051 26.3182V26.4428C14.9051 30.3429 16.285 31.7228 20.1851 31.7228H26.433C30.3331 31.7228 31.713 30.3429 31.713 26.4428V26.3182C31.713 22.7631 30.5727 21.3448 27.5063 21.0861C27.1134 21.0478 26.8163 20.7028 26.8547 20.3099C26.893 19.917 27.2284 19.62 27.6308 19.6583C31.4447 19.9841 33.1504 22.0444 33.1504 26.3278V26.4524C33.1504 31.1383 31.1381 33.1506 26.433 33.1506Z" fill="#404040"/>
<path d="M23.309 26.8072C22.9161 26.8072 22.5903 26.4814 22.5903 26.0885V13.746C22.5903 13.3532 22.9161 13.0273 23.309 13.0273C23.7019 13.0273 24.0277 13.3532 24.0277 13.746V26.0885C24.0277 26.4909 23.7019 26.8072 23.309 26.8072Z" fill="#404040"/>
<path d="M23.3091 27.8803C23.127 27.8803 22.9449 27.8132 22.8012 27.6695L19.591 24.4593C19.3131 24.1814 19.3131 23.7214 19.591 23.4435C19.8689 23.1656 20.3289 23.1656 20.6068 23.4435L23.3091 26.1458L26.0114 23.4435C26.2893 23.1656 26.7492 23.1656 27.0271 23.4435C27.305 23.7214 27.305 24.1814 27.0271 24.4593L23.8169 27.6695C23.6732 27.8132 23.4911 27.8803 23.3091 27.8803Z" fill="#404040"/>
</svg>
