<svg xmlns="http://www.w3.org/2000/svg" width="44" height="44" fill="none"><path stroke="#2DE5AE" stroke-linecap="round" stroke-linejoin="round" stroke-width="2.5" d="m22 14.465-1.962 3.41c-.44.752-.073 1.375.789 1.375h2.328c.88 0 1.228.623.788 1.375L22 24.035"/><path stroke="#024C5B" stroke-linecap="round" stroke-linejoin="round" stroke-width="2.5" d="M15.215 33.073v-2.126c-4.217-2.549-7.682-7.517-7.682-12.797 0-9.075 8.342-16.188 17.765-14.135 4.144.917 7.774 3.667 9.662 7.462 3.831 7.7-.202 15.876-6.123 19.451v2.127c0 .532.201 1.76-1.76 1.76H16.974c-2.017.018-1.76-.77-1.76-1.742Zm.369 7.26a23.482 23.482 0 0 1 12.833 0"/></svg>