<svg xmlns="http://www.w3.org/2000/svg" width="44" height="44" fill="none"><path stroke="#2DE5AE" stroke-linecap="round" stroke-linejoin="round" stroke-width="2.5" d="M23.096 23.383 14.49 42.167M23 23.383l8.51 18.784"/><path stroke="#024C5B" stroke-linecap="round" stroke-linejoin="round" stroke-width="2.5" d="m28.805 20.642 10.849-7.264a2.379 2.379 0 0 0 .651-3.296l-3.488-5.195a2.379 2.379 0 0 0-3.297-.651L22.672 11.5l6.133 9.142Z"/><path stroke="#024C5B" stroke-linecap="round" stroke-linejoin="round" stroke-width="2.5" d="m23.333 12.418-9.157 6.134 4.906 7.325 9.157-6.133-4.906-7.325ZM11.174 30.475l7.57-5.06-4.293-6.402-7.57 5.06a1.915 1.915 0 0 0-.518 2.665l2.166 3.22c.575.862 1.763 1.092 2.645.517Z"/></svg>