<svg xmlns="http://www.w3.org/2000/svg" width="200" height="59" viewBox="0 0 201 59"><path d="M15.059 38.418a4.663 4.663 0 0 0 2.586 4.184 4.664 4.664 0 0 0 4.894-.473c.59-.48.695-1.34.23-1.945a1.398 1.398 0 0 0-1.933-.286c-.559.426-1.313.5-1.945.188a1.855 1.855 0 0 1-1.028-1.66 1.408 1.408 0 0 0-1.351-1.457 1.402 1.402 0 0 0-1.453 1.457Zm55.254-18.633a4.66 4.66 0 0 0-2.59-4.187 4.657 4.657 0 0 0-4.895.476 1.406 1.406 0 0 0-.226 1.942 1.4 1.4 0 0 0 1.93.285 1.851 1.851 0 0 1 2.977 1.473 1.405 1.405 0 0 0 1.346 1.456 1.408 1.408 0 0 0 1.457-1.351v-.106Zm0 0" style="stroke:none;fill-rule:nonzero;fill:#ffbf40;fill-opacity:1"/><path d="M95.91 22.14a6.952 6.952 0 0 0 4.613 1.758h8.864a4.72 4.72 0 0 1 4.722 4.72v5.077a1.404 1.404 0 0 0 2.805 0v-5.074c0-4.156-3.367-7.531-7.52-7.531h-8.87a4.133 4.133 0 0 1-2.75-1.047 1.404 1.404 0 0 0-1.863 2.098Zm0 0" style="stroke:none;fill-rule:nonzero;fill:#3daa89;fill-opacity:1"/><path d="M109.816 22.707v1.406a4.293 4.293 0 0 1 4.293 4.293v4.297h-4.293a4.293 4.293 0 0 1-4.289-4.297 4.292 4.292 0 0 1 4.29-4.293v-2.8a7.092 7.092 0 0 0-7.208 6.98 7.09 7.09 0 0 0 6.973 7.215h5.922c.777 0 1.406-.625 1.406-1.403v-5.703c-.004-3.918-3.176-7.093-7.094-7.09Zm0 0" style="stroke:none;fill-rule:nonzero;fill:#3daa89;fill-opacity:1"/><path d="M109.281 32.695h-5.691a4.294 4.294 0 0 1-4.293-4.297 4.293 4.293 0 0 1 4.293-4.293 1.405 1.405 0 0 0 .105-2.808h-.105c-3.918-.067-7.145 3.062-7.211 6.98a7.101 7.101 0 0 0 6.976 7.22h5.926a1.404 1.404 0 0 0 0-2.81Zm25.633-9.91a6.96 6.96 0 0 0 3.93 1.227h3.77a5.165 5.165 0 0 1 5.171 5.168v3.847h-15.043a5.13 5.13 0 0 1-5.129-5.132v-1.188a1.402 1.402 0 1 0-2.804 0v1.188c0 4.386 3.55 7.94 7.933 7.937h16.446a1.4 1.4 0 0 0 1.402-1.398V29.18c0-4.41-3.57-7.985-7.977-7.985h-3.77a4.106 4.106 0 0 1-2.34-.73 1.406 1.406 0 0 0-1.917.383c-.43.625-.285 1.48.328 1.93Zm0 0" style="stroke:none;fill-rule:nonzero;fill:#3daa89;fill-opacity:1"/><path d="M143.078 22.688v1.402a4.294 4.294 0 0 1 4.293 4.297v4.297h-4.293a4.295 4.295 0 0 1-4.289-4.297 4.293 4.293 0 0 1 4.29-4.297v-2.805a7.092 7.092 0 0 0-7.208 6.98 7.09 7.09 0 0 0 6.973 7.215h5.926a1.4 1.4 0 0 0 1.402-1.398v-5.7a7.094 7.094 0 0 0-7.094-7.097Zm0 0" style="stroke:none;fill-rule:nonzero;fill:#3daa89;fill-opacity:1"/><path d="M80.836 19.32v2.465a1.402 1.402 0 1 0 2.805 0V19.32c0-.773-.63-1.402-1.403-1.402-.777 0-1.402.629-1.402 1.402" style="stroke:none;fill-rule:nonzero;fill:#ffbf40;fill-opacity:1"/><path d="m124.8 22.816-.01 6.93a3.137 3.137 0 0 1-3.122 3.14H95.395a5.773 5.773 0 0 1-5.766-5.773v-4.258a1.414 1.414 0 1 0-2.828 0v5.512a4.523 4.523 0 0 1-4.512 4.52 4.52 4.52 0 0 1-4.516-4.516l.012-5.508a1.415 1.415 0 1 0-2.828 0l-.012 5.504a7.347 7.347 0 0 0 7.344 7.352c4.055 0 7.34-3.29 7.34-7.352V22.86a1.415 1.415 0 1 0-2.828 0v4.254c0 4.75 3.84 8.602 8.582 8.606h26.27a5.965 5.965 0 0 0 5.964-5.969l.016-6.93a1.422 1.422 0 0 0-1.363-1.472 1.421 1.421 0 0 0-1.47 1.367v.105Zm0 0" style="stroke:none;fill-rule:nonzero;fill:#3daa89;fill-opacity:1"/><path d="M122.414 41.05h5.715a1.42 1.42 0 0 0 0-2.835h-5.715a1.42 1.42 0 0 0 0 2.836" style="stroke:none;fill-rule:nonzero;fill:#ffbf40;fill-opacity:1"/><path d="M68.875 24.91v5.2a2.782 2.782 0 0 1-2.777 2.78 2.78 2.78 0 0 1-2.778-2.78v-3.782a1.415 1.415 0 1 0-2.828-.105.476.476 0 0 0 0 .105v3.781c0 3.098 2.508 5.614 5.602 5.614a5.609 5.609 0 0 0 5.605-5.61V24.91a1.414 1.414 0 0 0-2.828 0Zm0 0" style="stroke:none;fill-rule:nonzero;fill:#3daa89;fill-opacity:1"/><path d="M52.082 24.7v5.382a5.612 5.612 0 0 0 5.605 5.613 5.606 5.606 0 0 0 5.602-5.61v-3.784c0-.781-.633-1.418-1.414-1.418-.781 0-1.414.637-1.414 1.418v3.781a2.775 2.775 0 0 1-5.55.016v-5.399a1.414 1.414 0 1 0-2.829 0Zm0 0" style="stroke:none;fill-rule:nonzero;fill:#3daa89;fill-opacity:1"/><path d="M36.133 19.523v9.567c0 3.656 2.96 6.617 6.61 6.613h5.655a6.485 6.485 0 0 0 6.489-6.488v-2.899c0-.78-.633-1.418-1.414-1.418-.782 0-1.414.637-1.414 1.418v2.895a3.67 3.67 0 0 1-3.66 3.668h-5.657a3.784 3.784 0 0 1-3.777-3.785v-9.567a1.423 1.423 0 0 0-1.418-1.367c-.762 0-1.387.606-1.414 1.367Zm-4.801 6.961v2.961a3.407 3.407 0 0 1-3.398 3.403H13.742a3.565 3.565 0 0 1-3.562-3.57v-4.473a1.42 1.42 0 0 0-1.364-1.47A1.418 1.418 0 0 0 7.348 24.7v4.578a6.396 6.396 0 0 0 6.394 6.399h14.192a6.23 6.23 0 0 0 6.226-6.23v-2.962a1.414 1.414 0 1 0-2.828 0Zm0 0" style="stroke:none;fill-rule:nonzero;fill:#3daa89;fill-opacity:1"/><path d="M163.824 38.133v3.004a2.273 2.273 0 0 0 2.274 2.273 2.27 2.27 0 0 0 2.27-2.273v-3.004Zm22.711 2.574v-2.582h-4.547v3.008a2.272 2.272 0 1 0 4.543 0Zm0 0" style="stroke:none;fill-rule:nonzero;fill:#ffbf40;fill-opacity:1"/><path d="M163.824 38.133h-4.148a2.27 2.27 0 0 0-2.27 2.273 2.272 2.272 0 0 0 2.27 2.274h4.758a2.256 2.256 0 0 1-.606-1.543Zm9.086 0h-4.543v3.004c0 .574-.215 1.125-.605 1.543h5.754a2.256 2.256 0 0 1-.606-1.543Zm9.078 0h-4.539v3.004a2.252 2.252 0 0 1-.601 1.543h5.75a2.256 2.256 0 0 1-.606-1.543Zm10.621-4.875a6.764 6.764 0 0 0-6.074-4.137v4.55a2.225 2.225 0 0 1 2.05 2.008 2.228 2.228 0 0 1-2.054 2.438v3.012a2.252 2.252 0 0 1-.601 1.543h.437a6.774 6.774 0 0 0 5.649-3.035 6.771 6.771 0 0 0 .593-6.387Zm-15.16-13.16h4.543v4.547h-4.543Zm13.426 4.547a2.275 2.275 0 0 0 0-4.547h-4.34v4.547Zm-13.426 9.02h.836a2.382 2.382 0 0 1-.828-.161Zm-9.082-4.552h4.543v4.551h-4.543Zm9.918.008h-.828v.16c.262-.105.543-.16.828-.16Zm-15.187-.18a2.25 2.25 0 0 1-.977-.812 2.242 2.242 0 0 1-.16-2.238 2.229 2.229 0 0 1 1.863-1.246v-4.543c-3.676.085-6.61 3.097-6.61 6.777a6.777 6.777 0 0 0 6.61 6.777v-4.55a2.21 2.21 0 0 1-.726-.165Zm0 0" style="stroke:none;fill-rule:nonzero;fill:#3daa89;fill-opacity:1"/><path d="M178.328 29.121h-.043c-.285 0-.566.055-.828.16v4.23c.262.102.543.157.828.16h3.703v-4.55Zm0 0" style="stroke:none;fill-rule:nonzero;fill:#3daa89;fill-opacity:1"/><path d="M163.965 37.164h-.14v4.555h4.542v-4.555Zm0 0" style="stroke:none;fill-rule:nonzero;fill:#d39a35;fill-opacity:1"/><path d="M163.965 24.645h4.402v-4.547h-4.543v4.547Zm9.066-4.547c-.05-.114-.09-.23-.12-.348v.348Zm0 0" style="stroke:none;fill-rule:nonzero;fill:#ffbf40;fill-opacity:1"/><path d="M163.965 19.016h-.14v6.609a.854.854 0 0 0 .14.012h4.402v-6.621Zm0 0" style="stroke:none;fill-rule:nonzero;fill:#d39a35;fill-opacity:1"/><path d="M171.895 33.512v.14h6.605c0-.047.008-.093.008-.14v-4.407h-6.63Zm0 0" style="stroke:none;fill-rule:nonzero;fill:#359374;fill-opacity:1"/><path d="M168.367 20.098h-4.543c-3.676.086-6.61 3.097-6.61 6.777a6.777 6.777 0 0 0 6.61 6.777v-4.55a2.245 2.245 0 0 1-2.101-2.227c0-.746.37-1.441.996-1.855.328-.223.71-.352 1.105-.375h9.086v-4.547Zm0 0" style="stroke:none;fill-rule:nonzero;fill:#3daa89;fill-opacity:1"/><path d="M162.824 28.809c.336.164.7.265 1.07.296h5.43v4.563l-5.433-.008a9.051 9.051 0 0 1-.977-.074h-.055m24.641.375a3.02 3.02 0 0 0-1.07-.297h-5.414v-4.562h5.43c.327.007.652.03.976.074h.055" style="stroke:none;fill-rule:nonzero;fill:#359374;fill-opacity:1"/><path d="M168.367 29.121v-4.476h-4.543v13.472h4.543Zm0 0" style="stroke:none;fill-rule:nonzero;fill:#ffbf40;fill-opacity:1"/><path d="M176.863 42.7s1.625-.321 1.64-2.442l.017-2.117h-3.239v4.457Zm-3.347 0s-1.63-.321-1.645-2.442l-.016-2.117h3.243v4.457Zm-1.645-18.18v.14h6.61c0-.047.011-.094.011-.14v-4.407h-6.633Zm0 0" style="stroke:none;fill-rule:nonzero;fill:#359374;fill-opacity:1"/><path d="M186 16.344a6.773 6.773 0 0 0-6.238-4.14h-.078c-1.727 0-3.391.66-4.645 1.847-.21-.18-.43-.344-.656-.5a6.772 6.772 0 0 0-6.969-.367 6.798 6.798 0 0 0-3.598 5.988v.93h4.543v-.93c0-.297.059-.594.176-.867a2.239 2.239 0 0 1 3.91-.36c.41.614.446 1.594.457 1.825.032.117.07.234.121.347h-.12v9.004h4.538V18.988c0-.746.371-1.441.989-1.855.367-.25.8-.383 1.246-.383h.078a2.242 2.242 0 0 1 2.234 2.238v1.11h4.547v-1.11c0-.91-.18-1.808-.535-2.644Zm-13.09 17.32v7.473a2.27 2.27 0 1 0 4.54 0v-7.473Zm9.078-9.02v13.489h4.543V24.656Zm0 0" style="stroke:none;fill-rule:nonzero;fill:#ffbf40;fill-opacity:1"/><path d="M163.965 24.64h-.14v.997h4.538v-1.008Zm0-5.523h-.14v.992h4.538v-.992Zm0 0" style="stroke:none;fill-rule:nonzero;fill:#d39a35;fill-opacity:1"/><path d="M181.992 20.098h4.543v4.547h-4.543Zm0 0" style="stroke:none;fill-rule:nonzero;fill:#ffbf40;fill-opacity:1"/><path d="M182.133 37.164h-.145v4.555h4.547v-4.555Zm-18.168 0h-.14v4.555h4.542v-4.555Zm0 0" style="stroke:none;fill-rule:nonzero;fill:#d39a35;fill-opacity:1"/><path d="M176.008 31.387c0-.934.574-1.774 1.441-2.114v-.152h-4.539v4.55h4.54v-.16a2.273 2.273 0 0 1-1.442-2.124Zm0 0" style="stroke:none;fill-rule:nonzero;fill:#ffbf40;fill-opacity:1"/><path d="M182.14 18.91H182v6.664c.047 0 .094.012.14.012h4.403V18.91Zm0 0" style="stroke:none;fill-rule:nonzero;fill:#d39a35;fill-opacity:1"/><path d="M176.008 31.387c0 .937.574 1.777 1.441 2.117v-4.23a2.272 2.272 0 0 0-1.441 2.113Zm0 0" style="stroke:none;fill-rule:nonzero;fill:#ffbf40;fill-opacity:1"/><path d="M162.54 38.117h8.51v4.567h-8.51Zm0 0" style="stroke:none;fill-rule:nonzero;fill:#3daa89;fill-opacity:1"/><path d="M172.883 28.164h4.582v6.344h-4.582Zm0 0" style="stroke:none;fill-rule:nonzero;fill:#d39a35;fill-opacity:1"/><path d="M180.29 38.133h6.487v4.554h-6.488Zm.343-18.035h6.488v4.55h-6.488Zm-10.203 9.02h9.617v4.546h-9.617Zm0 0" style="stroke:none;fill-rule:nonzero;fill:#3daa89;fill-opacity:1"/><path d="M179.688 20.094h9.617v4.543h-9.618Zm0 0" style="stroke:none;fill-rule:nonzero;fill:#3daa89;fill-opacity:1"/></svg>