 <svg width="20" height="20" viewBox="0 0 20 20" fill="none" xmlns="http://www.w3.org/2000/svg">
<path opacity="0.5" d="M8.84679 19.9342C3.86713 19.3624 0 15.1328 0 10C0 4.47715 4.47715 0 10 0C15.5228 0 20 4.47715 20 10C20 15.1565 16.7173 14.7325 13.9135 14.3703C12.2964 14.1614 10.8386 13.9731 10.2619 14.888C9.86745 15.5136 10.2938 16.2938 10.8168 16.8168C11.4703 17.4703 11.4703 18.5297 10.8168 19.1832C10.2938 19.7062 9.58159 20.0186 8.84679 19.9342Z" fill="white"/>
<path d="M9.085 5C9.085 5.82843 8.41343 6.5 7.585 6.5C6.75658 6.5 6.085 5.82843 6.085 5C6.085 4.17157 6.75658 3.5 7.585 3.5C8.41343 3.5 9.085 4.17157 9.085 5Z" fill="white"/>
<path d="M4.5 11.0002C5.32843 11.0002 6 10.3287 6 9.50023C6 8.6718 5.32843 8.00023 4.5 8.00023C3.67157 8.00023 3 8.6718 3 9.50023C3 10.3287 3.67157 11.0002 4.5 11.0002Z" fill="white"/>
<path d="M15.5 11.0002C16.3284 11.0002 17 10.3287 17 9.50023C17 8.6718 16.3284 8.00023 15.5 8.00023C14.6716 8.00023 14 8.6718 14 9.50023C14 10.3287 14.6716 11.0002 15.5 11.0002Z" fill="white"/>
<path d="M12.5 6.50023C13.3284 6.50023 14 5.82866 14 5.00023C14 4.1718 13.3284 3.50023 12.5 3.50023C11.6716 3.50023 11 4.1718 11 5.00023C11 5.82866 11.6716 6.50023 12.5 6.50023Z" fill="white"/>
</svg>
