<svg xmlns="http://www.w3.org/2000/svg" width="44" height="44" fill="none"><path stroke="#024C5B" stroke-linecap="round" stroke-linejoin="round" stroke-width="2.5" d="M31.497 12.53a1.06 1.06 0 0 0-.333 0 4.503 4.503 0 0 1-4.34-4.515A4.504 4.504 0 0 1 31.34 3.5a4.515 4.515 0 0 1 4.515 4.515c-.017 2.45-1.942 4.428-4.357 4.515Zm-1.804 12.74c2.398.402 5.04-.017 6.895-1.26 2.468-1.645 2.468-4.34 0-5.985-1.872-1.242-4.55-1.662-6.947-1.242m-19.2-4.253a1.06 1.06 0 0 1 .333 0 4.503 4.503 0 0 0 4.34-4.515A4.504 4.504 0 0 0 10.599 3.5a4.515 4.515 0 0 0-4.515 4.515c.017 2.45 1.942 4.428 4.357 4.515Zm1.805 12.74c-2.398.402-5.04-.017-6.895-1.26-2.468-1.645-2.468-4.34 0-5.985 1.872-1.242 4.55-1.662 6.947-1.242"/><path stroke="#2DE5AE" stroke-linecap="round" stroke-linejoin="round" stroke-width="2.5" d="M21 25.602a1.06 1.06 0 0 0-.332 0 4.503 4.503 0 0 1-4.34-4.515 4.504 4.504 0 0 1 4.515-4.515 4.515 4.515 0 0 1 4.515 4.515c-.017 2.45-1.942 4.445-4.357 4.515Zm-5.09 5.513c-2.468 1.645-2.468 4.34 0 5.985 2.8 1.872 7.384 1.872 10.184 0 2.468-1.645 2.468-4.34 0-5.985-2.782-1.855-7.385-1.855-10.185 0Z"/></svg>