<svg width="251" height="250" viewBox="0 0 251 250" fill="none" xmlns="http://www.w3.org/2000/svg">
<mask id="mask0_224_288" style="mask-type:alpha" maskUnits="userSpaceOnUse" x="0" y="0" width="251" height="250">
<rect x="0.223999" width="250" height="250" fill="white"/>
</mask>
<g mask="url(#mask0_224_288)">
<path d="M113.559 236.481C82.0095 236.481 50.4596 224.474 26.4444 200.458L13.743 187.757L39.1465 162.342L51.8479 175.044C85.8756 209.071 141.242 209.071 175.27 175.044C209.298 141.016 209.298 85.6505 175.27 51.6232L162.568 38.9218L187.971 13.519L200.673 26.2204C248.716 74.2626 248.716 152.416 200.673 200.458C176.658 224.474 145.108 236.481 113.559 236.481Z" fill="#868A9A"/>
<path d="M60.6878 130.938H24.7515V42.5113C24.7515 32.5856 32.7937 24.5435 42.72 24.5435H131.147V60.479H60.6878V130.938Z" fill="#868A9A"/>
</g>
</svg>
