<svg width="21" height="21" viewBox="0 0 21 21" fill="none" xmlns="http://www.w3.org/2000/svg">
<path opacity="0.5" d="M14.5161 20.3311C12.6305 20.3311 11.6877 20.3311 11.1019 19.7453C10.5995 19.2429 10.528 18.478 10.5178 17.0811L10.5161 15.5811V14.0811V12.5811V11.0811V9.58105V8.08105V6.58105V5.08105L10.5178 3.58105C10.528 2.18412 10.5995 1.4192 11.1019 0.916842C11.6877 0.331055 12.6305 0.331055 14.5161 0.331055H16.5161C18.4017 0.331055 19.3445 0.331055 19.9303 0.916842C20.5161 1.50263 20.5161 2.44545 20.5161 4.33106V16.3311C20.5161 18.2167 20.5161 19.1595 19.9303 19.7453C19.3445 20.3311 18.4017 20.3311 16.5161 20.3311H14.5161Z" fill="white"/>
<path d="M13.5161 6.58105H10.5161V8.08105H13.5161C13.9303 8.08105 14.2661 7.74527 14.2661 7.33105C14.2661 6.91684 13.9303 6.58105 13.5161 6.58105Z" fill="white"/>
<path d="M12.5161 3.58105L10.5178 3.58105L10.5161 5.08105H12.5161C12.9303 5.08106 13.2661 4.74527 13.2661 4.33105C13.2661 3.91684 12.9303 3.58105 12.5161 3.58105Z" fill="white"/>
<path d="M12.5161 9.58105H10.5161V11.0811H12.5161C12.9303 11.0811 13.2661 10.7453 13.2661 10.3311C13.2661 9.91684 12.9303 9.58105 12.5161 9.58105Z" fill="white"/>
<path d="M13.5161 12.5811L10.5161 12.5811V14.0811L13.5161 14.0811C13.9303 14.0811 14.2661 13.7453 14.2661 13.3311C14.2661 12.9168 13.9303 12.5811 13.5161 12.5811Z" fill="white"/>
<path d="M12.5161 15.5811H10.5161L10.5178 17.0811H12.5161C12.9303 17.0811 13.2661 16.7453 13.2661 16.3311C13.2661 15.9168 12.9303 15.5811 12.5161 15.5811Z" fill="white"/>
<path d="M6.51611 13.3105L6.51611 5.33121C5.74712 5.6482 4.73277 5.9201 3.51629 5.9201C2.29963 5.9201 1.28515 5.64811 0.516113 5.33105L0.516114 13.3105C0.516115 13.9332 0.516115 14.2446 0.55388 14.5501C0.59843 14.9105 0.682112 15.265 0.803445 15.6073C0.906302 15.8974 1.04554 16.1759 1.32402 16.7328L2.79251 19.6698C2.92955 19.9439 3.20968 20.117 3.51611 20.117C3.82255 20.117 4.10268 19.9439 4.23972 19.6698L5.70821 16.7328C5.98668 16.1759 6.12592 15.8974 6.22878 15.6073C6.35011 15.265 6.4338 14.9105 6.47835 14.5501C6.51611 14.2446 6.51611 13.9332 6.51611 13.3105Z" fill="white"/>
<path opacity="0.5" d="M3.51611 0.331055C5.17297 0.331055 6.51611 1.6742 6.51611 3.33105L6.51611 5.33121C5.74712 5.6482 4.73277 5.9201 3.51629 5.9201C2.29963 5.9201 1.28515 5.64812 0.516113 5.33105V3.33105C0.516113 1.6742 1.85926 0.331055 3.51611 0.331055Z" fill="white"/>
</svg>
