 <svg width="21" height="20" viewBox="0 0 21 20" fill="none" xmlns="http://www.w3.org/2000/svg">
<path opacity="0.5" d="M0.66748 13.6157C0.66748 14.463 1.34927 15.1448 2.71285 16.5083L4.15915 17.9546C5.52273 19.3182 6.20452 20 7.05174 20C7.89896 20 8.58075 19.3182 9.94433 17.9546L18.6221 9.27685C19.9857 7.91327 20.6675 7.23148 20.6675 6.38426C20.6675 5.53704 19.9857 4.85525 18.6221 3.49167L17.1758 2.04537C15.8122 0.68179 15.1304 0 14.2832 0C13.5297 0 12.9071 0.539261 11.8194 1.61778L10.7701 2.66595L9.69739 3.73861L8.64873 4.78726L7.57607 5.85993L6.52741 6.90859L5.45475 7.98125L4.40609 9.02991L3.33343 10.1026L2.28526 11.1519C1.20674 12.2396 0.66748 12.8623 0.66748 13.6157Z" fill="white"/>
<path d="M11.9052 1.69124C11.8781 1.66423 11.8496 1.63971 11.8197 1.61768L10.7704 2.66584C10.7926 2.6959 10.8173 2.72469 10.8445 2.7519L12.2587 4.16612C12.5516 4.45901 13.0265 4.45901 13.3194 4.16612C13.6123 3.87322 13.6123 3.39835 13.3194 3.10546L11.9052 1.69124Z" fill="white"/>
<path d="M9.78383 3.81256C9.75662 3.78535 9.72783 3.76066 9.69777 3.73851L8.64912 4.78716C8.67127 4.81722 8.69596 4.84601 8.72317 4.87322L10.8445 6.99454C11.1374 7.28744 11.6123 7.28744 11.9052 6.99454C12.198 6.70165 12.198 6.22678 11.9052 5.93388L9.78383 3.81256Z" fill="white"/>
<path d="M7.66251 5.93388C7.6353 5.90667 7.60651 5.88198 7.57645 5.85983L6.52779 6.90848C6.54995 6.93854 6.57464 6.96733 6.60185 6.99454L8.01607 8.40876C8.30896 8.70165 8.78383 8.70165 9.07673 8.40876C9.36962 8.11586 9.36962 7.64099 9.07673 7.3481L7.66251 5.93388Z" fill="white"/>
<path d="M5.54119 8.0552C5.51398 8.02799 5.48519 8.0033 5.45513 7.98115L4.40647 9.0298C4.42863 9.05986 4.45332 9.08865 4.48053 9.11586L6.60185 11.2372C6.89474 11.5301 7.36962 11.5301 7.66251 11.2372C7.9554 10.9443 7.9554 10.4694 7.66251 10.1765L5.54119 8.0552Z" fill="white"/>
<path d="M3.41987 10.1765C3.39266 10.1493 3.36387 10.1246 3.33381 10.1025L2.28564 11.1518C2.30768 11.1816 2.3322 11.2102 2.35921 11.2372L3.77343 12.6514C4.06632 12.9443 4.54119 12.9443 4.83409 12.6514C5.12698 12.3585 5.12698 11.8836 4.83409 11.5907L3.41987 10.1765Z" fill="white"/>
</svg>
