<svg width="217" height="71" viewBox="0 0 217 71" fill="none" xmlns="http://www.w3.org/2000/svg">
<path d="M29.3859 1.33177L13.7017 18.7932C13.3641 19.169 13.3599 19.7377 13.6919 20.1185L26.176 34.4381C26.5055 34.8161 26.5042 35.3796 26.1729 35.756L13.6954 49.9329C13.3615 50.3124 13.3632 50.8814 13.6995 51.2588L29.3856 68.8621C29.5753 69.075 29.847 69.1968 30.1322 69.1968H187.036C187.325 69.1968 187.6 69.0716 187.79 68.8535L202.603 51.8421C202.93 51.4668 202.931 50.9084 202.606 50.5318L189.849 35.7612C189.521 35.3818 189.525 34.8184 189.858 34.4435L202.596 20.1011C202.927 19.7285 202.933 19.1692 202.61 18.7895L187.791 1.35241C187.601 1.12885 187.322 1 187.029 1H30.1298C29.846 1 29.5755 1.12061 29.3859 1.33177Z" stroke="#FFCD79" stroke-width="2"/>
<rect y="3.78403" width="11.185" height="11.0817" transform="matrix(0.653639 0.756807 -0.653639 0.756807 12.9851 23.848)" stroke="#FFCD79" stroke-width="5"/>
<rect y="3.78403" width="11.185" height="11.0817" transform="matrix(0.653639 0.756807 -0.653639 0.756807 208.085 23.7701)" stroke="#FFCD79" stroke-width="5"/>
<path d="M184.083 5.61865L32.5517 5.61869C31.9949 5.61869 31.4633 5.85078 31.0848 6.25911L20.3479 17.843C19.6411 18.6055 19.6365 19.7825 20.3372 20.5505L32.1727 33.5231C32.8658 34.2828 32.8699 35.4443 32.1821 36.2088L20.3046 49.4108C19.6189 50.1729 19.6205 51.3301 20.3083 52.0903L31.083 63.9984C31.4621 64.4174 32.0009 64.6565 32.566 64.6565L184.088 64.6565C184.661 64.6565 185.206 64.4107 185.586 63.9816L195.923 52.2958C196.591 51.5401 196.592 50.4049 195.925 49.6481L184.17 36.3132C183.496 35.5495 183.504 34.4017 184.188 33.6474L195.895 20.7341C196.578 19.9811 196.587 18.8357 195.916 18.0717L185.586 6.29951C185.206 5.86676 184.659 5.61865 184.083 5.61865Z" fill="#FFCD79"/>
</svg>
