<svg width="142" height="37" viewBox="0 0 142 37" fill="none" xmlns="http://www.w3.org/2000/svg">
<path d="M44.3042 30.2455C44.0889 30.245 43.8758 30.2012 43.6772 30.1166C43.4786 30.032 43.2985 29.9082 43.1471 29.7523C42.9956 29.5996 42.8753 29.4178 42.7932 29.2175C42.7112 29.0172 42.6689 28.8023 42.6689 28.5853C42.6689 28.3682 42.7112 28.1534 42.7932 27.9531C42.8753 27.7527 42.9956 27.571 43.1471 27.4182C43.3362 27.2239 43.5695 27.0802 43.8263 26.9997C44.0831 26.9193 44.3554 26.9046 44.6192 26.957C44.8829 27.0095 45.1298 27.1273 45.3379 27.3002C45.5461 27.4731 45.7091 27.6956 45.8123 27.948C45.9156 28.2003 45.956 28.4747 45.93 28.7468C45.9039 29.0189 45.8122 29.2802 45.663 29.5076C45.5137 29.7349 45.3116 29.9212 45.0746 30.0499C44.8375 30.1787 44.5729 30.2458 44.3042 30.2455ZM41.0066 30.2455C40.7913 30.245 40.5782 30.2012 40.3796 30.1166C40.1811 30.032 40.0009 29.9082 39.8496 29.7523C39.6978 29.5997 39.5772 29.418 39.495 29.2177C39.4127 29.0173 39.3704 28.8024 39.3704 28.5853C39.3704 28.3682 39.4127 28.1532 39.495 27.9529C39.5772 27.7525 39.6978 27.5708 39.8496 27.4182C40.0386 27.2239 40.2719 27.0802 40.5287 26.9997C40.7855 26.9193 41.0579 26.9046 41.3216 26.957C41.5853 27.0095 41.8322 27.1273 42.0404 27.3002C42.2486 27.4731 42.4115 27.6956 42.5148 27.948C42.6181 28.2003 42.6585 28.4747 42.6324 28.7468C42.6064 29.0189 42.5146 29.2802 42.3654 29.5076C42.2162 29.7349 42.0141 29.9212 41.777 30.0499C41.54 30.1787 41.2753 30.2458 41.0066 30.2455ZM7.79807 30.1684C5.75226 30.1649 3.76424 29.4776 2.1398 28.2125C1.40911 27.504 0.840092 26.6411 0.47287 25.6846C0.105647 24.728 -0.0508376 23.7012 0.0144507 22.6764V17.1689H2.5115V22.1477C2.42977 22.9252 2.52493 23.7113 2.78961 24.4454C3.0543 25.1794 3.48142 25.8417 4.03793 26.3809C5.22351 27.1838 6.61622 27.6116 8.04044 27.6102C8.21056 27.6102 8.38301 27.6043 8.55313 27.5913H8.72791C9.55991 27.5915 10.3901 27.5121 11.2075 27.3542C11.8715 27.2308 12.4989 26.9543 13.0415 26.5457C13.5405 26.1344 13.9086 25.5822 14.0995 24.9584C14.3483 24.1268 14.4628 23.2597 14.4386 22.3908V17.1155H16.9357V22.4216C16.9654 23.6196 16.772 24.8126 16.3659 25.9376C16.0199 26.8631 15.4528 27.6865 14.7159 28.3334C13.9423 28.9839 13.0366 29.4519 12.0639 29.7037C10.9539 29.9943 9.81231 30.1412 8.66615 30.1412H8.4937C8.26416 30.1578 8.02995 30.1672 7.79924 30.1672L7.79807 30.1684ZM87.6548 24.8434H87.4322H82.7446V24.8256H51.137C51.0865 24.8256 51.0364 24.8256 50.9867 24.8256C50.3442 24.8269 49.7173 24.6243 49.1934 24.246C48.7183 23.8864 48.3721 23.3785 48.2076 22.7997C48.0565 23.1903 47.8209 23.5414 47.5184 23.8268C47.2158 24.1122 46.8541 24.3248 46.4598 24.4487C45.584 24.6982 44.6788 24.8246 43.7693 24.8245H43.5456H23.4014C22.8313 24.8241 22.2631 24.7589 21.7072 24.6301C21.1883 24.5205 20.7059 24.2769 20.3063 23.9227C19.9067 23.5685 19.6035 23.1156 19.4257 22.6077C19.1912 21.9445 19.0813 21.2424 19.1018 20.5379V6.61728H21.6303V19.8456C21.5747 20.4902 21.715 21.1365 22.0323 21.6973C22.2968 22.0529 22.8981 22.2414 23.8197 22.2414H27.8281C27.5919 21.7779 27.3969 21.2939 27.2455 20.7951C27.0724 20.2046 26.9891 19.5905 26.9984 18.9743C27.0003 18.1581 27.1361 17.348 27.4004 16.5774C27.6542 15.8075 28.0497 15.0938 28.5657 14.4744C29.0918 13.8517 29.7362 13.3436 30.4603 12.9807C31.2361 12.6022 32.0853 12.4053 32.9457 12.4046H33.0622C33.1356 12.4046 33.209 12.4046 33.2824 12.4046C34.1709 12.4053 35.0466 12.6202 35.8377 13.0317C36.5235 13.4164 37.1103 13.9602 37.5506 14.619C37.9739 15.267 38.2717 15.9912 38.428 16.7528C38.5894 17.5048 38.6718 18.2722 38.6739 19.0419V22.2426H43.1693C43.5628 22.2429 43.956 22.222 44.3473 22.1797C44.6585 22.152 44.9592 22.0514 45.2259 21.8858C45.4686 21.721 45.6522 21.4806 45.749 21.2006C45.8771 20.8047 45.9355 20.389 45.9215 19.9725V14.5799H48.45V18.8202C48.4473 19.2943 48.4839 19.7678 48.5595 20.2356C48.6157 20.6211 48.7576 20.9884 48.9744 21.3096C49.1887 21.6079 49.4759 21.8441 49.8075 21.9948C50.1941 22.1615 50.6099 22.247 51.0298 22.2461H54.6419C54.4065 21.7824 54.2115 21.2984 54.0593 20.7999C53.8863 20.2093 53.803 19.5953 53.8123 18.9791C53.8141 18.1634 53.9496 17.3537 54.2132 16.5833C54.472 15.8119 54.873 15.0978 55.3947 14.4791C55.9209 13.856 56.5658 13.3479 57.2905 12.9855C58.064 12.6075 58.9108 12.4107 59.7689 12.4093H59.8924C59.967 12.4093 60.0427 12.4093 60.1173 12.4093C61.0042 12.4105 61.8783 12.6254 62.6679 13.0364C63.353 13.4217 63.9393 13.9654 64.3796 14.6237C64.803 15.2718 65.1012 15.996 65.2582 16.7575C65.4193 17.5096 65.5021 18.2769 65.5052 19.0466V22.2473H80.2137C80.2439 21.1039 80.0665 19.9646 79.6905 18.8866C79.386 18.0468 78.9011 17.2866 78.2713 16.6615C77.6774 16.0932 76.9659 15.6674 76.1891 15.4156C75.3859 15.157 74.5484 15.0254 73.706 15.0256H73.6419C73.0064 15.0292 72.3723 15.0863 71.7461 15.1963C71.1901 15.2861 70.639 15.4048 70.095 15.5519V13.0566C70.5121 12.9286 71.061 12.7875 71.7263 12.6346C72.4329 12.4774 73.154 12.3979 73.8773 12.3975H73.9472H74.1931C75.4753 12.3965 76.7442 12.6623 77.9217 13.1787C78.9899 13.6663 79.9342 14.3962 80.6821 15.3125C81.4269 16.2405 81.9783 17.3129 82.3029 18.4646C82.6573 19.6933 82.8439 20.9657 82.8576 22.2461H88.0544L88.2152 22.2295C88.5229 22.2011 88.8199 22.1009 89.0833 21.9367C89.3242 21.7742 89.5062 21.5361 89.6018 21.2587C89.7289 20.8667 89.7857 20.4548 89.7696 20.0424V14.491H92.2702V18.9222C92.2702 19.1806 92.2772 19.4461 92.2853 19.7271C92.4861 21.0635 92.2399 22.4299 91.5862 23.607C91.3181 23.9487 90.9693 24.2158 90.5725 24.3835H90.5643C90.4851 24.4174 90.4042 24.4471 90.3219 24.4724C89.4541 24.7193 88.557 24.8437 87.6559 24.8422L87.6548 24.8434ZM32.7126 14.8596C32.2606 14.8598 31.8137 14.9574 31.4013 15.146C30.989 15.3346 30.6206 15.6099 30.3205 15.9538C29.7055 16.6767 29.3763 17.606 29.3965 18.5618C29.3543 19.0824 29.4329 19.6059 29.626 20.09C29.8191 20.574 30.1212 21.0052 30.5081 21.3488C31.2501 21.9235 32.1564 22.2357 33.089 22.2378H33.2207H36.1803V19.1296C36.1792 18.623 36.1328 18.1175 36.0417 17.6194C35.9585 17.134 35.7857 16.669 35.5325 16.249C35.2785 15.8371 34.9292 15.4948 34.5152 15.252C34.0521 14.9959 33.5334 14.8614 33.0063 14.8608H32.8898C32.828 14.862 32.7697 14.8596 32.7126 14.8596ZM59.5382 14.8596C59.0861 14.8598 58.6392 14.9574 58.2269 15.146C57.8145 15.3346 57.4462 15.6099 57.146 15.9538C56.5311 16.6767 56.2018 17.606 56.222 18.5618C56.1791 19.0829 56.2568 19.6071 56.4491 20.0921C56.6413 20.5772 56.9427 21.0096 57.3289 21.3547C58.073 21.9298 58.9813 22.242 59.9157 22.2438H60.0439H63.0035V19.1296C63.0026 18.6229 62.9558 18.1173 62.8637 17.6194C62.7803 17.134 62.6075 16.6691 62.3545 16.249C62.1005 15.8371 61.7513 15.4948 61.3373 15.252C60.8741 14.9959 60.3555 14.8614 59.8283 14.8608H59.7118C59.6594 14.862 59.5953 14.8596 59.5428 14.8596H59.5382ZM8.58692 19.6275C8.37266 19.628 8.1604 19.5855 7.96227 19.5025C7.76414 19.4195 7.58402 19.2977 7.43219 19.1438C7.28039 18.9912 7.15986 18.8095 7.0776 18.6092C6.99534 18.4088 6.95298 18.1939 6.95298 17.9768C6.95298 17.7597 6.99534 17.5447 7.0776 17.3444C7.15986 17.144 7.28039 16.9623 7.43219 16.8097C7.62044 16.6132 7.85366 16.4672 8.11096 16.3848C8.36827 16.3025 8.64163 16.2863 8.90658 16.3378C9.17153 16.3893 9.41979 16.5068 9.62915 16.6798C9.83851 16.8529 10.0024 17.076 10.1062 17.3293C10.21 17.5826 10.2505 17.8581 10.2239 18.1312C10.1974 18.4043 10.1047 18.6664 9.95416 18.8941C9.80363 19.1218 9.59994 19.308 9.36133 19.436C9.12273 19.564 8.85665 19.6298 8.58692 19.6275ZM73.4893 9.87369C73.2749 9.87448 73.0624 9.83228 72.8641 9.74949C72.6658 9.66671 72.4854 9.54496 72.3334 9.39121C72.1791 9.24039 72.057 9.0589 71.9746 8.85803C71.8922 8.65715 71.8513 8.44119 71.8545 8.22355C71.8516 8.00596 71.8926 7.79008 71.975 7.58925C72.0574 7.38841 72.1793 7.20689 72.3334 7.05589C72.6418 6.74712 73.0571 6.57407 73.4898 6.57407C73.9225 6.57407 74.3379 6.74712 74.6463 7.05589C74.7981 7.20857 74.9185 7.39043 75.0005 7.59089C75.0825 7.79136 75.1245 8.00642 75.1241 8.22355C75.1239 8.44106 75.0815 8.6564 74.9994 8.85722C74.9173 9.05804 74.797 9.24039 74.6454 9.3938C74.4939 9.54722 74.314 9.66869 74.1162 9.75124C73.9184 9.8338 73.7066 9.87581 73.4928 9.87487L73.4893 9.87369ZM90.9523 9.84286C90.5197 9.84388 90.1042 9.67088 89.7964 9.36158C89.6427 9.21039 89.521 9.02881 89.4389 8.828C89.3567 8.62719 89.3158 8.41141 89.3187 8.19392C89.3154 7.97637 89.3561 7.76046 89.4383 7.55959C89.5205 7.35872 89.6424 7.17719 89.7964 7.02626C90.1045 6.71692 90.52 6.54348 90.9529 6.54348C91.3858 6.54348 91.8012 6.71692 92.1094 7.02626C92.2614 7.17873 92.382 7.36055 92.464 7.56106C92.546 7.76157 92.5879 7.97673 92.5871 8.19392C92.5866 8.41123 92.5441 8.62631 92.4618 8.82686C92.3795 9.0274 92.2592 9.20947 92.1076 9.36263C91.9561 9.5158 91.7764 9.63706 91.5787 9.71946C91.3811 9.80187 91.1694 9.8438 90.9558 9.84286H90.9523ZM87.6536 9.84286C87.221 9.84375 86.8056 9.67077 86.4977 9.36158C86.3433 9.21019 86.2212 9.02807 86.139 8.82657C86.0568 8.62506 86.0163 8.40849 86.02 8.19036C86.0168 7.97318 86.0576 7.75766 86.1398 7.55719C86.2219 7.35672 86.3438 7.1756 86.4977 7.02507C86.8058 6.71573 87.2213 6.54229 87.6542 6.54229C88.0871 6.54229 88.5025 6.71573 88.8107 7.02507C88.9627 7.17754 89.0832 7.35937 89.1653 7.55988C89.2473 7.76039 89.2892 7.97555 89.2884 8.19273C89.288 8.40974 89.2456 8.62455 89.1637 8.8249C89.0817 9.02525 88.9617 9.20721 88.8107 9.36039C88.5028 9.66958 88.0874 9.84256 87.6548 9.84168L87.6536 9.84286ZM59.1513 9.84286C58.7183 9.84419 58.3023 9.67117 57.9943 9.36158C57.8402 9.21069 57.7182 9.02917 57.636 8.82829C57.5539 8.62741 57.5132 8.41148 57.5165 8.19392C57.5132 7.97636 57.5539 7.76043 57.636 7.55955C57.7182 7.35867 57.8402 7.17714 57.9943 7.02626C58.2217 6.79245 58.5124 6.6327 58.8293 6.56729C59.1462 6.50188 59.4751 6.53376 59.7741 6.65889C60.0732 6.78402 60.3289 6.99675 60.5089 7.27006C60.6889 7.54338 60.785 7.86494 60.785 8.19392C60.7846 8.41127 60.7422 8.62643 60.66 8.82704C60.5777 9.02766 60.4574 9.20979 60.3058 9.36298C60.1543 9.51618 59.9745 9.63743 59.7768 9.71978C59.579 9.80213 59.3673 9.84396 59.1536 9.84286H59.1513ZM32.3258 9.84286C31.8928 9.84419 31.4768 9.67117 31.1687 9.36158C31.0146 9.21069 30.8927 9.02917 30.8105 8.82829C30.7283 8.62741 30.6877 8.41148 30.691 8.19392C30.6877 7.97636 30.7283 7.76043 30.8105 7.55955C30.8927 7.35867 31.0146 7.17714 31.1687 7.02626C31.3962 6.79245 31.6869 6.6327 32.0038 6.56729C32.3207 6.50188 32.6496 6.53376 32.9486 6.65889C33.2477 6.78402 33.5034 6.99675 33.6834 7.27006C33.8634 7.54338 33.9595 7.86494 33.9594 8.19392C33.9591 8.41127 33.9166 8.62643 33.8344 8.82704C33.7522 9.02766 33.6319 9.20979 33.4803 9.36298C33.3288 9.51618 33.149 9.63743 32.9512 9.71978C32.7535 9.80213 32.5418 9.84396 32.3281 9.84286H32.3258Z" fill="#262626"/>
<path d="M111.176 21.4894C111.176 22.1601 111.375 22.8158 111.747 23.3735C112.12 23.9311 112.65 24.3658 113.269 24.6224C113.889 24.879 114.571 24.9461 115.229 24.8152C115.887 24.6843 116.491 24.3612 116.965 23.8868C117.439 23.4125 117.762 22.8082 117.893 22.1503C118.023 21.4925 117.956 20.8106 117.699 20.191C117.443 19.5714 117.008 19.0418 116.45 18.6694C115.892 18.2969 115.236 18.0982 114.566 18.0984C113.667 18.0987 112.804 18.456 112.169 19.092C111.533 19.7279 111.176 20.5902 111.176 21.4894Z" fill="#262626"/>
<path d="M118.466 0.004201H117.593C113.698 0.00434956 109.901 1.22341 106.734 3.49045C103.567 5.75749 101.189 8.95883 99.9331 12.6456C99.6296 13.7066 99.4397 14.7968 99.3667 15.8979C99.3415 20.9104 99.3667 36.7726 99.3667 36.7726C99.3667 36.7726 115.789 36.7884 119.712 36.7726H121.264C121.99 36.7379 122.711 36.6219 123.412 36.4269C127.145 35.1864 130.393 32.8029 132.696 29.614C135 26.425 136.241 22.5922 136.245 18.6584C136.245 18.09 136.173 11.4225 136.177 8.05773H141.818V0L118.466 0.004201ZM107.11 18.5807C107.126 16.5103 107.754 14.491 108.916 12.7772C110.078 11.0634 111.721 9.73192 113.638 8.95062C115.556 8.16932 117.662 7.97317 119.69 8.38689C121.719 8.8006 123.58 9.80566 125.038 11.2754C126.496 12.7451 127.487 14.6137 127.885 16.6455C128.283 18.6773 128.07 20.7815 127.274 22.6928C126.478 24.604 125.133 26.2367 123.411 27.3851C121.688 28.5334 119.664 29.1461 117.593 29.1457C117.593 29.1457 110.681 29.1594 107.11 29.1594V18.5807Z" fill="#E54E63"/>
</svg>
