    <svg xmlns="http://www.w3.org/2000/svg" width="12" height="11" viewBox="0 0 12 11" fill="none">
                               <path d="M8.49537 6.33895C8.77693 6.33895 9.00518 6.1107 9.00518 5.82914C9.00518 5.54758 8.77693 5.31933 8.49537 5.31933C8.21381 5.31933 7.98556 5.54758 7.98556 5.82914C7.98556 6.1107 8.21381 6.33895 8.49537 6.33895Z" fill="#82889A"/>
                               <path d="M6.45612 5.82914C6.45612 6.1107 6.22787 6.33895 5.94631 6.33895C5.66474 6.33895 5.43649 6.1107 5.43649 5.82914C5.43649 5.54758 5.66474 5.31933 5.94631 5.31933C6.22787 5.31933 6.45612 5.54758 6.45612 5.82914Z" fill="#82889A"/>
                               <path d="M3.39724 6.33895C3.6788 6.33895 3.90706 6.1107 3.90706 5.82914C3.90706 5.54758 3.6788 5.31933 3.39724 5.31933C3.11568 5.31933 2.88743 5.54758 2.88743 5.82914C2.88743 6.1107 3.11568 6.33895 3.39724 6.33895Z" fill="#82889A"/>
                              <path fill-rule="evenodd" clip-rule="evenodd" d="M3.39724 0.09375C3.60841 0.09375 3.7796 0.264938 3.7796 0.476109V0.864953C4.1171 0.858462 4.48892 0.858465 4.89785 0.858468H6.99469C7.40364 0.858465 7.77551 0.858462 8.11301 0.864953V0.476109C8.11301 0.264938 8.2842 0.09375 8.49537 0.09375C8.70654 0.09375 8.87773 0.264938 8.87773 0.476109V0.897769C9.01025 0.907872 9.13574 0.920573 9.25449 0.936538C9.85221 1.0169 10.336 1.18622 10.7175 1.56774C11.099 1.94927 11.2684 2.43305 11.3487 3.03077C11.4268 3.61155 11.4268 4.35364 11.4268 5.29055V6.36771C11.4268 7.30461 11.4268 8.04673 11.3487 8.62751C11.2684 9.22523 11.099 9.70901 10.7175 10.0905C10.336 10.4721 9.85221 10.6414 9.25449 10.7217C8.67371 10.7998 7.93162 10.7998 6.99471 10.7998H4.89792C3.96102 10.7998 3.2189 10.7998 2.63812 10.7217C2.0404 10.6414 1.55662 10.4721 1.17509 10.0905C0.793569 9.70901 0.624251 9.22523 0.543891 8.62751C0.465806 8.04673 0.465812 7.30463 0.46582 6.36771V5.29057C0.465812 4.35365 0.465806 3.61155 0.543891 3.03077C0.624251 2.43305 0.793569 1.94927 1.17509 1.56774C1.55662 1.18622 2.04041 1.0169 2.63812 0.936538C2.75687 0.920573 2.88236 0.907872 3.01488 0.897769V0.476109C3.01488 0.264938 3.18607 0.09375 3.39724 0.09375ZM2.74002 1.69444C2.2271 1.7634 1.93159 1.89272 1.71583 2.10848C1.50007 2.32424 1.37075 2.61975 1.30179 3.13266C1.29011 3.21953 1.28035 3.31098 1.27218 3.40753H10.6204C10.6123 3.31098 10.6025 3.21953 10.5908 3.13266C10.5219 2.61975 10.3925 2.32424 10.1768 2.10848C9.96102 1.89272 9.66551 1.7634 9.15259 1.69444C8.62868 1.624 7.93805 1.62319 6.96593 1.62319H4.92668C3.95456 1.62319 3.26393 1.624 2.74002 1.69444ZM1.23054 5.31933C1.23054 4.88394 1.2307 4.50502 1.23721 4.17225H10.6554C10.6619 4.50502 10.6621 4.88394 10.6621 5.31933V6.33895C10.6621 7.31107 10.6613 8.0017 10.5908 8.52561C10.5219 9.03853 10.3925 9.33404 10.1768 9.5498C9.96102 9.76556 9.66551 9.89488 9.15259 9.96384C8.62868 10.0343 7.93805 10.0351 6.96593 10.0351H4.92668C3.95456 10.0351 3.26393 10.0343 2.74002 9.96384C2.2271 9.89488 1.93159 9.76556 1.71583 9.5498C1.50007 9.33404 1.37075 9.03853 1.30179 8.52561C1.23135 8.0017 1.23054 7.31107 1.23054 6.33895V5.31933Z" fill="#82889A"/>
                          </svg>