<svg xmlns="http://www.w3.org/2000/svg" width="34" height="34" fill="none"><path fill="#024C5B" d="M17 32.314c-.978 0-1.898-.496-2.55-1.36l-2.125-2.833a.534.534 0 0 0-.298-.142h-.694c-5.907 0-9.562-1.6-9.562-9.562v-7.084c0-6.261 3.3-9.562 9.562-9.562H17c.58 0 1.062.482 1.062 1.062A1.07 1.07 0 0 1 17 3.896h-5.667c-5.071 0-7.437 2.366-7.437 7.437v7.084c0 6.403 2.196 7.437 7.437 7.437h.709c.722 0 1.544.411 1.983.992l2.125 2.833c.496.652 1.204.652 1.7 0l2.125-2.833a2.483 2.483 0 0 1 1.983-.992h.709c5.071 0 7.437-2.366 7.437-7.437v-7.084c0-.58.482-1.062 1.063-1.062.58 0 1.062.481 1.062 1.062v7.084c0 6.261-3.3 9.562-9.562 9.562h-.709a.37.37 0 0 0-.283.142l-2.125 2.833c-.652.864-1.573 1.36-2.55 1.36Z"/><path fill="#C4CBD2" d="M17 17a1.412 1.412 0 0 1-1.417-1.417c0-.779.638-1.416 1.417-1.416.78 0 1.417.637 1.417 1.416 0 .78-.624 1.417-1.417 1.417ZM22.667 17a1.412 1.412 0 0 1-1.417-1.417c0-.779.637-1.416 1.417-1.416.779 0 1.416.637 1.416 1.416 0 .78-.623 1.417-1.416 1.417ZM11.333 17a1.412 1.412 0 0 1-1.416-1.417c0-.779.637-1.416 1.416-1.416.78 0 1.417.637 1.417 1.416 0 .78-.623 1.417-1.417 1.417Z"/><path fill="#2DE5AE" d="M25.5 10.98c-1.218 0-4.094-1.446-4.973-4.095-.354-1.048-.269-2.252.227-3.202a3.506 3.506 0 0 1 2.083-1.756 3.28 3.28 0 0 1 2.663.311c.765-.467 1.742-.595 2.677-.311a3.506 3.506 0 0 1 2.083 1.756c.496.95.58 2.154.227 3.202-.893 2.692-3.896 4.094-4.987 4.094Zm-2.96-4.775c.594 1.785 2.62 2.607 2.988 2.65.411-.043 2.394-.964 2.947-2.636.17-.51.127-1.119-.1-1.558a1.33 1.33 0 0 0-.82-.694c-.398-.142-.936-.071-1.177.283-.198.283-.51.453-.85.468-.34 0-.666-.156-.878-.425-.298-.383-.822-.44-1.204-.326a1.33 1.33 0 0 0-.822.694 2.138 2.138 0 0 0-.085 1.544Z"/></svg>