<svg width="47" height="47" viewBox="0 0 47 47" fill="none" xmlns="http://www.w3.org/2000/svg">
<rect x="0.175171" y="0.219482" width="46.2678" height="46.2678" rx="11" fill="#FBFDFF"/>
<path d="M23.6974 19.4642C23.4969 19.4642 23.2964 19.3903 23.1381 19.2321L19.4075 15.5031L13.5619 21.3486C13.2559 21.6546 12.7495 21.6546 12.4435 21.3486C12.1375 21.0427 12.1375 20.5362 12.4435 20.2302L18.8482 13.8254C19.1542 13.5194 19.6607 13.5194 19.9667 13.8254L24.2566 18.1136C24.5626 18.4196 24.5626 18.9261 24.2566 19.2321C24.1089 19.3903 23.8978 19.4642 23.6974 19.4642Z" fill="#404040"/>
<path d="M19.4074 33.1136C18.9748 33.1136 18.6161 32.7548 18.6161 32.3222V14.5641C18.6161 14.1315 18.9748 13.7727 19.4074 13.7727C19.8401 13.7727 20.1988 14.1315 20.1988 14.5641V32.3222C20.1988 32.7548 19.8401 33.1136 19.4074 33.1136Z" fill="#404040"/>
<path d="M28.2832 27.2693C28.8829 26.9815 30.219 26.197 30.7659 25.3623C30.7659 26.8879 30.7659 30.9489 30.7659 32.4362" stroke="#404040" stroke-width="1.5" stroke-linecap="round" stroke-linejoin="round"/>
<path d="M28.6534 21.0158C28.2392 21.0158 27.9034 21.3516 27.9034 21.7658C27.9034 22.18 28.2392 22.5158 28.6534 22.5158V21.0158ZM31.5905 16.813L32.3405 16.813V16.813L31.5905 16.813ZM31.5905 19.3543L30.8405 19.3543L31.5905 19.3543ZM31.5905 16.5159L32.3405 16.5159L31.5905 16.5159ZM28.2087 16.9648L28.2087 16.5159L26.7087 16.5158L26.7087 16.9647L28.2087 16.9648ZM30.8405 16.5159L30.8405 16.813L32.3405 16.813L32.3405 16.5159L30.8405 16.5159ZM30.8405 16.813L30.8405 19.3543L32.3405 19.3543L32.3405 16.813L30.8405 16.813ZM32.3405 16.9649L32.3405 16.813L30.8405 16.813L30.8405 16.9649L32.3405 16.9649ZM29.1789 21.0158H28.6534V22.5158H29.1789V21.0158ZM30.8405 19.3543C30.8404 20.2719 30.0965 21.0158 29.1789 21.0158V22.5158C30.925 22.5158 32.3404 21.1004 32.3405 19.3543L30.8405 19.3543ZM29.5246 15.2C30.2514 15.2 30.8405 15.7892 30.8405 16.5159L32.3405 16.5159C32.3405 14.9608 31.0798 13.7 29.5247 13.7L29.5246 15.2ZM28.2087 16.5159C28.2087 15.7891 28.7979 15.2 29.5246 15.2L29.5247 13.7C27.9695 13.7 26.7087 14.9607 26.7087 16.5158L28.2087 16.5159ZM29.5246 19.7807C31.0797 19.7807 32.3404 18.5201 32.3405 16.9649L30.8405 16.9649C30.8405 17.6916 30.2513 18.2807 29.5246 18.2807V19.7807ZM26.7087 16.9647C26.7086 18.52 27.9694 19.7807 29.5246 19.7807V18.2807C28.7978 18.2807 28.2087 17.6915 28.2087 16.9648L26.7087 16.9647Z" fill="#404040"/>
</svg>
