<svg xmlns="http://www.w3.org/2000/svg" width="555" height="1024" fill="none"><path fill="#48C39D" d="M0 0h553v1024H0z"/><path fill="#48C39D" d="M33 26h479.5v206.5H33V26Z"/><path stroke="#fff" stroke-dasharray="4 10" stroke-linecap="round" stroke-opacity=".1" stroke-width="2" d="M2 26h546M-1.5 54.5H554M2 82h546M2 110.5h546M2 140h546M2 170h546M2 201h546M3.5 232.5h546M33 3v1017M67 3v1017M103.5 3v1017M139 3v1017M174.5 3v1017M241 3v1017M275 3v1017M311 3v1017M346 3v1017M380.5 3v1017m32-1017v1017M445 3v1017M478.5 3v1017m34-1017v1017M208.5 3v1017M4 255h546M4 283.5h546M4 311h546M4 339.5h546M4 369h546M4 399h546M4 430h546M5.5 461.5h546M3 492h546M3 520.5h546M3 548h546M3 576.5h546M3 606h546M3 636h546M3 667h546M4.5 698.5h546M-1 734h546M-1 762.5h546M-1 790h546M-1 818.5h546M-1 848h546M-1 878h546M-1 909h546M.5 940.5h546M5 971h546M5 999.5h546"/><rect width="189" height="189" x="-23" y="-29" fill="url(#a)" fill-opacity=".2" opacity=".95" rx="45"/><rect width="114" height="109" x="147" y="211" fill="url(#b)" fill-opacity=".1" opacity=".95" rx="28"/><rect width="137" height="137" x="394" y="688" fill="url(#c)" fill-opacity=".1" opacity=".95" rx="35"/><rect width="217" height="248" x="147" y="837" fill="url(#d)" fill-opacity=".2" opacity=".95" rx="45"/><rect width="189" height="189" x="-81" y="679" fill="url(#e)" fill-opacity=".1" opacity=".95" rx="45"/><rect width="189" height="235" x="339" y="-23" fill="url(#f)" fill-opacity=".15" opacity=".95" rx="45"/><defs><linearGradient id="a" x1="278.5" x2="99" y1="238" y2="-17.5" gradientUnits="userSpaceOnUse"><stop stop-color="#fff"/><stop offset="1" stop-color="#fff" stop-opacity="0"/></linearGradient><linearGradient id="b" x1="65.422" x2="244.1" y1="245" y2="297.151" gradientUnits="userSpaceOnUse"><stop stop-color="#fff"/><stop offset="1" stop-color="#fff" stop-opacity="0"/></linearGradient><linearGradient id="c" x1="612.548" x2="482.434" y1="881.54" y2="696.336" gradientUnits="userSpaceOnUse"><stop stop-color="#fff"/><stop offset="1" stop-color="#fff" stop-opacity="0"/></linearGradient><linearGradient id="d" x1="15" x2="353.1" y1="787" y2="962.401" gradientUnits="userSpaceOnUse"><stop stop-color="#fff"/><stop offset="1" stop-color="#fff" stop-opacity="0"/></linearGradient><linearGradient id="e" x1="220.5" x2="41" y1="946" y2="690.5" gradientUnits="userSpaceOnUse"><stop stop-color="#fff"/><stop offset="1" stop-color="#fff" stop-opacity="0"/></linearGradient><linearGradient id="f" x1="640.5" x2="405.41" y1="308.984" y2="39.859" gradientUnits="userSpaceOnUse"><stop stop-color="#fff"/><stop offset="1" stop-color="#fff" stop-opacity="0"/></linearGradient></defs></svg>