<svg xmlns="http://www.w3.org/2000/svg" width="787.497" height="555.228"><defs><clipPath id="c"><path fill="#fff" d="M0 0h87.281v133.676H0z" data-name="Rectangle 342"/></clipPath><clipPath id="d"><path fill="#fff" d="M0 0h86.991v50.165H0z" data-name="Rectangle 338"/></clipPath><clipPath id="e"><path fill="#fff" d="M0 0h40.886v5.799H0z" data-name="Rectangle 370"/></clipPath><clipPath id="h"><path fill="#fff" d="M0 0h152.266v151.949H0z" data-name="Rectangle 400"/></clipPath><clipPath id="i"><path fill="#fff" d="M0 0h76.291v75.975H0z" data-name="Rectangle 390"/></clipPath><clipPath id="j"><path fill="#fff" d="M0 0h76.291v75.975H0z" data-name="Rectangle 393"/></clipPath><clipPath id="k"><path fill="#fff" d="M0 0h76.291v75.975H0z" data-name="Rectangle 396"/></clipPath><filter id="a" width="603.819" height="521.392" x="72.801" y="0" filterUnits="userSpaceOnUse"><feOffset dy="3"/><feGaussianBlur result="blur" stdDeviation="17.5"/><feFlood flood-opacity=".102"/><feComposite in2="blur" operator="in"/><feComposite in="SourceGraphic"/></filter><filter id="b" width="215.189" height="262.744" x="261.873" y="195.04" filterUnits="userSpaceOnUse"><feOffset dy="3"/><feGaussianBlur result="blur-2" stdDeviation="17.5"/><feFlood flood-opacity=".102"/><feComposite in2="blur-2" operator="in"/><feComposite in="SourceGraphic"/></filter><filter id="f" width="385.664" height="318.704" x="401.834" y="101.052" filterUnits="userSpaceOnUse"><feOffset dy="3"/><feGaussianBlur result="blur-3" stdDeviation="17.5"/><feFlood flood-opacity=".102"/><feComposite in2="blur-3" operator="in"/><feComposite in="SourceGraphic"/></filter><filter id="g" width="315.179" height="315.179" x="0" y="240.049" filterUnits="userSpaceOnUse"><feOffset dy="3"/><feGaussianBlur result="blur-4" stdDeviation="22.5"/><feFlood flood-opacity=".11"/><feComposite in2="blur-4" operator="in"/><feComposite in="SourceGraphic"/></filter></defs><g data-name="Group 326" transform="translate(-204.017 -266.425)"><g data-name="Group 317"><g data-name="Group 222"><g data-name="Group 133" filter="url(#a)" transform="translate(204.019 266.425)"><rect width="498.819" height="416.392" fill="#fff" data-name="Rectangle 232" rx="35" transform="translate(125.3 49.5)"/></g></g><path fill="#ced8e1" d="M364.681 308h428.5a35 35 0 0 1 35 35v11.931h-498.5V343a35 35 0 0 1 35-35z" data-name="Rectangle 335"/><path fill="#fff" fill-rule="evenodd" d="M388.642 343.204a5.869 5.869 0 1 0-5.868-5.874 5.869 5.869 0 0 0 5.868 5.874zm-16.768 0a5.869 5.869 0 1 0-5.869-5.874 5.869 5.869 0 0 0 5.869 5.874zm39.406-5.874a5.869 5.869 0 1 1-5.869-5.869 5.869 5.869 0 0 1 5.869 5.869z" data-name="Path 2172"/></g><g data-name="Group 319"><g data-name="Group 220" filter="url(#b)" transform="translate(204.02 266.425)"><rect width="110.189" height="157.744" fill="#fff" data-name="Rectangle 332" rx="20" transform="translate(314.37 244.54)"/></g><g clip-path="url(#c)" data-name="Group 234" transform="translate(529.698 522.854)"><g clip-path="url(#d)" data-name="Group 226" transform="translate(.29 54.514)"><g data-name="Group 221"><rect width="47.555" height="5.799" fill="#e1e8f1" data-name="Rectangle 333" rx="2.9" transform="translate(19.718 44.076)"/></g><g data-name="Group 222"><rect width="81.192" height="5.799" fill="#e1e8f1" data-name="Rectangle 334" rx="2.9" transform="translate(1.74 33.057)"/></g><g data-name="Group 223"><rect width="63.213" height="5.799" fill="#e1e8f1" data-name="Rectangle 335" rx="2.9" transform="translate(11.889 22.038)"/></g><g data-name="Group 224"><rect width="86.991" height="5.799" fill="#e1e8f1" data-name="Rectangle 336" rx="2.9" transform="translate(0 11.019)"/></g><g data-name="Group 225"><rect width="71.043" height="5.799" fill="#e1e8f1" data-name="Rectangle 337" rx="2.9" transform="translate(7.829 .001)"/></g></g><g data-name="Group 227"><rect width="57.994" height="8.119" fill="#d1d9e5" data-name="Rectangle 339" rx="4.06" transform="translate(14.789 34.796)"/></g><g data-name="Group 230"><g data-name="Group 228"><circle cx="11.599" cy="11.599" r="11.599" fill="#fff" data-name="Ellipse 26" transform="translate(32.187)"/></g><g data-name="Group 229"><circle cx="11.599" cy="11.599" r="11.599" fill="#f8de7e" data-name="Ellipse 27" transform="translate(32.187)"/></g><path fill="#fff" fill-rule="evenodd" d="m43.786 14.994-1.915.886a.743.743 0 0 1-1-.4.818.818 0 0 1-.061-.4l.217-2.172-1.4-1.624a.811.811 0 0 1 .057-1.112.746.746 0 0 1 .347-.184l2.049-.457 1.052-1.888a.739.739 0 0 1 1.032-.287.769.769 0 0 1 .275.287l1.049 1.889 2.049.457a.787.787 0 0 1 .581.934.8.8 0 0 1-.176.362l-1.4 1.624.217 2.172a.779.779 0 0 1-.673.864.73.73 0 0 1-.385-.063z" data-name="Path 261"/></g><g data-name="Group 231"><rect width="86.991" height="17.398" fill="#3daa89" data-name="Rectangle 340" rx="8.638" transform="translate(.29 116.277)"/></g><g data-name="Group 233"><g data-name="Group 232" opacity=".3"><rect width="34.796" height="5.799" fill="#e1e8f1" data-name="Rectangle 341" rx="2.9" transform="translate(26.387 122.077)"/></g></g></g></g><g data-name="Group 320"><g data-name="Group 236"><rect width="110.189" height="157.744" fill="#fff" data-name="Rectangle 344" rx="8.638" transform="translate(640.177 510.965)"/></g><g clip-path="url(#c)" data-name="Group 250" transform="translate(651.486 522.854)"><g clip-path="url(#d)" data-name="Group 242" transform="translate(.29 54.514)"><g data-name="Group 237"><rect width="47.555" height="5.799" fill="#e1e8f1" data-name="Rectangle 345" rx="2.9" transform="translate(19.718 44.076)"/></g><g data-name="Group 238"><rect width="81.192" height="5.799" fill="#e1e8f1" data-name="Rectangle 346" rx="2.9" transform="translate(1.74 33.057)"/></g><g data-name="Group 239"><rect width="63.213" height="5.799" fill="#e1e8f1" data-name="Rectangle 347" rx="2.9" transform="translate(11.889 22.038)"/></g><g data-name="Group 240"><rect width="86.991" height="5.799" fill="#e1e8f1" data-name="Rectangle 348" rx="2.9" transform="translate(0 11.019)"/></g><g data-name="Group 241"><rect width="71.043" height="5.799" fill="#e1e8f1" data-name="Rectangle 349" rx="2.9" transform="translate(7.829 .001)"/></g></g><g data-name="Group 243"><rect width="57.994" height="8.119" fill="#d1d9e5" data-name="Rectangle 351" rx="4.06" transform="translate(14.788 34.796)"/></g><g data-name="Group 246"><g data-name="Group 244"><circle cx="11.599" cy="11.599" r="11.599" fill="#fff" data-name="Ellipse 28" transform="translate(32.187)"/></g><g data-name="Group 245"><circle cx="11.599" cy="11.599" r="11.599" fill="#f8de7e" data-name="Ellipse 29" transform="translate(32.187)"/></g><path fill="#fff" fill-rule="evenodd" d="m43.785 14.994-1.915.886a.744.744 0 0 1-1-.4.819.819 0 0 1-.061-.4l.217-2.172-1.4-1.624a.81.81 0 0 1 .057-1.112.744.744 0 0 1 .346-.184l2.049-.457 1.053-1.888a.739.739 0 0 1 1.032-.287.772.772 0 0 1 .276.287l1.049 1.889 2.049.457a.8.8 0 0 1 .4 1.3l-1.4 1.624.217 2.172a.78.78 0 0 1-.673.864.73.73 0 0 1-.385-.063z" data-name="Path 262"/></g><g data-name="Group 247"><rect width="86.991" height="17.398" fill="#e1e8f1" data-name="Rectangle 352" rx="8.638" transform="translate(.29 116.277)"/></g><g data-name="Group 249"><g data-name="Group 248" opacity=".3"><rect width="34.796" height="5.799" fill="#fff" data-name="Rectangle 353" rx="2.9" transform="translate(26.387 122.077)"/></g></g></g></g><g data-name="Group 318"><g data-name="Group 252"><rect width="110.189" height="157.744" fill="#fff" data-name="Rectangle 356" rx="25" transform="translate(396.602 510.965)"/></g><g clip-path="url(#c)" data-name="Group 266" transform="translate(407.911 522.854)"><g clip-path="url(#d)" data-name="Group 258" transform="translate(.29 54.514)"><g data-name="Group 253"><rect width="47.555" height="5.799" fill="#e1e8f1" data-name="Rectangle 357" rx="2.9" transform="translate(19.718 44.076)"/></g><g data-name="Group 254"><rect width="81.192" height="5.799" fill="#e1e8f1" data-name="Rectangle 358" rx="2.9" transform="translate(1.739 33.057)"/></g><g data-name="Group 255"><rect width="63.213" height="5.799" fill="#e1e8f1" data-name="Rectangle 359" rx="2.9" transform="translate(11.889 22.038)"/></g><g data-name="Group 256"><rect width="86.991" height="5.799" fill="#e1e8f1" data-name="Rectangle 360" rx="2.9" transform="translate(0 11.019)"/></g><g data-name="Group 257"><rect width="71.043" height="5.799" fill="#e1e8f1" data-name="Rectangle 361" rx="2.9" transform="translate(7.829 .001)"/></g></g><g data-name="Group 259"><rect width="57.994" height="8.119" fill="#d1d9e5" data-name="Rectangle 363" rx="4.06" transform="translate(14.788 34.796)"/></g><g data-name="Group 262"><g data-name="Group 260"><circle cx="11.599" cy="11.599" r="11.599" fill="#fff" data-name="Ellipse 30" transform="translate(32.187)"/></g><g data-name="Group 261"><circle cx="11.599" cy="11.599" r="11.599" fill="#f8de7e" data-name="Ellipse 31" transform="translate(32.187)"/></g><path fill="#fff" fill-rule="evenodd" d="m43.786 14.994-1.915.886a.744.744 0 0 1-1-.4.819.819 0 0 1-.061-.4l.217-2.172-1.4-1.624a.811.811 0 0 1 .057-1.112.749.749 0 0 1 .347-.184l2.049-.457 1.052-1.888a.739.739 0 0 1 1.032-.287.77.77 0 0 1 .275.287l1.05 1.889 2.048.457a.8.8 0 0 1 .4 1.3l-1.4 1.624.217 2.172a.779.779 0 0 1-.673.864.73.73 0 0 1-.385-.063z" data-name="Path 263"/></g><g data-name="Group 263"><rect width="86.991" height="17.398" fill="#e1e8f1" data-name="Rectangle 364" rx="8.638" transform="translate(.29 116.277)"/></g><g data-name="Group 265"><g data-name="Group 264" opacity=".3"><rect width="34.796" height="5.799" fill="#fff" data-name="Rectangle 365" rx="2.9" transform="translate(26.387 122.077)"/></g></g></g></g><g data-name="Group 269"><rect width="17.398" height="17.398" fill="#e1e8f1" data-name="Rectangle 369" rx="8.638" transform="translate(599.871 687.462)"/></g><g clip-path="url(#e)" data-name="Group 272" transform="translate(553.186 693.261)"><circle cx="2.9" cy="2.9" r="2.9" fill="#e1e8f1" data-name="Ellipse 32" transform="translate(.001)"/><circle cx="2.9" cy="2.9" r="2.9" fill="#e1e8f1" data-name="Ellipse 33" transform="translate(8.7 -.001)"/><path fill="#3daa89" d="M20.298-.001a2.9 2.9 0 1 1-2.9 2.9 2.9 2.9 0 0 1 2.9-2.9z" data-name="Path 2179"/><circle cx="2.9" cy="2.9" r="2.9" fill="#e1e8f1" data-name="Ellipse 35" transform="translate(26.097 -.001)"/><circle cx="2.9" cy="2.9" r="2.9" fill="#e1e8f1" data-name="Ellipse 36" transform="translate(34.796 -.001)"/></g><g data-name="Group 273"><rect width="17.398" height="17.398" fill="#e1e8f1" data-name="Rectangle 371" rx="8.638" transform="translate(529.989 687.461)"/></g><rect width="432.917" height="115.636" fill="#f3f5f7" data-name="Rectangle 415" rx="18" transform="translate(357.503 372.985)"/><path fill="#c0d4e3" fill-rule="evenodd" d="M580.27 422.011c.042.041.083.083.122.125l11.2 12.433a2.582 2.582 0 0 1-.233 3.694 2.691 2.691 0 0 1-1.766.656h-32.211a2.643 2.643 0 0 1-2.669-2.618 2.59 2.59 0 0 1 .808-1.875l4.569-4.361a2.705 2.705 0 0 1 3.138-.422l1.854.991a2.707 2.707 0 0 0 3.174-.455l8.24-8.154a2.7 2.7 0 0 1 3.774-.014zm-13.778-5.176a3.681 3.681 0 1 1-3.682 3.682 3.68 3.68 0 0 1 3.682-3.682z" data-name="Path 273"/><rect width="5.881" height="17.642" fill="#f2f7f9" data-name="Rectangle 325" rx="1.538" transform="translate(797.926 609.903)"/><rect width="5.881" height="17.642" fill="#f2f7f9" data-name="Rectangle 326" rx="1.538" transform="translate(806.747 609.903)"/><g data-name="Group 323" transform="translate(658.351 416.835)"><g data-name="Group 322"><g data-name="Group 219"><g data-name="Group 133" filter="url(#f)" transform="translate(-454.33 -150.408)"><rect width="280.664" height="213.704" fill="#fff" data-name="Rectangle 232" rx="21" transform="translate(454.33 150.55)"/></g></g><path fill="#ced8e1" d="M15.184 0h250.5a15 15 0 0 1 15 15v8.892H.184V15a15 15 0 0 1 15-15z" data-name="Rectangle 329"/><path fill="#f2f7f9" fill-rule="evenodd" d="M24.578 16.01a2.988 2.988 0 1 0-2.988-2.988 2.988 2.988 0 0 0 2.988 2.988zm-8.536 0a2.988 2.988 0 1 0-2.988-2.988 2.988 2.988 0 0 0 2.987 2.988zm20.062-2.987a2.988 2.988 0 1 1-2.988-2.988 2.988 2.988 0 0 1 2.988 2.988z" data-name="Path 2161"/></g><path fill="#a7b9c9" d="M15.38 49.332a5.881 5.881 0 0 1 5.881-5.881h149.953a5.881 5.881 0 0 1 5.881 5.881v99.969H15.38z" data-name="Path 252"/><path fill="#f2f7f9" fill-rule="evenodd" d="m92.709 104.314 10.585-7.939-10.585-7.938v15.877zm3.528-25.58a17.642 17.642 0 1 0 17.641 17.642 17.648 17.648 0 0 0-17.641-17.642z" data-name="Path 253"/><path fill="#ebf1f6" d="M15.38 149.301h161.717v35.283a5.881 5.881 0 0 1-5.881 5.88H21.261a5.88 5.88 0 0 1-5.881-5.88z" data-name="Path 254"/><path fill="#f2f7f9" fill-rule="evenodd" d="M62.953 165.473a2.941 2.941 0 0 1 2.94-2.941h93.467a2.94 2.94 0 0 1 2.941 2.941v8.821a2.94 2.94 0 0 1-2.941 2.941H65.89a2.941 2.941 0 0 1-2.94-2.941z" data-name="Path 255"/><path fill="#f8de7e" d="M59.484 162.532h59.818a2.94 2.94 0 0 1 2.942 2.94v8.821a2.94 2.94 0 0 1-2.94 2.94h-59.82a2.94 2.94 0 0 1-2.94-2.94v-8.821a2.94 2.94 0 0 1 2.94-2.94z" data-name="Path 2180"/><rect width="73.507" height="44.104" fill="#ced8e1" data-name="Rectangle 328" rx="6.153" transform="translate(191.797 43.451)"/><path fill="#f2f7f9" fill-rule="evenodd" d="m226.491 70.134 6.175-4.629-6.175-4.631v9.261zm2.059-14.922a10.291 10.291 0 1 0 10.29 10.293 10.294 10.294 0 0 0-10.291-10.291z" data-name="Path 256"/><rect width="73.507" height="44.104" fill="#ced8e1" data-name="Rectangle 329" rx="6.153" transform="translate(191.797 94.906)"/><path fill="#f2f7f9" fill-rule="evenodd" d="m226.491 121.589 6.175-4.631-6.175-4.631v9.262zm2.059-14.922a10.291 10.291 0 1 0 10.291 10.291 10.294 10.294 0 0 0-10.291-10.291z" data-name="Path 257"/><rect width="73.507" height="44.104" fill="#ced8e1" data-name="Rectangle 330" rx="6.153" transform="translate(191.797 146.36)"/><path fill="#f2f7f9" fill-rule="evenodd" d="m226.491 173.044 6.175-4.63-6.175-4.631v9.261zm2.059-14.922a10.291 10.291 0 1 0 10.291 10.291 10.294 10.294 0 0 0-10.291-10.291z" data-name="Path 258"/></g><g data-name="Group 324"><g filter="url(#g)" transform="translate(204.017 266.423)"><rect width="180.179" height="180.179" fill="#fff" data-name="Rectangle 387" rx="19" transform="translate(67.5 304.55)"/></g><g clip-path="url(#h)" data-name="Group 305" transform="translate(282.05 581.484)"><g clip-path="url(#i)" data-name="Group 295"><g data-name="Group 294" transform="translate(6.331 6.331)"><rect width="69.643" height="69.643" fill="#fff" data-name="Rectangle 388" rx="9.63"/><g data-name="Group 293"><rect width="69.643" height="69.643" fill="#c0d4e3" data-name="Rectangle 389" opacity=".2" rx="9.63"/></g><path fill="#c0d4e3" fill-rule="evenodd" d="m37.381 32.636.045.047 4.173 4.634a.963.963 0 0 1-.087 1.377 1.006 1.006 0 0 1-.656.243h-12a.985.985 0 0 1-1-.975.966.966 0 0 1 .3-.7l1.7-1.624a1.009 1.009 0 0 1 1.17-.157l.691.37a1.009 1.009 0 0 0 1.182-.17l3.071-3.039a1.008 1.008 0 0 1 1.411-.006zm-5.135-1.929a1.372 1.372 0 1 1-1.372 1.372 1.372 1.372 0 0 1 1.372-1.372z" data-name="Path 269"/></g></g><g clip-path="url(#j)" data-name="Group 298" transform="translate(0 75.974)"><g data-name="Group 297" transform="translate(6.331 6.331)"><rect width="69.643" height="69.643" fill="#fff" data-name="Rectangle 391" rx="9.63"/><g data-name="Group 296"><rect width="69.643" height="69.643" fill="#c0d4e3" data-name="Rectangle 392" opacity=".2" rx="9.63"/></g><path fill="#c0d4e3" fill-rule="evenodd" d="M37.381 32.636a.5.5 0 0 1 .045.047l4.173 4.634a.962.962 0 0 1-.087 1.377 1.008 1.008 0 0 1-.658.245H28.856a.985.985 0 0 1-.994-.976.965.965 0 0 1 .3-.7l1.7-1.625a1.009 1.009 0 0 1 1.17-.158l.691.37a1.009 1.009 0 0 0 1.182-.17l3.071-3.039a1.008 1.008 0 0 1 1.405-.005zm-5.135-1.929a1.372 1.372 0 1 1-1.372 1.371 1.372 1.372 0 0 1 1.372-1.371z" data-name="Path 270"/></g></g><g clip-path="url(#k)" data-name="Group 301" transform="translate(75.821)"><g data-name="Group 300" transform="translate(6.331 6.331)"><rect width="69.643" height="69.643" fill="#fff" data-name="Rectangle 394" rx="9.63"/><g data-name="Group 299"><rect width="69.643" height="69.643" fill="#c0d4e3" data-name="Rectangle 395" opacity=".2" rx="9.63"/></g><path fill="#c0d4e3" fill-rule="evenodd" d="m37.381 32.636.045.047 4.174 4.634a.963.963 0 0 1-.087 1.377 1.007 1.007 0 0 1-.659.244h-12a.985.985 0 0 1-.994-.975.966.966 0 0 1 .3-.7l1.7-1.625a1.009 1.009 0 0 1 1.17-.157l.691.37a1.008 1.008 0 0 0 1.182-.17l3.072-3.039a1.008 1.008 0 0 1 1.406-.006zm-5.135-1.929a1.372 1.372 0 1 1-1.372 1.372 1.372 1.372 0 0 1 1.372-1.372z" data-name="Path 271"/></g></g><g clip-path="url(#j)" data-name="Group 304" transform="translate(75.821 75.974)"><g data-name="Group 303" transform="translate(6.331 6.331)"><rect width="69.643" height="69.643" fill="#fff" data-name="Rectangle 397" rx="9.63"/><g data-name="Group 302"><rect width="69.643" height="69.643" fill="#c0d4e3" data-name="Rectangle 398" opacity=".2" rx="9.63"/></g><path fill="#c0d4e3" fill-rule="evenodd" d="m37.381 32.636.045.047 4.174 4.634a.962.962 0 0 1-.087 1.377 1.009 1.009 0 0 1-.659.245h-12a.985.985 0 0 1-.994-.976.964.964 0 0 1 .3-.7l1.7-1.625a1.009 1.009 0 0 1 1.17-.158l.691.37a1.009 1.009 0 0 0 1.182-.17l3.072-3.039a1.008 1.008 0 0 1 1.406-.005zm-5.135-1.929a1.372 1.372 0 1 1-1.372 1.371 1.372 1.372 0 0 1 1.372-1.371z" data-name="Path 272"/></g></g></g></g></g></svg>