<svg xmlns="http://www.w3.org/2000/svg" viewBox="0 0 266 35"><svg xmlns:xlink="http://www.w3.org/1999/xlink" width="47" height="35" contentScriptType="text/ecmascript" version="1.0"><g fill="#94A3B8"><path d="M8.54 6.532h8.458l-5.303 21.906s-1.081 3.97 1.067 5.244c-5.747-2.696-8.62-6.606-7.51-12.427C6.362 15.434 8.54 6.532 8.54 6.532zm25.565 0h7.94l-3.452 15.567s-1.333 7.406-13.167 11.583a7.406 7.406 0 0 0 3.525-4.873c1.081-3.777 5.154-22.277 5.154-22.277z"/><path d="M27.233 0s-12.516 7.983-12.25 20.559A24.025 24.025 0 0 0 19.28 35S7.977 15.967 29.929 6.961C29.113 4.295 27.232 0 27.232 0z"/><path d="m25.426 10.368 4.769-2.488s5.584 14.678-10.22 26.987c-.06 0 13.73-10.857 5.45-24.499z"/></g></svg><svg xmlns:xlink="http://www.w3.org/1999/xlink" width="47" height="35" x="47" contentScriptType="text/ecmascript" version="1.0"><path fill="#94A3B8" d="M6.29 14.463v8.099h7.52V6.364H6.29v8.099zm8.677 0v8.099h9.256v2.025h-9.256v6.942H32.9V15.33H22.777v-2.025H32.9V6.364H14.967v8.099zm19.09-4.628v3.47h7.522V6.365h-7.521v3.47zm0 13.595v8.099h7.522V15.33h-7.521v8.099zM6.29 28.058v3.47h7.52v-6.941H6.29v3.47z"/></svg><svg xmlns:xlink="http://www.w3.org/1999/xlink" width="47" height="35" x="94" contentScriptType="text/ecmascript" version="1.0"><path fill="#94A3B8" d="M1.569 33.518A77.844 77.844 0 0 1 15.85 25.03c7.8-3.458 15.225-9.117 15.225-16.602C31.075.943 27.99 0 26.165 0c-2.515 0-9.82 2.994-12.141 15.659-2.32 12.664 2.83 19.042 7.17 19.296 4.342.255 6.093-.733 8.803-6.392 2.56-1.916 4.73-2.455 5.314-5.21a1.272 1.272 0 0 0-1.137-1.497l-1.168-.15a3.683 3.683 0 0 1 2.515-1.766c1.692-.254 2.83-3.203 2.83-3.203s-5.989 1.182-9.567 9.745c-3.577 8.563-10.479 4.401-11.062.943a29.76 29.76 0 0 1 2.844-20.569C24.503 0 32.646 5.36 24.503 15.03 16.539 22.964 2.257 25.913 1.569 33.518zm38.293-15.883 1.497 2.5a.973.973 0 0 0 1.497.224l2.26-1.99c.345-.322.42-.838.18-1.243L43.8 14.67a.973.973 0 0 0-1.497-.225l-2.26 2.021a.988.988 0 0 0-.18 1.168z"/></svg><svg xmlns:xlink="http://www.w3.org/1999/xlink" width="31" height="35" x="141" contentScriptType="text/ecmascript" version="1.0"><path fill="#94A3B8" fill-opacity=".753" d="M14.702-.113h1.14c14.097 8.044.946.543 15.044 8.58v17.84a485.244 485.244 0 0 0-15.044 8.58h-.912c-13.472-7.688-1.57-.903-15.044-8.58V8.466a706.49 706.49 0 0 0 14.816-8.58zm.228 1.13a1.94 1.94 0 0 1 .912.112 607.405 607.405 0 0 0 13.676 7.79c.304 5.646.304 11.29 0 16.936a1315.94 1315.94 0 0 1-14.246 7.903L.912 25.63a298.088 298.088 0 0 1 0-16.484c4.696-2.67 9.368-5.38 14.018-8.129z"/><path fill="#94A3B8" fill-opacity=".965" d="m29.063 9.597-5.927 3.387a48.486 48.486 0 0 0-7.75-4.29 67.637 67.637 0 0 0-7.978 4.29 57.046 57.046 0 0 0-5.926-3.387 611.12 611.12 0 0 1 13.904-7.903 301.222 301.222 0 0 1 13.677 7.903z"/><path fill="#FFF" d="M23.136 12.984a40.46 40.46 0 0 1-.114 4.29A86.762 86.762 0 0 1 16.754 21a3.537 3.537 0 0 1-1.596.565c-.831-.218-1.097-.745-.798-1.581.28-.306.633-.539 1.026-.678a95.328 95.328 0 0 1 5.47-3.048c.217-.69.293-1.405.229-2.145a34.718 34.718 0 0 0-5.699-3.161 34.717 34.717 0 0 0-5.698 3.16 23.829 23.829 0 0 0 0 6.55 106.207 106.207 0 0 0 5.698 3.16l6.154-3.5c1.254-.263 1.748.226 1.482 1.468a75.107 75.107 0 0 1-5.812 3.5 5.945 5.945 0 0 1-2.052.79 75.963 75.963 0 0 1-7.636-4.29c-.114-2.934-.152-5.87-.114-8.806a67.637 67.637 0 0 1 7.978-4.29 48.486 48.486 0 0 1 7.75 4.29z"/><path fill="#94A3B8" fill-opacity=".965" d="M1.482 9.597a57.046 57.046 0 0 1 5.926 3.387c-.038 2.936 0 5.872.114 8.806a75.963 75.963 0 0 0 7.636 4.29c.223 2.327.299 4.665.228 7a416.17 416.17 0 0 1-13.79-7.903c-.114-5.193-.152-10.386-.114-15.58z"/><path fill="#94A3B8" fill-opacity=".98" d="M29.063 9.597a178 178 0 0 1 .113 15.58 1207.906 1207.906 0 0 0-13.79 7.904 55.752 55.752 0 0 0-.228-7 5.945 5.945 0 0 0 2.052-.79 75.092 75.092 0 0 0 5.812-3.5c.266-1.243-.228-1.732-1.482-1.468-2.13 1.21-4.025 2.288-6.154 3.5a6.454 6.454 0 0 0-.228-2.258A3.537 3.537 0 0 0 16.754 21a86.762 86.762 0 0 0 6.268-3.726c.114-1.428.152-2.858.114-4.29l5.927-3.387z"/><path fill="#94A3B8" d="m21.085 14.113-5.699 3.161a103.967 103.967 0 0 1-5.698-3.161 34.717 34.717 0 0 1 5.698-3.161 34.718 34.718 0 0 1 5.699 3.16z"/><path fill="#94A3B8" d="M9.688 14.113a103.967 103.967 0 0 0 5.698 3.161v2.032a2.535 2.535 0 0 0-1.026.678c-.299.836-.033 1.363.798 1.58.208.73.284 1.482.228 2.259a106.207 106.207 0 0 1-5.698-3.162 23.829 23.829 0 0 1 0-6.548z"/><path fill="#94A3B8" d="M21.085 14.113a5.497 5.497 0 0 1-.228 2.145 95.328 95.328 0 0 0-5.471 3.048v-2.032l5.699-3.161z"/></svg><svg xmlns:xlink="http://www.w3.org/1999/xlink" width="47" height="35" x="172" contentScriptType="text/ecmascript" version="1.0"><g fill="#94A3B8"><path d="M9.513 22.886a.726.726 0 0 1-1.312.402.665.665 0 0 1-.123-.402.722.722 0 0 1 1.278-.464.332.332 0 0 1 .048.061c.074.12.112.26.11.403zm7.696 9.09a.73.73 0 0 1-.726.727.744.744 0 0 1-.6-.328.678.678 0 0 1-.122-.407c0-.398.32-.721.717-.726.217 0 .422.096.56.262l.044.057a.753.753 0 0 1 .127.416zm11.585 1.361a.726.726 0 1 1-.166-.463.691.691 0 0 1 .166.464zm9.314-7.796a.722.722 0 0 1-1.312.39.722.722 0 0 1 1.155-.866l.048.056c.079.125.117.272.11.42zm-27.624-14.53a.726.726 0 0 1-1.312.408.752.752 0 0 1-.123-.407.727.727 0 1 1 1.449-.14.84.84 0 0 1 0 .105zm9.144-8.132a.722.722 0 0 1-1.312.407.713.713 0 0 1-.127-.407.709.709 0 0 1 1.26-.464l.048.061a.7.7 0 0 1 .131.403zM31.633 3.91a.726.726 0 0 1-1.312.407.726.726 0 0 1 .595-1.133c.216 0 .421.096.56.262l.043.062c.076.12.116.26.114.402zm7.53 9.608a.726.726 0 1 1-.731-.722c.216 0 .422.096.56.262a.28.28 0 0 1 .052.066.726.726 0 0 1 .119.394zm-22.19 7.043.026.07c.061.162.127.324.197.477.092.204.196.403.31.595.075.123.149.245.228.36.187.273.393.533.617.778l.021.026.044.048.026.027c.057.06.114.122.175.179l.097.092c.239.226.495.434.765.621l.14.092.11.07a6.96 6.96 0 0 0 5.63.94h.263l.166-.056.105-.04h.096l.066-.026h.158l.109-.048h.512l.044-.026.048-.031h.127l.048-.03.043-.036.031-.022.035-.026h.022l.079-.061.039-.03.105-.088.04-.03.026-.027.14-.123.087-.083.17-.17.045-.048.153-.171.026-.03.048-.058.066-.074.043-.057.031-.035.03-.04a6.58 6.58 0 0 0 .443-.642c.026-.044.052-.083.074-.127l.04-.083.043-.079c.061-.108.118-.217.17-.328l.027-.057c.052-.105.1-.214.144-.324 0-.048.04-.096.057-.149.026-.07.053-.14.075-.21.035-.091.065-.183.096-.284.044-.153.083-.31.118-.464v-.048c.022-.1.04-.201.057-.302v-.105c0-.127.035-.258.048-.393-.18 1.133-4.489 3.535-9.188 4.2a.875.875 0 0 1-.861-.539c-.14-.385.41-.437.669-.494 3.207-.437 7.604-2.187 8.964-3.706.232-.204.386-.482.438-.787v-.223l-.026-.18a7.456 7.456 0 0 0-.145-.69v-.088a6.21 6.21 0 0 0-.118-.377v-.052l-.03-.083v.206c0 .043-.04.091-.062.135v.03a.28.28 0 0 1-.035.062l-.114.162-.026.03-.087.106-.027.026c0 .026-.048.048-.07.07l-.03.035-.04.035-.026.026-.188.17-.066.058-.074.056-.07.057h-.026l-.07.053-.04.026-.166.118-.087.061-.044.027-.096.06c-.062.045-.127.084-.193.123l-.07.044-.394.232-.052.026-.057.03-.053.032-.249.13-.105.053-.114.057-.319.158-.131.06-.315.145h-.053l-.105.048-.1.084-.101.043-.079.03-.07.032-.113.048-.15.06-.078.027-.074.03-.118.049-.114.048c-.696.263-1.4.503-2.113.713a.499.499 0 0 1-.573-.24l-.027-.062v-.04a.534.534 0 0 1 0-.117v-.184l.053-.048a.403.403 0 0 1 .1-.04c3.365-1.023 5.998-2.476 6.563-3.535a.81.81 0 0 0 .114-.437.223.223 0 0 0-.027-.127v-.026l-.057-.1c-.026-.044-.056-.097-.087-.14a.437.437 0 0 0-.044-.075l-.061-.1v-.027a4.155 4.155 0 0 0-.223-.32l-.048-.07c-.048-.06-.092-.122-.14-.179l-.03-.035-.123-.144c.148.223.393 1.111-3.22 2.809a.31.31 0 0 1-.36-.11s-.192-.28.067-.437c1.75-.8 3.403-1.877 3.132-2.625a.481.481 0 0 1-.061-.092l-.066-.061-.04-.04-.06-.052-.027-.022h-.022a7.135 7.135 0 0 0-.83-.613 6.965 6.965 0 0 0-.263-1.588l-.092-.04a6.742 6.742 0 0 0-.67-.24l-.1-.03h-.079a6.203 6.203 0 0 0-.8-.171h-.04a.477.477 0 0 1-.188-.026 6.842 6.842 0 0 0-2.07.07h-.748l-.122.04h-.04l-.06.021-.062.022h-.074l-.114.04h-.066l-.087.034-.048.022h-.158l-.079.04h-.07l-.07.035h-.056l-.044.021-.096.053h-.027l-.074.044h-.07c-.14.087-.271.175-.403.27l-.052.04h-.026l-.04.03-.04.032-.025.021-.027.022h-.026a7 7 0 0 0-2.577 4.979v.28c-.007.272.003.543.03.814-.01.166-.007.333.01.498v.263c.064.297.149.59.253.875zm7.682-4.431a.394.394 0 1 1-.437.55.367.367 0 0 1 .113-.494.354.354 0 0 1 .324-.043zm-3.5 3.815a.595.595 0 1 1 .753.38h-.035a.634.634 0 0 1-.718-.394zM18.53 22.19c.022-.184.25-.162.499 0 .122.127.25.254.376.372.21.289.25.573 0 .56a1.313 1.313 0 0 1-.696-.516.722.722 0 0 1-.157-.438zm.044 4.655a.473.473 0 0 0 .184-.906l-.127-.035A12.976 12.976 0 0 1 9.006 13.37v-.59l-2.774 2.786a2.328 2.328 0 0 0 0 3.286l4.445 4.458.035.03a11.917 11.917 0 0 0 7.796 3.5h.066zm2.708-18.467a.468.468 0 0 0 .512.766l.113-.066a12.937 12.937 0 0 1 15.65 2.056c.14.14.275.285.407.438V7.634a2.319 2.319 0 0 0-2.315-2.323h-6.348a11.909 11.909 0 0 0-7.984 3.063h-.035z"/><path d="M13.866 20.322a.464.464 0 0 0 .657 0 .473.473 0 0 0 .105-.512l-.062-.122A13.003 13.003 0 0 1 16.618 4.02c.14-.14.285-.276.438-.407h-3.938a2.319 2.319 0 0 0-2.323 2.314v6.357a11.944 11.944 0 0 0 3.063 7.997l.008.04zM28.632 9.59a.472.472 0 0 0-.184.91l.127.035A12.963 12.963 0 0 1 38.2 23.069v.591l2.783-2.787a2.328 2.328 0 0 0 0-3.286l-4.467-4.462-.035-.035a11.909 11.909 0 0 0-7.797-3.5z"/><path d="M14.956 13.033a.464.464 0 0 0 .463.473.46.46 0 0 0 .438-.29l.035-.126a12.959 12.959 0 0 1 12.517-9.625h.573L26.217.683a2.314 2.314 0 0 0-3.277 0L18.482 5.14a11.948 11.948 0 0 0-3.535 7.844.18.18 0 0 0 .009.048z"/><path d="M18.456 10.5a.438.438 0 0 1-.36-.687 13.777 13.777 0 0 1 1.61-1.938 13.23 13.23 0 0 1 9.403-3.938.438.438 0 1 1 .057.876h-.057a12.342 12.342 0 0 0-8.794 3.653 12.534 12.534 0 0 0-1.51 1.82.437.437 0 0 1-.35.214zm18.812 2.27a.438.438 0 0 1-.315-.13 12.346 12.346 0 0 0-8.798-3.65c-.847.001-1.69.088-2.52.259a.447.447 0 1 1-.18-.875 13.33 13.33 0 0 1 12.102 3.61.437.437 0 0 1 .135.218.437.437 0 0 1-.301.538.534.534 0 0 1-.118 0zm.118 11.38h-.118a.438.438 0 0 1-.324-.437 12.486 12.486 0 0 0-6.002-10.667.438.438 0 1 1 .437-.757 13.37 13.37 0 0 1 6.423 11.375.411.411 0 0 1-.057.25.438.438 0 0 1-.359.236zm-8.277 8.487a.438.438 0 0 1-.438-.437.437.437 0 0 1 .132-.324l.315-.32v-.012A12.504 12.504 0 0 0 32.46 19.91a.437.437 0 0 1 .654-.475c.099.062.169.16.195.273.231.997.349 2.017.35 3.041a13.274 13.274 0 0 1-3.88 9.41v.027l-.342.341a.438.438 0 0 1-.328.11zm-11.02-.2a.438.438 0 0 1 0-.876 12.333 12.333 0 0 0 8.793-3.653 12.543 12.543 0 0 0 1.71-2.135.444.444 0 0 1 .749.477 13.318 13.318 0 0 1-11.253 6.186zm.975-4.166A13.23 13.23 0 0 1 9.64 24.36a.442.442 0 1 1 .626-.626 12.329 12.329 0 0 0 8.798 3.65c.947.003 1.89-.105 2.813-.32a.45.45 0 1 1 .206.875c-.991.224-2.004.336-3.02.332zm-3.618-4.493a.438.438 0 0 1-.25-.079A13.352 13.352 0 0 1 9.37 12.687a.438.438 0 0 1 .875-.03 12.39 12.39 0 0 0 3.644 8.811c.549.554 1.15 1.053 1.794 1.492a.437.437 0 0 1-.25.81zm-1.34-7.77a.438.438 0 0 1-.437-.376 13.698 13.698 0 0 1-.144-1.986 13.243 13.243 0 0 1 3.911-9.437.437.437 0 1 1 .622.617 12.368 12.368 0 0 0-3.64 8.81c-.005.624.038 1.247.126 1.865a.437.437 0 0 1-.358.503h-.08z"/><path d="M17.712 30.984a12.688 12.688 0 0 0 7.875-2.722l.035-.03c.11-.088.22-.18.328-.276l.026-.026a.468.468 0 1 0-.52-.779l-.114.066a12.95 12.95 0 0 1-13.965-.634 1.142 1.142 0 0 0-1.584.314 1.124 1.124 0 0 0 .223 1.501l.092.07a12.64 12.64 0 0 0 7.604 2.516z"/><path d="M28.47 31.382a12.762 12.762 0 0 0 3.644-7.503v-.044c0-.144.027-.284.035-.437v-.053a.473.473 0 0 0-.905-.184l-.04.127a12.968 12.968 0 0 1-10.32 9.441 1.177 1.177 0 0 0-.586.311 1.142 1.142 0 0 0 .914 1.96h.118a12.657 12.657 0 0 0 7.14-3.618z"/><path d="M36.354 24.063a12.753 12.753 0 0 0-2.717-7.875l-.03-.031c-.088-.114-.184-.223-.28-.333l-.027-.026a.468.468 0 0 0-.66 0 .472.472 0 0 0-.101.508c.022.039.044.078.061.118a13.003 13.003 0 0 1-.634 14 1.137 1.137 0 0 0 1.807 1.312c.026-.03.048-.065.07-.096a12.687 12.687 0 0 0 2.51-7.578z"/></g></svg><svg xmlns:xlink="http://www.w3.org/1999/xlink" width="47" height="35" x="219" contentScriptType="text/ecmascript" version="1.0"><path fill="#C0E8F9" d="M21.143.638a6.85 6.85 0 0 0-.615.02 1.66 1.66 0 0 1 .615-.02z"/><path fill="#94A3B8" d="M14.847 4.41c-.034.12-.049.245-.04.37-.595.347-.858.865-.79 1.558.082.536.359.936.83 1.2.04.016.08.027.123.03.025.643.052 1.287.082 1.928l-.02.288c-.613-.197-1.027.008-1.24.615-.06.418.088.732.44.943a.132.132 0 0 0 .02.092.195.195 0 0 1 .124.01.172.172 0 0 1-.123.052c.033.01.067.014.102.01v11.155a.106.106 0 0 0-.061.01c.039.04.08.077.123.113l-.031.021a.185.185 0 0 0-.133-.041 2.147 2.147 0 0 1-.4-.492 4.251 4.251 0 0 1-.338-1.907c.006-.48.032-.958.082-1.436a1.804 1.804 0 0 0-.165-.512c.021-5.143.027-10.29.021-15.442.047.005.096 0 .144-.01a.794.794 0 0 0-.288-.01c.19-.1.4-.154.616-.154.328-.014.656-.014.984 0a.32.32 0 0 1 .297.174.884.884 0 0 1-.01.329c-.13.367-.244.736-.349 1.107z"/><path fill="#94A3B8" d="M13.31 2.955a.794.794 0 0 1 .287.01.485.485 0 0 1-.144.01c.006 5.152 0 10.299-.02 15.442-.216-.337-.42-.68-.616-1.026a5.561 5.561 0 0 0-.246-.43 42.92 42.92 0 0 0-.81-1.805.293.293 0 0 0-.072-.061 2.782 2.782 0 0 0-.46-.431c-.062-.1-.13-.197-.206-.287a2.993 2.993 0 0 1-.02-.984c.036-.089.086-.17.143-.246a4.22 4.22 0 0 0 .144-1.251c-.007-.238-.126-.372-.36-.4a.589.589 0 0 1-.102-.605c.127-.302.281-.589.462-.861.289-.673.422-1.401.39-2.133a6.913 6.913 0 0 0-.196-1.343c.04-.283.142-.552.298-.79.049-.174.061-.354.04-.533-.274-.4-.58-.777-.912-1.128a1.747 1.747 0 0 1-.174-.307 10.82 10.82 0 0 1-.02-1.21c.02-.142.06-.281.122-.41.128-.146.238-.132.329.04.063.34.182.663.348.965.218.35.527.467.933.348a.426.426 0 0 1 .164-.051l.451-.41a.893.893 0 0 1 .246-.113zm1.537 1.456c-.006.123-.02.246-.04.369a1.029 1.029 0 0 1 .04-.37zm-.615 6.933a.956.956 0 0 0 .851 0c.13.238.242.484.339.738-.013.008-.027.015-.041.02.02.034.008.05-.041.052.034 3.835.055 7.673.061 11.514a1.236 1.236 0 0 0-.174 0c-.006-.055-.015-.108-.02-.164l-.021.02c-.043-.05-.088-.05-.134 0a4.188 4.188 0 0 0-.8-.758.185.185 0 0 1 .134.041l.03-.02a2.17 2.17 0 0 1-.122-.113.106.106 0 0 1 .061-.01V11.507a.247.247 0 0 1-.102-.01c.047 0 .09-.019.123-.051a.195.195 0 0 0-.123-.01.137.137 0 0 1-.02-.093z"/><path fill="#94A3B8" d="M15.422 12.082a.2.2 0 0 1 .03.082c0 .36.035.716.103 1.067.127.268.244.541.348.82.173.324.415.609.708.83.07.076.14.154.205.236a.216.216 0 0 1-.062.092c.08.078.07.089-.03.031-.006 3.26-.015 6.521-.02 9.782a.142.142 0 0 1-.042.061.537.537 0 0 0-.092-.123 3.791 3.791 0 0 0-.39-.44 8.927 8.927 0 0 1-1.056-.872.621.621 0 0 1-.072-.123c.046-.052.09-.052.134 0l.02-.02c.006.055.015.108.02.163.058-.004.118-.004.175 0-.006-3.84-.027-7.68-.061-11.514.049-.002.061-.018.04-.051.015-.006.027-.015.042-.02zm-3.733 3.015a.293.293 0 0 1 .072.061c.285.597.554 1.198.81 1.805a6.6 6.6 0 0 1-.553.461c-.146.15-.292.297-.441.441a.05.05 0 0 0-.01.041c-.089.076-.17.158-.247.246a.053.053 0 0 0-.061-.01.695.695 0 0 1-.082.092 1.71 1.71 0 0 0-.205 0v-.164h-.164v-.164h-.164v-.164h-.164v-.164h-.164v-.164h-.165v-.164h-.164v-.164h-.164v-.164a.797.797 0 0 0-.184.01.061.061 0 0 0-.02.051l-.739-.8c.42-.449.851-.89 1.292-1.322a.26.26 0 0 1 .123.061c.244.22.49.435.738.646.207-.174.427-.332.656-.471z"/><path fill="#94A3B8" d="M16.816 15.117c.205.17.396.355.574.554a.102.102 0 0 1 0 .102.086.086 0 0 0-.102 0 .155.155 0 0 1-.062-.04c-.016 3.332-.027 6.66-.03 9.986-.044-.08-.064-.074-.062.02a.21.21 0 0 0 .051.062c-.014.018-.039.025-.061.02-.14-.17-.271-.348-.39-.533a1.816 1.816 0 0 1-.164-.328.537.537 0 0 1 .092.123.142.142 0 0 0 .041-.061c.006-3.26.015-6.521.02-9.782.101.058.111.047.031-.03a.252.252 0 0 0 .062-.093z"/><path fill="#94A3B8" d="M17.39 15.67c.396.38.78.766 1.149 1.16l.328.246c.26.084.514.19.758.317-.014 3.845 0 7.686.041 11.525-.049.088-.07.08-.061-.02h-.103a.247.247 0 0 0-.01-.103.063.063 0 0 1-.03.02.099.099 0 0 1-.021-.082.69.69 0 0 0-.205.02c-.222-.208-.443-.42-.667-.635a2.321 2.321 0 0 1-.369-.636 3.293 3.293 0 0 0-.39-1.025 1.265 1.265 0 0 0-.4-.359 5.157 5.157 0 0 0-.286-.277c.022.005.047-.002.061-.02a.21.21 0 0 1-.051-.062c-.002-.094.018-.1.061-.02.004-3.326.015-6.654.031-9.987a.155.155 0 0 0 .062.041.086.086 0 0 1 .102 0 .102.102 0 0 0 0-.102zm-6.07 2.482c-.055.082-.108.164-.164.246-.26.324-.488.675-.676 1.046a.052.052 0 0 1-.052-.041.315.315 0 0 0-.04.144l-.042.04-.02-.123a.16.16 0 0 0-.01.083.106.106 0 0 1-.062-.01.158.158 0 0 0-.092-.093c-.01-.018-.013-.041-.01-.062a.106.106 0 0 1-.062-.01.158.158 0 0 0-.092-.092c-.01-.033-.015-.068-.01-.103h-.124c.015-.123-.04-.178-.164-.164.015-.123-.04-.178-.164-.164a.44.44 0 0 0-.04-.184c-.068 0-.103-.035-.103-.103a.576.576 0 0 0-.144-.04.176.176 0 0 0-.072-.185c-.01.018-.012.04-.01.061h-.164v-.164c.074.002.078-.018.01-.061l-.02-.103c-.01.099-.04.105-.082.02v.124a.156.156 0 0 0-.113.082c.006.024.016.024.03 0a.05.05 0 0 1 0 .061l-.02-.02c-.035.063-.078.073-.133.03a.09.09 0 0 0 .02-.071.09.09 0 0 0 .072-.02c.253-.452.538-.883.851-1.293a.061.061 0 0 1 .02-.051c.062-.01.124-.014.185-.01v.164h.164v.164h.164v.164h.165v.164h.164v.164h.164v.164h.164v.164h.164v.164a1.71 1.71 0 0 1 .205 0 .695.695 0 0 0 .082-.092.053.053 0 0 1 .061.01z"/><path fill="#94A3B8" d="M19.625 17.393c.531.175 1.03.433 1.477.77.119.055.242.098.369.133a.117.117 0 0 0 .061.03c-.162.027-.162.052 0 .072.005 3.398 0 6.794-.01 10.192-.03.018-.035.039-.01.061a.087.087 0 0 0 .03-.04.2.2 0 0 0 .031.081v.02l-1.21 1.641a4.602 4.602 0 0 1-.604-1.066.142.142 0 0 0-.052-.041l-.471-.492a.69.69 0 0 1 .205-.02.099.099 0 0 0 .02.081.063.063 0 0 0 .031-.02c.01.033.014.067.01.102h.103c-.008.1.012.109.061.02-.04-3.838-.055-7.68-.04-11.524zm-7.054-.43c.088.14.17.283.246.43a.329.329 0 0 1-.102.134c-.236.19-.455.4-.656.625-.01-.05-.033-.061-.072-.04a.25.25 0 0 1-.031-.144.27.27 0 0 0-.164-.062.142.142 0 0 1 0-.092l-.03-.031a.138.138 0 0 1-.052.072l-.144.051a.05.05 0 0 1 .01-.041c.15-.144.296-.291.442-.44a6.6 6.6 0 0 0 .553-.462z"/><path fill="#94A3B8" d="M20.487 17.906h.061v11.976h-.061V17.906zm-11.791.39a.09.09 0 0 1-.021.071c.055.043.098.033.133-.03l.02.02a.05.05 0 0 0 0-.061c-.014.024-.024.024-.03 0a.156.156 0 0 1 .113-.082v-.123c.043.084.072.078.082-.02l.02.102c.068.043.066.063-.01.061v.164h.164a.106.106 0 0 1 .01-.061c.06.04.089.114.072.184.05.008.099.02.144.041 0 .068.035.103.102.103a.44.44 0 0 1 .041.184c.123-.014.179.041.164.164.123-.014.179.041.164.164h.123c-.004.035 0 .07.01.103.044.016.077.05.093.092.018.01.041.013.061.01-.002.021 0 .044.01.062.044.016.077.05.093.092.018.01.041.013.062.01a.16.16 0 0 1 .01-.082l.02.124.041-.041a.315.315 0 0 1 .041-.144.052.052 0 0 0 .052.041v.02a4.042 4.042 0 0 0-.37.841c-.07.18-.127.365-.174.554a.046.046 0 0 1-.03.02.317.317 0 0 1-.062-.184h-.185v-.164a.106.106 0 0 1-.061-.01.158.158 0 0 0-.092-.093c-.01-.018-.013-.04-.01-.061a.106.106 0 0 1-.062-.01.158.158 0 0 0-.093-.093.106.106 0 0 1-.01-.061.106.106 0 0 1-.061-.01.158.158 0 0 0-.093-.093.106.106 0 0 1-.01-.061.106.106 0 0 1-.061-.01 2.635 2.635 0 0 1-.195-.257l-.8-.78a2.635 2.635 0 0 0-.195-.255.106.106 0 0 0-.061-.01v-.165H7.69c.016-.108-.02-.19-.113-.246-.019.004-.035.012-.051.02a6.44 6.44 0 0 0 .133-.348.086.086 0 0 1 .041-.02c.334.106.664.215.995.328zm3.363-.144c-.195.226-.38.457-.554.697a.182.182 0 0 0-.041-.153.156.156 0 0 0 .051-.134.177.177 0 0 1-.113 0 .282.282 0 0 0-.164-.225.24.24 0 0 1-.082.061c.056-.082.109-.164.164-.246.076-.088.158-.17.246-.246l.144-.051a.138.138 0 0 0 .051-.072l.031.03a.142.142 0 0 0 0 .093.27.27 0 0 1 .164.062.25.25 0 0 0 .03.143c.038-.022.062-.008.073.041z"/><path fill="#94A3B8" d="M9.905 20.88v.081c-.07.263-.125.532-.164.8-.024.05-.049.05-.071 0a.16.16 0 0 0-.01.082h-.165v-.164h-.164v-.164h-.164v-.164h-.164v-.164H8.84v-.164h-.164v-.164h-.164v-.328h-.164c.02-.13-.035-.185-.164-.164v-.164h-.185a.094.094 0 0 1-.04.102.284.284 0 0 0 0-.143c-.263-.125-.53-.246-.8-.36a.657.657 0 0 1-.185-.112l.554-1.353a.223.223 0 0 1 .051-.02.222.222 0 0 1 .113.245h.164v.164c.02-.002.043 0 .061.01.07.083.136.167.195.257l.8.78c.06.09.125.173.195.255.018.01.04.013.061.01-.002.021 0 .044.01.062.044.017.076.05.093.092.018.01.04.013.061.01-.002.021 0 .044.01.062.044.017.076.05.093.093.018.01.04.012.061.01-.002.02 0 .043.01.061.044.017.076.05.093.093.018.01.04.012.061.01v.164h.185c.006.08.027.141.061.184zm11.566-2.584c.27.047.547.055.82.02.22-.004.437 0 .656.01a2.064 2.064 0 0 1-.625.01c-.064.015-.13.025-.195.031a.747.747 0 0 0 .164.031v9.146c.035.041.056.09.062.143-.26.337-.52.671-.78 1.005a.2.2 0 0 1-.03-.082.087.087 0 0 1-.031.041c-.025-.022-.02-.043.01-.061.01-3.398.015-6.794.01-10.192-.162-.02-.162-.043 0-.072a.117.117 0 0 1-.061-.03z"/><path fill="#94A3B8" d="M22.291 18.316c.328-.029.658-.024.984.01.562.105 1.118.246 1.661.42a.382.382 0 0 1 .041-.02c-.004.017.007.033.021.041.041.01.084.025.123.041a2.107 2.107 0 0 1-.164.031c.08.02.164.035.246.041-.094.004-.187.008-.277.01a345.467 345.467 0 0 0 0 5.455c.029-.045.064-.045.103 0 .012.02.006.035-.02.041-.023-.016-.04-.016-.052 0 .01.029.023.057.041.082a.098.098 0 0 1 .082-.041c-.328.35-.644.714-.943 1.087-.44.5-.864 1.013-1.272 1.538h-.02a.059.059 0 0 0-.062-.02v-8.634h-.492a.747.747 0 0 1-.164-.03c.066-.007.131-.017.195-.031.207.028.418.024.625-.01-.22-.01-.436-.015-.656-.01z"/><path fill="#94A3B8" d="M22.291 18.398h.492v8.633a.059.059 0 0 1 .062.02l-.41.554a.261.261 0 0 0-.082.082.266.266 0 0 0-.062-.143v-9.146zm2.83.41c.125.029.248.064.37.103.354.078.71.16 1.065.246.005.016-.006.033-.02.04a.209.209 0 0 0-.205-.01c.082.017.082.027 0 .031-.006 1.257 0 2.517.02 3.774a.383.383 0 0 0 .041.02c-.44.466-.88.937-1.312 1.415a.098.098 0 0 0-.082.041.307.307 0 0 1-.041-.082c.012-.016.029-.016.051 0 .027-.006.033-.02.02-.041-.038-.045-.073-.045-.102 0a345.467 345.467 0 0 1 0-5.455c.09-.002.183-.006.277-.01a1.434 1.434 0 0 1-.246-.04c.055-.011.11-.02.164-.032zm-13.616.041c-.195.31-.38.624-.554.944a.142.142 0 0 1 0-.093.245.245 0 0 1-.072-.092.175.175 0 0 0-.133-.061c.002-.087-.039-.136-.123-.144a.16.16 0 0 0-.01-.082.68.68 0 0 1-.133.143v-.02c.188-.371.416-.722.676-1.046a.24.24 0 0 0 .082-.061c.09.04.154.127.164.225a.177.177 0 0 0 .113 0c.006.05-.014.1-.051.134a.18.18 0 0 1 .04.153z"/><path fill="#94A3B8" d="M26.556 19.157c.193 0 .386.02.575.061a.217.217 0 0 0 .061-.02c.002.012.01.025.02.03.115.021.226.058.329.113a.07.07 0 0 0 .04.031.228.228 0 0 0-.04.175h.164c-.006.662 0 1.326.02 1.989.08.03.072.045-.02.04v.103c-.099.004-.105.025-.02.062-.419.39-.823.793-1.21 1.21l-.083.061a.383.383 0 0 1-.04-.02c-.021-1.257-.027-2.517-.021-3.774.082-.004.082-.014 0-.03a.209.209 0 0 1 .205.01c.014-.008.025-.025.02-.041z"/><path fill="#94A3B8" d="M27.54 19.341a1.2 1.2 0 0 0 .206.052c.117.07.24.125.369.164l.984.02c.08.02.164.035.246.041.142.052.28.113.41.185.146.127.25.295.298.482.016.137.014.275-.01.41-.015.289-.027.578-.042.871.058.058.052.076-.02.052-.636.022-1.271.04-1.907.05.26.011.519.015.78.011-.374.017-.75.027-1.129.03a.087.087 0 0 1-.04.032c-.085-.037-.079-.058.02-.062v-.102c.092.004.1-.01.02-.041a49.486 49.486 0 0 1-.02-1.99h-.164a.228.228 0 0 1 .04-.174.078.078 0 0 1-.04-.03zm-16.589.452c-.174.4-.326.812-.45 1.23a.28.28 0 0 0-.103-.144c.014-.065.034-.071.061-.02a.168.168 0 0 0 .051-.041.342.342 0 0 1 .01-.103c.015.01.025.025.031.041l.01-.03a.83.83 0 0 1-.092-.236.19.19 0 0 0-.153-.062v-.061h-.062a.447.447 0 0 0-.051-.205c-.019.04-.037.082-.052.123-.008.014-.024.024-.04.02.09-.293.215-.576.369-.84a.68.68 0 0 0 .133-.144.16.16 0 0 1 .01.082c.084.01.125.057.123.144.051 0 .1.022.133.061a.245.245 0 0 0 .072.092.142.142 0 0 0 0 .093zm-1.21 1.968c-.02.19-.035.384-.04.574-.01.353-.025.626-.042.82h-.164v-.163h-.164v-.164h-.164v-.165h-.164V22.5H8.84v-.328h-.164v-.164h-.164v-.164h-.164v-.164h-.164v-.164h-.164v-.164h-.164a.106.106 0 0 0-.01-.061.713.713 0 0 0-.021.287l.02-.062a.209.209 0 0 1-.02.164.153.153 0 0 0-.082-.102.118.118 0 0 1-.051.102c.022-.19.047-.383.072-.574.043-.27.108-.54.194-.8a.094.094 0 0 0 .041-.102h.185v.164c.13-.02.184.035.164.164h.164v.328h.164v.164h.164v.164h.164v.164h.164v.164h.164v.164h.164v.164h.164a.16.16 0 0 1 .01-.082c.023.05.046.05.072 0z"/><path fill="#94A3B8" d="M10.5 21.023c-.039.18-.08.359-.123.533a.328.328 0 0 1 0-.225l-.02-.02c-.023.06-.058.07-.103.03a1.211 1.211 0 0 0-.308-.298.144.144 0 0 0 .02-.082h-.06v-.082a.046.046 0 0 0 .03-.02c.047-.189.105-.373.174-.554.017.004.033-.006.041-.02.015-.041.033-.082.052-.123a.447.447 0 0 1 .051.205h.062v.061a.19.19 0 0 1 .153.062.83.83 0 0 0 .093.236l-.01.03a.087.087 0 0 0-.031-.04.342.342 0 0 0-.01.102.168.168 0 0 1-.052.04c-.027-.05-.047-.042-.061.021.049.035.084.084.102.144z"/><path fill="#94A3B8" d="M9.905 20.961h.062a.144.144 0 0 1-.02.082c.118.08.223.18.307.298.045.04.08.03.103-.03l.02.02a.328.328 0 0 0 0 .225c-.012.13-.025.26-.041.39-.018.074-.033.15-.041.225a.07.07 0 0 1-.03-.04c-.02.024-.036.024-.052 0 .02-.031.025-.07.01-.103a2.176 2.176 0 0 0-.051.164c-.016-.012-.016-.029 0-.051a.392.392 0 0 1-.123-.123c.045-.013.05-.037.01-.072a.252.252 0 0 1-.164-.164.307.307 0 0 1-.082-.062c-.01.109-.006.22.01.328-.004.054-.014.054-.03 0a.096.096 0 0 0-.01.123.284.284 0 0 0-.031.103c-.007-.035-.015-.068-.02-.103a.817.817 0 0 0 .01.308c-.009.014-.025.025-.042.02v-.164c.006-.19.02-.383.041-.574.04-.27.095-.537.164-.8z"/><path fill="#94A3B8" d="M9.7 22.335v.164c-.004.273 0 .548.01.82.005.056.015.111.031.165.033.373.097.744.195 1.107.097.295.195.589.298.882.036.063.026.119-.031.164a1.148 1.148 0 0 1-.041-.144c-.01.019-.013.041-.01.062-.068 0-.103-.035-.103-.103h-.062v-.061c-.067 0-.102-.035-.102-.103h-.062v-.082h-.082a.252.252 0 0 0-.02-.123c-.015-.018-.04-.024-.062-.02v.061a.25.25 0 0 1-.164 0 .25.25 0 0 1 0-.164.25.25 0 0 1-.164 0 .25.25 0 0 1 0-.164.25.25 0 0 1-.164 0 .18.18 0 0 0-.02-.113.14.14 0 0 1 .102-.061.083.083 0 0 0-.082-.051v-.103a.27.27 0 0 1-.164-.062.294.294 0 0 0-.133-.205c-.01-.018-.012-.04-.01-.061a.16.16 0 0 1-.082-.01.158.158 0 0 0-.093-.093c-.01-.018-.012-.04-.01-.061a.106.106 0 0 1-.061-.01 1.555 1.555 0 0 0-.236-.257c-.015-.084-.066-.119-.154-.102a.44.44 0 0 0-.041-.185c-.068 0-.103-.035-.103-.102H8.02v-.062c-.068 0-.103-.035-.103-.102h-.061v-.062c-.068 0-.103-.035-.103-.102h-.061v-.062c-.068 0-.103-.035-.103-.102-.076.008-.15.008-.225 0a.25.25 0 0 1 0-.165.25.25 0 0 1-.164 0 .25.25 0 0 1 0-.164.25.25 0 0 1-.164 0 .25.25 0 0 1 0-.164.25.25 0 0 1-.165 0v-.164a.16.16 0 0 0 .083-.01.083.083 0 0 0-.083-.051v-.103a.27.27 0 0 1-.164-.061v-.103c.019-.028-.034-.035-.164-.02v-.02c.382-.036.765-.056 1.149-.062v-.062a.118.118 0 0 0 .051-.102c.041.02.072.057.082.102a.209.209 0 0 0 .02-.164l-.02.062a.713.713 0 0 1 .02-.287c.01.018.013.04.01.061h.165v.164h.164v.164h.164v.164h.164v.164h.164v.164h.164v.328h.164v.164h.164v.165h.164v.164h.164v.164h.164c.017-.195.031-.47.041-.82zm20.343-1.64c-.005.22 0 .437.01.656.006.096.024.193.051.287.457.02.917.027 1.374.02-.164.021-.328.027-.492.021h-2.133c-.26.004-.519 0-.78-.01.637-.01 1.272-.029 1.908-.051.072.024.078.006.02-.052.015-.293.027-.584.042-.871z"/><path fill="#94A3B8" d="M31.478 21.659c.843-.01 1.684 0 2.522.03.041.082.02.138-.061.164-.497.054-.989.132-1.477.236a.154.154 0 0 0-.123-.051.21.21 0 0 1 .154-.01c.041-.006.051-.023.03-.051a3.964 3.964 0 0 0-.348-.052 17.7 17.7 0 0 1-1.19.02 9.583 9.583 0 0 0-.655-.071c.219-.01.436-.014.656-.01v-.185c.164.006.328-.002.492-.02zm-21.183.512v.123c-.029.41-.023.823.02 1.23a.779.779 0 0 1-.061-.47 2.057 2.057 0 0 0-.03-.226c-.005.07-.015.137-.032.205-.024-.017-.024-.033 0-.052a12.26 12.26 0 0 0-.133-.215.505.505 0 0 0-.092-.051.42.42 0 0 0-.133-.154l-.02.061c-.025-.15-.038-.299-.032-.45a.096.096 0 0 1 .01-.124c.017.054.027.054.031 0a1.353 1.353 0 0 1-.01-.328.307.307 0 0 0 .082.062c.025.078.086.14.164.164.04.035.035.06-.01.072.03.049.074.092.123.123-.016.022-.016.039 0 .05.014-.055.033-.11.051-.163a.108.108 0 0 1-.01.102c.016.025.033.025.051 0 .004.017.015.031.031.041z"/><path fill="#94A3B8" d="M29.837 21.68h1.149v.184c-.22-.004-.437 0-.656.01.223.016.44.041.656.072-.66-.006-1.317 0-1.969.02h-.656c.38-.024.763-.055 1.148-.092-.33-.006-.658 0-.984.02l.226-.02c.026-.014.026-.027 0-.041a7.08 7.08 0 0 1 .933.01.66.66 0 0 1 .153-.03 14.938 14.938 0 0 1-.604-.031 2.476 2.476 0 0 1-.37.02.042.042 0 0 1 .004-.057l.007-.004c.045.004.088.012.133.02a.294.294 0 0 1 .174-.051c.222-.004.441-.014.656-.03zm-23.295.143c.13-.015.183-.008.164.02v.103a.27.27 0 0 0 .164.061v.103a.083.083 0 0 1 .083.051c-.027.01-.054.014-.083.01v.164a.25.25 0 0 0 .165 0 .25.25 0 0 0 0 .164.25.25 0 0 0 .164 0 .25.25 0 0 0 0 .164.25.25 0 0 0 .164 0 .25.25 0 0 0 0 .165c.076.008.15.008.225 0 0 .067.035.102.103.102v.062h.061c0 .067.035.102.103.102v.062h.061c0 .067.035.102.103.102v.062h.061c0 .067.035.102.103.102a.44.44 0 0 1 .04.185c.09-.017.14.018.155.102.088.076.166.162.236.257.018.01.04.012.061.01-.002.02 0 .043.01.061.043.017.076.05.093.093a.16.16 0 0 0 .082.01c-.002.02 0 .043.01.061a.294.294 0 0 1 .133.205.27.27 0 0 0 .164.062v.103a.083.083 0 0 1 .082.05.14.14 0 0 0-.102.062.18.18 0 0 1 .02.113.25.25 0 0 0 .164 0 .25.25 0 0 0 0 .164.25.25 0 0 0 .164 0 .25.25 0 0 0 0 .164.25.25 0 0 0 .164 0v-.061c.023-.004.047.002.062.02.016.04.024.08.02.123h.082v.082h.062c0 .068.035.103.102.103v.061h.062c0 .068.035.103.102.103a.106.106 0 0 1 .01-.062c.011.05.025.097.042.144.057-.045.067-.1.03-.164l.083.143c.81 1.74 2.093 2.984 3.855 3.732l-.123.031c.037.05.05.113.04.175h.165v.164h.164v.164h.164v.164h.164v.164h.164v.164h.164v.164h.164v.328h.164v.164h.164v.164h.164v.164h.164v.164h.164v.164h.164v.164h.164v.164h.164v.164h.164v.164h.165v.164h.164v.164h.164v.185c.108-.004.219 0 .328.01-.332.004-.66.015-.985.031h-.697a92.875 92.875 0 0 0-.061-1.066c-.24-.017-.48-.05-.718-.093a2.597 2.597 0 0 1-.328-.092.214.214 0 0 0-.082-.102.099.099 0 0 1 .082-.02v-.062c-.068 0-.103-.035-.103-.103h-.061v-.164h-.164v-.164h-.164v-.164h-.164v-.164h-.164v-.164h-.164v-.164h-.082a.495.495 0 0 0-.041-.164h-.206v-.164h-.164v-.164h-.164v-.226c-.067 0-.102-.035-.102-.102h-.062v-.062c-.067 0-.102-.035-.102-.102h-.062v-.062c-.067 0-.102-.035-.102-.103h-.062v-.061c-.067 0-.102-.035-.102-.103h-.062V29c-.067 0-.102-.035-.102-.103h-.062v-.164h-.164v-.164h-.164v-.164h-.164v-.164h-.164v-.164h-.164v-.164H11.3v-.164h-.164v-.164h-.164v-.164h-.164v-.226c-.068 0-.103-.035-.103-.102h-.061v-.062c-.068 0-.103-.035-.103-.102h-.061v-.062c-.068 0-.103-.035-.103-.102h-.061v-.062c-.068 0-.103-.035-.103-.102h-.062v-.062c-.067 0-.102-.035-.102-.102h-.062v-.164h-.164v-.164H9.66v-.165h-.164v-.164h-.164v-.164H9.25c-.018-.141-.1-.197-.246-.164v-.164H8.84v-.164h-.164c.037-.147-.012-.256-.144-.328-.018-.014-.024-.039-.02-.061-.068 0-.103-.035-.103-.103h-.061v-.061c-.068 0-.103-.035-.103-.103h-.061v-.062c-.068 0-.103-.034-.103-.102H8.02v-.062c-.068 0-.103-.034-.103-.102h-.082c.006-.084-.008-.094-.04-.03a.158.158 0 0 1 0 .153.36.36 0 0 0 .04.072.33.33 0 0 0-.02.133 4.51 4.51 0 0 1-.123-.738c-.328 0-.656-.006-.985-.02a.343.343 0 0 0-.164-.021v-1.866z"/><path fill="#94A3B8" d="M28.853 21.68h.984c-.215.016-.434.026-.656.03a.294.294 0 0 0-.174.051c-.045-.008-.088-.016-.133-.02-.019.012-.027.037-.015.055l.004.006c.123.002.246-.004.37-.02.2.014.403.024.604.03a.66.66 0 0 0-.153.031 7.08 7.08 0 0 0-.933-.01c.026.014.026.027 0 .041l-.226.02c.326-.02.654-.026.984-.02-.385.037-.769.068-1.148.092-.15-.004-.301 0-.451.01a5.681 5.681 0 0 0-.39.38l-.492.472-.328.328a.261.261 0 0 0-.082.082.203.203 0 0 0-.123-.113c.051-.027.051-.051 0-.072a.168.168 0 0 1 .04-.051.086.086 0 0 1-.06-.051c.389-.417.791-.819 1.21-1.21a.087.087 0 0 0 .04-.031c.38-.004.755-.014 1.128-.03z"/><path fill="#94A3B8" d="M28.361 21.966h2.133c-.109.02-.218.027-.328.02-.22-.003-.437 0-.657.011l.164.02a6.788 6.788 0 0 1-.533.103c-.049.041-.035.062.041.062a2.91 2.91 0 0 0-.328.03 1.06 1.06 0 0 0-.328.123.15.15 0 0 0-.02-.102.322.322 0 0 0-.123.143c-.033-.055-.06-.05-.083.01a.312.312 0 0 0-.133.052.26.26 0 0 1-.113-.103c-.018.015-.024.04-.02.062a.24.24 0 0 0-.246.102.099.099 0 0 1-.082.02v-.081a.343.343 0 0 1-.164-.02.145.145 0 0 1 .061-.031.562.562 0 0 1-.082-.031c.123-.131.252-.256.39-.38.15-.01.301-.014.451-.01z"/><path fill="#94A3B8" d="M30.166 21.987v.082a.417.417 0 0 0-.123.03.903.903 0 0 1-.206.134c-.112-.04-.203-.008-.266.092l-.39.051v.082a1.224 1.224 0 0 0-.43.052l-.062.061a3.49 3.49 0 0 0-.82.154l-.144.082c-.018-.014-.024-.039-.02-.062-.11.009-.222.03-.328.062a.2.2 0 0 0 .082.03l-.02.021-.288.02a.318.318 0 0 0-.164.114l-.02-.01c.059-.042.08-.093.061-.154l.492-.472a.562.562 0 0 0 .082.03.145.145 0 0 0-.061.031c.051.02.108.027.164.02v.083a.099.099 0 0 0 .082-.02.24.24 0 0 1 .246-.103c-.004-.023.002-.047.02-.062a.26.26 0 0 0 .113.103.312.312 0 0 1 .133-.051c.023-.062.05-.064.083-.01a.322.322 0 0 1 .123-.144.15.15 0 0 1 .02.102c.103-.06.213-.1.328-.123a2.91 2.91 0 0 1 .328-.03c-.076 0-.09-.02-.04-.062.178-.027.356-.061.532-.102l-.164-.021c.22-.01.437-.014.657-.01zm.984.02c-.115.123-.22.252-.318.39l-.02-.041c-.048.082-.097.082-.144 0-.01.027-.014.053-.01.082a.144.144 0 0 0-.082.02.413.413 0 0 1-.113.103.733.733 0 0 0-.226.123c-.082-.037-.153-.025-.215.041a.053.053 0 0 0-.062-.01.329.329 0 0 0-.102.133c-.039.002-.045-.008-.02-.03a.347.347 0 0 0-.329.092c-.166.014-.33.04-.492.082.002.02 0 .043-.01.061a2.657 2.657 0 0 1-.174-.123c-.019.014-.025.039-.02.062a.368.368 0 0 0-.267.082c-.019-.015-.025-.04-.021-.062a.644.644 0 0 0-.359.144.125.125 0 0 0-.133-.062v.062a.53.53 0 0 0-.205.02.099.099 0 0 1-.082.062.265.265 0 0 0-.205-.02v.06c-.08.03-.162.05-.246.062l-.082-.02c-.113.049-.226.096-.339.143a.36.36 0 0 0-.071-.04c-.082.034-.165.067-.247.102a.343.343 0 0 1-.164.02v-.061l.226-.246a.261.261 0 0 1 .082-.082c.018.088.039.096.062.02h.082v.062a.128.128 0 0 0 .143-.062.277.277 0 0 0 .185-.092.26.26 0 0 1 .194.03.681.681 0 0 1 .462-.143c.084-.02.166-.047.246-.082.029 0 .057.016.072.041l.184-.061c.041.028.062.014.062-.041a.08.08 0 0 0 .102 0l.062.04a.709.709 0 0 1 .38-.102c.128-.03.253-.066.379-.103a.437.437 0 0 1 .112.041.388.388 0 0 1 .144-.05c.06-.101.148-.14.266-.114-.002.02 0 .043.01.062a.58.58 0 0 0 .144-.164c.006.016.017.03.031.04a.413.413 0 0 0 .103-.112.7.7 0 0 1 .205-.04c.106-.075.21-.146.317-.216a.213.213 0 0 0 .031.051.126.126 0 0 0-.082.062.705.705 0 0 0 .226-.031c-.027-.02-.027-.041 0-.062.072-.03.14-.07.205-.112.039-.01.082-.015.123-.01z"/><path fill="#94A3B8" d="M32.462 22.09c-.67.161-1.329.375-1.968.635L30 22.91c-.053-.005-.053-.015 0-.031l-.02-.02a.277.277 0 0 1-.123-.011.329.329 0 0 1 .102-.133.053.053 0 0 1 .062.01c.062-.066.133-.078.215-.041a.733.733 0 0 1 .226-.123.413.413 0 0 0 .113-.103.144.144 0 0 1 .082-.02.16.16 0 0 1 .01-.082c.047.082.096.082.143 0l.021.04c.098-.137.203-.266.318-.389.055.006.113 0 .164-.02a8.425 8.425 0 0 0-.82-.02h-1.477c.652-.021 1.308-.027 1.969-.021.396.006.793 0 1.19-.02.116.012.233.028.348.05.02.03.01.046-.031.052a.21.21 0 0 0-.154.01.148.148 0 0 1 .123.051zm-22.126-.144a1.34 1.34 0 0 1-.041.348v-.123c.008-.078.023-.151.041-.225z"/><path fill="#94A3B8" d="M30.494 21.966c.272-.006.547 0 .82.02a.343.343 0 0 1-.164.021.358.358 0 0 0-.123.01 1.33 1.33 0 0 1-.205.113c-.027.02-.027.041 0 .062a.705.705 0 0 1-.226.03.126.126 0 0 1 .082-.06.213.213 0 0 1-.03-.052c-.107.07-.212.141-.318.215a.7.7 0 0 0-.205.041.413.413 0 0 1-.103.113.087.087 0 0 1-.03-.041.58.58 0 0 1-.144.164c-.01-.019-.013-.041-.01-.062-.12-.026-.208.013-.267.113a.388.388 0 0 0-.144.051.437.437 0 0 0-.112-.04c-.126.036-.25.071-.38.102a.709.709 0 0 0-.38.103l-.06-.041a.08.08 0 0 1-.103 0c0 .055-.02.07-.062.04l-.184.062a.085.085 0 0 0-.072-.041c-.08.035-.162.062-.246.082a.681.681 0 0 0-.462.144.26.26 0 0 0-.194-.031.277.277 0 0 1-.185.092.128.128 0 0 1-.143.062v-.062h-.082c-.023.076-.044.068-.062-.02l.328-.328c.019.061-.002.112-.061.153l.02.01a.318.318 0 0 1 .164-.112l.287-.02.02-.021a.2.2 0 0 1-.081-.031c.106-.033.217-.053.328-.062-.004.023.002.048.02.062l.144-.082a3.49 3.49 0 0 1 .82-.154l.062-.061c.14-.043.285-.06.43-.052v-.082c.13-.018.259-.034.39-.05.063-.101.154-.132.266-.093a.903.903 0 0 0 .206-.133.417.417 0 0 1 .123-.031v-.082c.108.006.219-.002.328-.02zm0 .759.02.082c-.02 1.206-.027 2.416-.02 3.63-.136.004-.136.014 0 .03l-.062.01a.341.341 0 0 0-.143-.01.594.594 0 0 0 .205.062l-.041.02c.067.013.137.023.205.031-.004-1.087 0-2.174.01-3.26a87.811 87.811 0 0 0 .051 3.29.117.117 0 0 0-.061.032 4.597 4.597 0 0 0-.41-.062 20.24 20.24 0 0 0-1.128-.205 12.68 12.68 0 0 0-.841-.164.07.07 0 0 0-.041-.03l.02-.021a.487.487 0 0 1-.102-.041c.027-.714.027-1.427 0-2.143a.21.21 0 0 1-.062-.051.211.211 0 0 1 .113.05c.051-.028.056-.05.01-.07.023-.038.044-.075.062-.114l.37-.225c.45-.224.901-.441 1.352-.656l.493-.185zm-23.952-.923v1.887a.343.343 0 0 1 .164.02h-.184c-.006-.64 0-1.275.02-1.907zm3.24.37c-.006.151.007.3.031.45l.02-.061a.42.42 0 0 1 .134.154c.033.014.063.03.092.051l.133.215c-.024.019-.024.035 0 .052.017-.068.027-.136.031-.205.015.073.025.15.031.225a.779.779 0 0 0 .062.472c.036.244.077.49.123.738a.23.23 0 0 1-.072-.123l-.02.061c-.062-.008-.103-.049-.124-.123a.457.457 0 0 1-.133-.092l.041-.02c-.1-.105-.201-.21-.297-.318a.923.923 0 0 1-.052-.246.762.762 0 0 0 .01-.246c-.02.108-.036.219-.05.328a.747.747 0 0 1-.031-.164 15.63 15.63 0 0 1-.01-.82c.016.004.032-.007.04-.021a.817.817 0 0 1-.01-.308l.02.103a.284.284 0 0 1 .031-.103z"/><path fill="#94A3B8" d="M29.858 22.848a.277.277 0 0 0 .123.01l.02.02c-.053.017-.053.027 0 .032-.45.215-.902.432-1.353.656-.05-.031-.1-.06-.154-.082a.104.104 0 0 1-.051.051l.02.02a.209.209 0 0 0-.164.021c-.047.094-.114.115-.205.062l-.05-.052a.486.486 0 0 1-.206.062.893.893 0 0 1-.113.102.15.15 0 0 1-.02-.102h-.164v.061h-.164a.099.099 0 0 1-.02.082l-.124-.102c-.1.1-.23.164-.369.184a.108.108 0 0 0-.102-.01.67.67 0 0 1-.36.092 5.204 5.204 0 0 1-.297.113.233.233 0 0 1-.153-.01l-.041.04c-.062-.018-.066-.044-.01-.081.053-.078.112-.154.174-.226a2.37 2.37 0 0 0 .317-.307v.061c.056.006.113 0 .164-.02l.247-.103a.36.36 0 0 1 .071.041c.113-.047.226-.094.339-.143l.082.02c.084-.012.166-.033.246-.061v-.062a.265.265 0 0 1 .205.02.099.099 0 0 0 .082-.06c.065-.021.135-.028.205-.021v-.062a.125.125 0 0 1 .133.062.644.644 0 0 1 .359-.144c-.004.023.002.047.02.062a.368.368 0 0 1 .267-.082c-.004-.023.002-.048.02-.062.058.043.115.084.175.123a.106.106 0 0 0 .01-.061c.162-.041.326-.068.492-.082a.347.347 0 0 1 .328-.093c-.024.023-.018.033.02.031zm.656-.041c.259.283.476.599.646.943a.465.465 0 0 1 .154.226.404.404 0 0 1 .195.205c.129.11.248.23.359.359.135.088.266.182.39.287.3.172.616.316.942.43.394.191.765.425 1.108.698.311.254.383.566.215.933a1.6 1.6 0 0 1-.687.44c-.334.038-.67.079-1.005.124a4.388 4.388 0 0 1-.45.164.758.758 0 0 1-.329.184.305.305 0 0 0-.164.175c.039.39.066.779.082 1.168a5.448 5.448 0 0 1-.256 1.723 1.269 1.269 0 0 1-.318.482.51.51 0 0 1-.513 0 21.349 21.349 0 0 0-.738-.544.08.08 0 0 1 .082-.01c.027.015.027.027 0 .041a.245.245 0 0 1 .092.072.085.085 0 0 1 .072-.041c.033.01.068.018.103.02v-3.63a1.18 1.18 0 0 1-.226-.01l.062-.071a.098.098 0 0 1-.041-.082c.233-.037.465-.066.697-.082.338-.006.679.008 1.015.04.115.03.166-.012.154-.122-.499-.099-.997-.193-1.497-.287a.117.117 0 0 1 .061-.031 87.811 87.811 0 0 1-.051-3.291c-.01 1.086-.014 2.173-.01 3.26a3.538 3.538 0 0 1-.205-.03l.04-.021a.594.594 0 0 1-.204-.062.341.341 0 0 1 .143.01l.062-.01c-.136-.016-.136-.026 0-.03-.007-1.214 0-2.424.02-3.63z"/><path fill="#94A3B8" d="m28.648 23.566-.369.225c-.113.068-.23.13-.349.185a.358.358 0 0 0-.123.01c.043.012.047.023.01.03a.523.523 0 0 0-.46.042c-.107-.064-.204-.05-.288.04a1.59 1.59 0 0 1-.277-.06.273.273 0 0 0-.154.092.713.713 0 0 1-.246.03.106.106 0 0 0-.01-.061.8.8 0 0 1-.236.195.57.57 0 0 1-.256-.01.343.343 0 0 0-.133.102.087.087 0 0 1-.031-.041.412.412 0 0 1-.072.123.35.35 0 0 0-.102-.062.382.382 0 0 0 .02-.04v-.062c.023.004.047-.002.062-.02.073-.083.145-.165.215-.247a.061.061 0 0 1 .051-.02c-.055.037-.051.063.01.082l.042-.041c.049.02.102.024.153.01.1-.035.2-.072.298-.113a.67.67 0 0 0 .359-.092.108.108 0 0 1 .102.01.655.655 0 0 0 .37-.184l.122.102a.099.099 0 0 0 .02-.082h.165v-.061h.164a.15.15 0 0 0 .02.102.893.893 0 0 0 .113-.102.486.486 0 0 0 .205-.062l.051.052c.09.053.158.032.205-.062a.209.209 0 0 1 .165-.02l-.021-.021a.104.104 0 0 0 .051-.051c.054.022.105.049.154.082zm-18.21.697c.128.552.312 1.087.554 1.6a.26.26 0 0 1-.123-.062.24.24 0 0 1-.04.143h-.185v-.164h-.185a.275.275 0 0 0-.123-.205c-.014.009-.025.025-.02.041l-.082-.143a44.518 44.518 0 0 1-.298-.882 6.358 6.358 0 0 1-.195-1.107c.015-.109.031-.22.052-.328a.762.762 0 0 1-.01.246.923.923 0 0 0 .05.246c.097.108.197.213.298.318l-.041.02c.039.04.084.07.133.092.02.074.062.115.123.123l.02-.061a.23.23 0 0 0 .073.123z"/><path fill="#94A3B8" d="M27.93 23.976c-.221.15-.447.293-.676.43a1.037 1.037 0 0 0-.226 0 .316.316 0 0 0-.123.062.177.177 0 0 1-.082-.082c-.037.027-.068.02-.092-.02a.106.106 0 0 0-.01.061h-.165v.082a.774.774 0 0 1-.246-.041c-.114.041-.237.055-.358.041a1.423 1.423 0 0 0-.339.123.187.187 0 0 1-.113-.061 1.369 1.369 0 0 0-.164.123.106.106 0 0 1-.01-.062l.246-.267a.382.382 0 0 1-.02.041.35.35 0 0 1 .102.062.412.412 0 0 0 .072-.123c.006.016.016.03.03.041a.343.343 0 0 1 .134-.103.57.57 0 0 0 .256.01.8.8 0 0 0 .236-.194c.01.018.012.04.01.061a.713.713 0 0 0 .246-.03.273.273 0 0 1 .154-.093c.09.03.183.05.277.062.084-.09.18-.105.287-.041.14-.084.31-.1.462-.041.036-.008.032-.019-.01-.03.038-.011.081-.015.122-.011zm-13.185 7.67a2.284 2.284 0 0 1-.523-.124 8.003 8.003 0 0 0-.44.964l-1.744-.697-.02-.031c.106-.324.215-.646.328-.964a.125.125 0 0 0-.062-.102.657.657 0 0 1-.184-.113c.026-.03.026-.066 0-.103-.033.056-.06.052-.082-.01.092-.06.127-.146.102-.256h-.164v-.164h-.164v-.164h-.164v-.164h-.164v-.164H11.3v-.164h-.164v-.329h-.164v-.164h-.164v-.164h-.164v-.164h-.164v-.164h-.164v-.164h-.165v-.164h-.164v-.164h-.164v-.164H9.66v-.164h-.164v-.164h-.164v-.164h-.164v-.164h-.164v-.164H8.84V26.6h-.164v-.164h-.164v-.164h-.164v-.164h-.164v-.165h-.164v-.164h-.164v-.164c-.103.004-.205 0-.308-.01a.177.177 0 0 1 .144-.02.21.21 0 0 0-.062-.052h-.143c.156-.096.315-.186.482-.266a1.483 1.483 0 0 0-.103-.472 9.073 9.073 0 0 1-.051-.328.33.33 0 0 1 .02-.133.36.36 0 0 1-.04-.072.158.158 0 0 0 0-.154c.032-.063.046-.053.04.03h.082c0 .069.035.103.103.103v.062h.061c0 .068.035.102.103.102v.062h.061c0 .068.035.103.103.103v.061h.061c0 .068.035.103.103.103-.004.022.002.047.02.061.132.072.18.18.144.328h.164v.164h.164v.164c.146-.033.228.023.246.164h.082v.164h.164v.164h.164v.165h.164v.164h.164v.164h.062c0 .067.035.102.102.102v.062h.062c0 .067.035.102.103.102v.062h.061c0 .067.035.102.103.102v.062h.061c0 .067.035.102.103.102v.062h.061c0 .067.035.102.103.102v.226h.164v.164h.164v.164h.164v.164h.164v.164h.164v.164h.164v.164h.164v.164h.164v.164h.164v.164h.062c0 .068.035.103.102.103v.061h.062c0 .068.035.103.102.103v.061h.062c0 .068.035.103.102.103v.062h.062c0 .067.035.102.102.102v.062h.062c0 .067.035.102.102.102v.226h.164v.164h.164v.164h.206a.495.495 0 0 1 .04.164h.083v.164h.164v.164h.164v.164h.164v.164h.164v.164h.164v.164h.061c0 .068.035.103.103.103v.061a.099.099 0 0 0-.082.02c.037.023.065.06.082.103z"/><path fill="#94A3B8" d="m27.254 24.406-.923.657a.09.09 0 0 0-.072.02c-.057-.061-.125-.076-.205-.04-.2-.034-.199-.064.01-.093a.316.316 0 0 0-.164-.051v.061h-.164v.123h-.164v-.082c-.129.019-.258.035-.39.051-.077.07-.133.054-.164-.05.088-.136.191-.26.308-.37-.002.02 0 .043.01.062.052-.046.107-.087.164-.123.03.032.07.055.113.061.107-.055.222-.096.339-.123.12.014.244 0 .358-.041.08.027.162.041.246.041v-.082h.165a.106.106 0 0 1 .01-.062c.024.041.055.048.092.021a.177.177 0 0 0 .082.082.316.316 0 0 1 .123-.062c.074-.008.15-.008.226 0z"/><path fill="#94A3B8" d="M26.474 22.95c.01.027.035.046.062.052a.168.168 0 0 0-.041.051c.051.02.051.045 0 .072.055.018.1.06.123.113l-.226.246a2.37 2.37 0 0 1-.317.307 2.644 2.644 0 0 0-.175.226.061.061 0 0 0-.051.02c-.07.082-.142.164-.215.246-.015.019-.04.025-.062.021v.061l-.246.267c-.117.11-.22.234-.308.37.033.104.087.12.165.05.13-.016.26-.032.39-.05v.081h.163v-.123h.164V24.9a.316.316 0 0 1 .164.05c-.207.03-.21.06-.01.093.08-.035.148-.02.205.041a.09.09 0 0 1 .072-.02v.02c-.537.392-1.044.825-1.518 1.292a4.499 4.499 0 0 0-.39.349.068.068 0 0 0-.071.04.087.087 0 0 0-.03-.04 2.197 2.197 0 0 0-.175.164.11.11 0 0 1 .03-.113c-.014-.42-.028-.84-.04-1.261.3-.373.615-.736.943-1.087.433-.478.872-.95 1.312-1.415l.082-.061z"/><path fill="#94A3B8" d="M28.279 23.791a1.202 1.202 0 0 1-.062.113c.046.02.041.043-.01.072a.211.211 0 0 0-.113-.051.21.21 0 0 0 .062.05c.027.717.027 1.43 0 2.144.033.018.068.03.102.04l-.02.021a.07.07 0 0 1 .041.031 1.118 1.118 0 0 1-.246-.051.494.494 0 0 0-.205 0c-.5.305-.984.63-1.456.974a.087.087 0 0 0-.03-.041 88.77 88.77 0 0 0-.032-1.815c.033-.07.056-.068.072.01a.626.626 0 0 0 .01-.164c-.034.004-.055-.008-.061-.04v-.021l.923-.657c.23-.137.455-.28.676-.43.12-.058.236-.12.349-.185z"/><path fill="#94A3B8" d="M26.33 25.083c.007.033.028.045.062.041.005.056 0 .11-.01.164-.016-.076-.039-.08-.072-.01.017.603.027 1.208.031 1.815.014.01.025.024.03.04l-.266.206-1.148.861c-.037-.014-.047-.04-.03-.082.096-.029.091-.04-.011-.04.002-.58 0-1.153-.01-1.723-.033-.013-.06.002-.082.04-.009-.004-.013-.012-.01-.02.471-.47.98-.9 1.517-1.292zm-18.844.451h.143a.21.21 0 0 1 .062.052.177.177 0 0 0-.144.02c.103.01.205.014.308.01v.164h.164v.164h.164v.165h.164v.164h.164v.164h.164v.164h.164v.328h.164v.164h.164v.164h.164v.164h.164v.164h.164v.164h.164v.164h.164v.164h.164v.164h.165v.164h.164v.164h.164v.164h.164v.164h.164v.164h.164v.329h.164v.164h.164v.164h.164v.164h.164v.164h.164v.164h.164c.025.11-.01.197-.102.256.022.062.049.064.082.01.026.037.026.072 0 .103a10.389 10.389 0 0 1-1.036-.697c-.273.25-.55.496-.83.738-.431-.441-.864-.878-1.303-1.313a.05.05 0 0 1 0-.061c.24-.263.476-.53.708-.8a7.59 7.59 0 0 1-.861-1.333l-1.067.41a62.536 62.536 0 0 0-.758-1.691c.168-.117.346-.216.533-.298z"/><path fill="#94A3B8" d="m24.957 28.2-.78.656c-.24.189-.473.388-.696.595-.288.246-.569.498-.841.759a.38.38 0 0 1-.123.082c.008-.029-.008-.05-.052-.062a.106.106 0 0 0-.01.062h-.082a.135.135 0 0 1-.072.143c-.006-.35-.012-.707-.02-1.066a.343.343 0 0 0-.051-.154.061.061 0 0 0 .02-.051l.185-.246c.24-.252.471-.513.697-.78.422-.475.853-.947 1.292-1.414.123-.123.252-.24.39-.349-.003.008.001.016.01.02.022-.038.049-.053.082-.04.01.57.012 1.144.01 1.722.102-.002.107.012.01.041-.016.04-.006.066.031.082z"/><path fill="#94A3B8" d="M24.137 25.514c.012.42.026.84.04 1.261a.11.11 0 0 0-.03.113c.055-.058.113-.113.174-.164.015.01.025.024.031.04a.068.068 0 0 1 .072-.04c-.439.467-.87.939-1.292 1.415a.293.293 0 0 1-.133 0c-.023.039-.04.043-.052.01a.098.098 0 0 1 .041-.062c-.04-.28-.053-.566-.04-.85a.099.099 0 0 1-.083-.021.192.192 0 0 0 0-.164 31.61 31.61 0 0 1 1.272-1.538zm4.983.861c.38.058.756.127 1.128.205a1.526 1.526 0 0 1-.41 0v.082c-.11.015-.22.015-.329 0a41.75 41.75 0 0 1-.881-.164.386.386 0 0 1-.185-.04.374.374 0 0 0 .215-.042l.328.041.031-.02a.747.747 0 0 0-.164-.031.833.833 0 0 1 .267-.03z"/><path fill="#94A3B8" d="M28.443 26.457a.386.386 0 0 0 .185.041.07.07 0 0 0 .04.03c-.19.021-.19.042 0 .062a.403.403 0 0 1-.122.134c-.064-.072-.138-.082-.226-.031l-.123.082c-.283.029-.564.066-.84.113l-.021-.02a.087.087 0 0 0 .03-.103.268.268 0 0 1-.143.102l-.01-.03.061-.072c.19-.138.39-.265.595-.38.193.004.385.029.574.072zm1.805.123c.137.015.274.035.41.062.5.094.998.188 1.497.287.012.11-.04.152-.154.123a8.825 8.825 0 0 0-1.015-.041.747.747 0 0 1 .164-.031 9.007 9.007 0 0 0-1.066-.215 4.597 4.597 0 0 0-.41-.062.26.26 0 0 1-.165-.04c.109.014.22.014.328 0v-.083c.136.019.275.019.41 0z"/><path fill="#94A3B8" d="M29.673 26.703c.138.015.275.035.41.062a.212.212 0 0 1-.061.184.512.512 0 0 0-.185-.02v.082a.181.181 0 0 0-.164.102c.052.02.11.027.164.02a1.383 1.383 0 0 1-.328.062.843.843 0 0 0-.215.02l-.051-.02a.2.2 0 0 1 .102-.071.576.576 0 0 1-.205-.01l-.205.122a.2.2 0 0 0 .082.031.636.636 0 0 0-.123.03l-.04-.04a1.102 1.102 0 0 1-.165.03c.055.027.055.056 0 .083-.109.02-.217.034-.328.04l.02.021a.25.25 0 0 1-.164-.01c0 .018-.012.037-.03.04a.11.11 0 0 0-.113-.03c.047.029.047.045 0 .051a.36.36 0 0 1-.072-.04.209.209 0 0 1-.215.02.991.991 0 0 0-.226.082c-.018-.014-.024-.039-.02-.062a.333.333 0 0 0-.308.103.27.27 0 0 1-.082-.062c-.027.037-.057.043-.092.02a.221.221 0 0 1-.123.042.192.192 0 0 1-.144-.041l-.03.03a1.387 1.387 0 0 0-.226.031.653.653 0 0 0-.267-.03c.037.006.043.02.02.04a1.71 1.71 0 0 0-.204 0c-.017.04-.045.054-.082.042a.293.293 0 0 0 .061-.072.58.58 0 0 0 .164-.144.586.586 0 0 0 .164-.082.142.142 0 0 1-.04.052.168.168 0 0 1 .133.01.09.09 0 0 0 .061-.041.854.854 0 0 1 .339 0 1.47 1.47 0 0 0 .225-.062.107.107 0 0 1 .092.062.5.5 0 0 1 .349-.041c.07-.025.141-.045.215-.062a.172.172 0 0 1 .093.041c.192-.045.387-.086.584-.123l.072.02c.1-.077.211-.139.328-.184.008.031.027.041.051.031a.216.216 0 0 0 .062-.092 1.52 1.52 0 0 1 .164-.051c.028-.056.055-.058.082-.01a.224.224 0 0 1 .143-.083v-.061c.05-.01.099.006.134.04a.088.088 0 0 1 .112-.05c-.05.016-.055.04-.01.071.035-.028.045-.06.03-.092a.117.117 0 0 0 .062-.03z"/><path fill="#94A3B8" d="M30.084 26.765c.358.049.715.123 1.066.215a.747.747 0 0 0-.164.03 8.165 8.165 0 0 0-.697.083c-.15.016-.302.03-.452.04a.343.343 0 0 1-.164-.02.181.181 0 0 1 .164-.102v-.082a.512.512 0 0 1 .185.02.214.214 0 0 0 .062-.184zm-1.128.205a.216.216 0 0 1-.062.092c-.024.01-.043 0-.051-.03a1.296 1.296 0 0 0-.328.184c-.023-.008-.047-.015-.072-.02-.197.036-.392.077-.584.122a.172.172 0 0 0-.093-.04 1.856 1.856 0 0 0-.215.06.5.5 0 0 0-.349.042.107.107 0 0 0-.092-.062 1.47 1.47 0 0 1-.225.062.854.854 0 0 0-.339 0 .09.09 0 0 1-.061.04.168.168 0 0 0-.134-.01.142.142 0 0 0 .041-.05c.138-.103.283-.2.431-.288-.029.054-.014.068.041.041a.225.225 0 0 0 .256 0c.02.033.056.054.093.062a.314.314 0 0 0 .174-.082c.006.016.016.03.03.04l.062-.04c.015.029.033.055.051.082a.47.47 0 0 1 .206-.082c.104.004.207.004.307 0 .047-.082.097-.082.144 0a.08.08 0 0 1 .04-.041.785.785 0 0 1 .216-.062.36.36 0 0 1 .072.041.883.883 0 0 0 .266-.143l.031.01a.09.09 0 0 0-.02.072c.032 0 .063.014.082.04a.122.122 0 0 1 .082-.04z"/><path fill="#94A3B8" d="M28.628 26.498c.293.058.586.113.881.164a.26.26 0 0 0 .164.041.117.117 0 0 1-.061.03c.014.034.004.065-.03.093-.046-.03-.042-.055.01-.072a.088.088 0 0 0-.113.052.146.146 0 0 0-.134-.041v.061a.224.224 0 0 0-.143.082c-.027-.047-.054-.045-.082.01a1.52 1.52 0 0 0-.164.052.143.143 0 0 0-.082.04.098.098 0 0 0-.082-.04.09.09 0 0 1 .02-.072l-.03-.01a.883.883 0 0 1-.267.143.36.36 0 0 0-.072-.04.785.785 0 0 0-.215.06.08.08 0 0 0-.041.042c-.047-.082-.097-.082-.144 0-.1.004-.203.004-.307 0a.47.47 0 0 0-.206.082c-.018-.027-.036-.053-.05-.082l-.062.04a.087.087 0 0 1-.031-.04.314.314 0 0 1-.174.082.144.144 0 0 1-.093-.062.225.225 0 0 1-.256 0c-.055.027-.068.013-.041-.04a.803.803 0 0 0 .123-.113c.113-.06.224-.126.328-.195l-.061.071.01.031a.268.268 0 0 0 .143-.102.087.087 0 0 1-.03.102l.02.02c.277-.046.558-.083.84-.112l.124-.082c.088-.051.162-.041.226.03a.403.403 0 0 0 .123-.133c-.191-.02-.191-.04 0-.061a.078.078 0 0 1-.041-.03z"/><path fill="#94A3B8" d="M28.279 26.211c.283.045.564.1.84.164a.833.833 0 0 0-.266.03c.056.005.11.015.164.032l-.03.02-.329-.04a.374.374 0 0 1-.215.04 2.857 2.857 0 0 0-.574-.072 6.208 6.208 0 0 0-.595.38c-.104.07-.215.135-.328.195a.803.803 0 0 1-.123.112 5.068 5.068 0 0 0-.43.287.586.586 0 0 1-.165.082.068.068 0 0 1-.061-.03.054.054 0 0 0 .03-.072.084.084 0 0 1-.092 0l.267-.205c.472-.345.955-.669 1.456-.974a.494.494 0 0 1 .205 0c.08.024.162.043.246.051zm2.01.882c0 .033.014.063.04.082l-.06.072c.073.01.149.014.225.01v3.63a.433.433 0 0 1-.103-.021.085.085 0 0 0-.072.041.245.245 0 0 0-.092-.072c.027-.014.027-.026 0-.04a.08.08 0 0 0-.082.01.538.538 0 0 1-.246-.093.596.596 0 0 0-.226 0 30.66 30.66 0 0 1-1.394.513c-.133.049-.27.086-.41.113a.07.07 0 0 1 .04-.031c-.036-.01-.042-.029-.02-.051.05-.025.1-.046.154-.062l.01-1.722c0-.601-.014-1.194-.04-1.774a.312.312 0 0 0 .081-.082.5.5 0 0 0 .144-.041c-.012-.01-.027-.013-.041-.01.137-.066.283-.117.43-.154.296-.078.59-.15.882-.216.111-.006.222-.028.328-.061.15-.01.302-.025.452-.041zm-7.444-.041h.02a.192.192 0 0 1 0 .164.099.099 0 0 0 .082.02c-.012.285 0 .57.041.851a.098.098 0 0 0-.04.062c.012.033.028.029.05-.01.044.01.09.01.134 0-.226.266-.457.527-.697.779l-.062-.03a.33.33 0 0 0 .02-.155h-.06c-.005-.272 0-.547.01-.82.036-.074.07-.15.102-.226a.065.065 0 0 0-.01-.082l.41-.553z"/><path fill="#94A3B8" d="M29.51 27.195c-.294.066-.587.138-.882.216a2.292 2.292 0 0 0-.431.153c-.248.068-.494.142-.738.226a.095.095 0 0 0-.113 0 .193.193 0 0 1-.072-.041.687.687 0 0 1-.205 0 .24.24 0 0 0-.143.041.238.238 0 0 0-.134-.041c-.067.02-.135.033-.205.041a1.266 1.266 0 0 1-.195-.041.255.255 0 0 0-.174.082.507.507 0 0 0-.092-.082.168.168 0 0 0-.051.041.227.227 0 0 0-.226.082c-.057-.033-.06-.074-.01-.123l.225-.164a.293.293 0 0 1-.061.072c.037.012.065-.002.082-.041a1.71 1.71 0 0 1 .205 0c.022-.02.016-.035-.02-.041.09-.009.18.002.266.03.074-.016.15-.026.226-.03l.03-.031a.192.192 0 0 0 .144.041.221.221 0 0 0 .123-.041c.035.022.065.016.092-.02a.27.27 0 0 0 .082.061.333.333 0 0 1 .308-.103c-.004.023.002.048.02.062a.991.991 0 0 1 .226-.082c.07.033.154.027.215-.02a.36.36 0 0 0 .072.04c.047-.006.047-.022 0-.05a.11.11 0 0 1 .113.03c.018-.004.03-.023.03-.041a.25.25 0 0 0 .165.01l-.021-.02c.11-.007.22-.02.328-.041.055-.027.055-.056 0-.082.055-.007.11-.017.164-.031l.041.04a.636.636 0 0 1 .123-.03.2.2 0 0 1-.082-.03l.205-.124a.576.576 0 0 0 .205.01.2.2 0 0 0-.102.072l.051.02a.76.76 0 0 1 .215-.02z"/><path fill="#94A3B8" d="M25.839 27.749c-.05.05-.047.09.01.123a.227.227 0 0 1 .226-.082.168.168 0 0 1 .05-.041.507.507 0 0 1 .093.082.255.255 0 0 1 .174-.082c.064.018.13.033.195.041.07-.008.138-.02.205-.041.047 0 .095.014.134.041a.24.24 0 0 1 .143-.041.574.574 0 0 0 .205 0c.02.018.045.033.072.041a.095.095 0 0 1 .113 0c-.16.08-.324.148-.492.205a.09.09 0 0 0-.113 0l-.041-.04a.095.095 0 0 1-.113 0c-.088.07-.185.079-.287.02a.483.483 0 0 0-.195.082.083.083 0 0 1-.051-.082.098.098 0 0 0-.082.04l-.041-.02a.357.357 0 0 1-.328 0 .804.804 0 0 1-.267.072.441.441 0 0 0 .082-.092.816.816 0 0 1 .308-.226z"/><path fill="#94A3B8" d="M28.197 27.564a.05.05 0 0 1 .041.01.5.5 0 0 1-.144.042.312.312 0 0 1-.082.082c.027.58.041 1.173.041 1.774l-.01 1.722a1.003 1.003 0 0 0-.154.062c-.022.022-.016.04.02.05a.07.07 0 0 0-.04.032 1.69 1.69 0 0 1-1.148.112 5.938 5.938 0 0 0-.575-.133.5.5 0 0 0 .205-.03.092.092 0 0 0 .041-.093h-.061c.004-.937 0-1.872-.01-2.81a.087.087 0 0 1-.031-.04c.227-.113.453-.228.677-.349.168-.057.332-.125.492-.205.244-.086.49-.16.738-.226zM26.967 27.995c-.224.121-.45.236-.677.349a1.816 1.816 0 0 0-.328.164.265.265 0 0 0-.144-.02.16.16 0 0 0-.01-.083.086.086 0 0 1-.041.02.36.36 0 0 0-.072-.04.266.266 0 0 1-.154.102l-.164-.082a.288.288 0 0 1-.133.051c-.109.01-.22.015-.328.01.02-.053.055-.1.102-.133.179-.108.351-.227.513-.358a.441.441 0 0 1-.082.092.804.804 0 0 0 .267-.072.357.357 0 0 0 .328 0l.04.02a.098.098 0 0 1 .083-.04.083.083 0 0 0 .051.082.483.483 0 0 1 .195-.082c.102.059.199.05.287-.02.033.024.08.024.113 0l.04.04a.09.09 0 0 1 .114 0zm-4.532-.39c.022.021.026.056.01.082-.033.076-.066.152-.103.226-.01.273-.014.548-.01.82h.062a.33.33 0 0 1-.02.154l.06.03-.184.247c-.213.226-.418.46-.615.697a.059.059 0 0 0-.062-.02c.002.02 0 .043-.01.061a.092.092 0 0 0-.092-.04v-.083h.061c-.004-.293 0-.588.01-.882.013-.073.04-.08.083-.02.01-.04-.008-.064-.052-.072a.084.084 0 0 0 0-.092v-.02l.78-1.006a.21.21 0 0 1 .082-.082zm-11.443-1.743a7.247 7.247 0 0 0 3.61 3.384c-.031.043-.023.08.02.113a.55.55 0 0 1-.185.072 2.002 2.002 0 0 0-.266-.083c-1.762-.75-3.045-1.993-3.855-3.732-.005-.016.006-.032.02-.04.07.044.115.12.123.204h.185v.164h.184a.24.24 0 0 0 .041-.143.28.28 0 0 0 .123.061z"/><path fill="#94A3B8" d="M26.29 28.344c.006.016.016.03.03.04.01.938.015 1.873.01 2.81h.062a.092.092 0 0 1-.04.092.5.5 0 0 1-.206.031l-.574-.082c-.168 0-.334.029-.492.082.055-.051.045-.066-.03-.04a.187.187 0 0 1-.114-.062 41.662 41.662 0 0 1-.02-1.825.106.106 0 0 1-.062-.01.284.284 0 0 0-.102-.083.068.068 0 0 0 .061-.072c.37-.26.753-.5 1.149-.717.102-.066.213-.121.328-.164z"/><path fill="#94A3B8" d="M26.105 27.339a.084.084 0 0 0 .093 0c.012.029-.002.06-.031.072.014.02.037.032.061.03a.58.58 0 0 1-.164.144l-.225.164a.838.838 0 0 0-.308.226c-.162.13-.334.25-.513.358a.287.287 0 0 0-.102.134c.109.004.22 0 .328-.01a.288.288 0 0 0 .133-.052l.164.082c.074-.024.125-.057.154-.102a.36.36 0 0 1 .072.04.086.086 0 0 0 .041-.02.16.16 0 0 1 .01.082c.05-.006.099 0 .144.02-.396.218-.78.458-1.149.718l-.307.206c-.023-.04-.05-.052-.082-.041.045-.035.049-.076.01-.124-.01.019-.012.041-.01.062a.228.228 0 0 0-.174.041.495.495 0 0 1-.042-.164l-.061-.02a.802.802 0 0 1-.041-.185c.043.057.082.055.113-.01a.162.162 0 0 0-.062-.082.061.061 0 0 0 .02-.052l.78-.656 1.148-.861zm-4.532 1.374a.084.084 0 0 1 0 .092c.044.008.062.033.052.072-.043-.06-.07-.053-.082.02-.01.294-.015.589-.01.882h-.062v.082a.092.092 0 0 1 .092.041c.01-.018.012-.04.01-.061a.059.059 0 0 1 .062.02l-.8.984a15.42 15.42 0 0 0-.512.636.288.288 0 0 0-.072.02l-.082-.081c-.008-.191-.019-.376-.031-.554h-.062v-.062c.097-.15.191-.301.288-.45l1.21-1.641z"/><path fill="#94A3B8" d="M24.178 28.856a.061.061 0 0 1-.02.052c.028.02.05.049.06.082-.03.063-.069.067-.112.01.006.063.02.125.041.184l.061.02a.495.495 0 0 0 .042.165.228.228 0 0 1 .174-.041.106.106 0 0 1 .01-.062c.039.048.035.089-.01.124.033-.01.06.002.082.04-.33.265-.665.525-1.005.78a.061.061 0 0 1-.051-.02c-.006-.159-.015-.315-.02-.472-.007-.015-.015-.027-.021-.041-.008.016-.029.022-.047.014a.004.004 0 0 1-.005-.004.155.155 0 0 1 .062-.041.088.088 0 0 1-.01-.092.22.22 0 0 0 .123-.082c.012-.009.014-.025.004-.037l-.004-.004a.061.061 0 0 1-.051.02c.223-.21.455-.406.697-.595z"/><path fill="#94A3B8" d="M24.813 29.225a.068.068 0 0 1-.061.072.284.284 0 0 1 .102.082c.019.01.041.013.062.01-.006.61 0 1.217.02 1.826.03.032.07.055.113.061.074-.025.084-.01.031.041a3.747 3.747 0 0 0-.267.092 7.68 7.68 0 0 1-2.788.01c.172-.157.348-.307.533-.45.313-.255.63-.507.943-.76.34-.254.675-.514 1.005-.778l.307-.206zm-10.642.123c.09.021.18.05.266.083.472.172.96.297 1.456.369-.03.006-.045.026-.04.061a.358.358 0 0 1 .122.01.16.16 0 0 1-.082.01v.165h.164v.164h.164v.164h.164v.164h.164v.164h.164v.164h.165v.164h.164v.164h.164v.164h.164v.164h.164v.164h.164a.117.117 0 0 0 .04.113.102.102 0 0 0-.04.092.594.594 0 0 1 .061.205c-.018.191-.024.384-.02.574v.226h-1.19c.324-.016.653-.027.985-.03-.109-.011-.22-.015-.328-.011v-.185h-.164v-.164h-.164v-.164h-.165v-.164h-.164v-.164h-.164v-.164h-.164v-.164h-.164v-.164h-.164v-.164h-.164v-.164h-.164v-.164h-.164v-.164h-.164v-.328h-.164v-.164h-.164v-.164h-.164v-.164h-.164v-.164h-.164v-.164h-.164v-.164h-.164a.228.228 0 0 0-.041-.175l.123-.03zm5.536-.102c.02.01.037.023.052.041.153.381.356.74.605 1.066-.097.15-.191.302-.288.451-.116.175-.24.345-.369.513a.046.046 0 0 1-.03-.02c-.009.03-.027.04-.052.03a4.195 4.195 0 0 1-.225-.287.054.054 0 0 1-.072-.024.063.063 0 0 1 0-.048.158.158 0 0 1-.092-.092c-.019-.01-.041-.012-.062-.01v-.164h-.164v-.164h-.164v-.164h-.164v-.164a.106.106 0 0 1-.061-.01.158.158 0 0 0-.093-.093.054.054 0 0 0-.024-.072.063.063 0 0 0-.048 0 .158.158 0 0 0-.092-.092.054.054 0 0 0-.024-.072.063.063 0 0 0-.048 0 .126.126 0 0 0-.082-.082.797.797 0 0 0-.184-.01v.062c-.11 0-.222-.015-.328-.041a9.212 9.212 0 0 0 2.01-.554zm2.543-.082a.061.061 0 0 1-.02.051.343.343 0 0 1 .05.154c.01.359.015.716.021 1.066a.135.135 0 0 0 .072-.143h.082a.106.106 0 0 1 .01-.062c.044.013.06.033.052.062-.328.328-.663.65-1.005.964.004-.017-.006-.033-.02-.041a.89.89 0 0 1-.144-.062 8.69 8.69 0 0 1-.513-.308l.8-.984c.197-.24.402-.471.615-.697zm-7.649.082a7.063 7.063 0 0 0 2.564.554c.03.016.065.026.102.03a.106.106 0 0 1-.061.01c-.44.007-.876-.008-1.313-.04a7.289 7.289 0 0 1-1.456-.37.55.55 0 0 0 .185-.071c-.043-.033-.051-.07-.02-.113z"/><path fill="#94A3B8" d="M19.707 31.317c-.082.135-.17.265-.266.39a.565.565 0 0 0-.123-.164c-.14.047-.285.082-.43.102a.195.195 0 0 0-.103-.051.145.145 0 0 0 .061-.03.13.13 0 0 0-.123 0 .374.374 0 0 0-.205-.042v-.164h-.164v-.164h-.164v-.164h-.164v-.164h-.164v-.164h-.164v-.164h-.164a1.91 1.91 0 0 0-.01-.287.182.182 0 0 0-.154-.041v-.164h-.164a1.71 1.71 0 0 0 0-.205c.02.002.043 0 .061-.01a.284.284 0 0 1-.102-.031h.533c.106.026.217.04.328.04v-.06a.797.797 0 0 1 .184.01c.04.012.07.042.082.081a.054.054 0 0 1 .072.025.063.063 0 0 1 0 .047c.043.017.076.05.092.092a.054.054 0 0 1 .072.025.063.063 0 0 1 0 .047c.043.017.076.05.093.092.018.01.04.013.061.01v.165h.164v.164h.164v.164h.164v.164c.02-.002.043 0 .062.01.016.043.049.076.092.092a.054.054 0 0 0 .025.072.063.063 0 0 0 .047 0c.07.099.145.193.225.287.025.01.043 0 .052-.03.006.01.018.016.03.02zM15.893 29.8c.437.032.874.047 1.313.04a1.71 1.71 0 0 1 0 .206h.164v.164c.055-.01.11.004.153.04.01.095.015.191.01.288h.165v.164h.164v.164h.164v.164h.164v.164h.164v.164h.164v.164a.374.374 0 0 1 .205.041.13.13 0 0 1 .123 0 .145.145 0 0 1-.061.03.195.195 0 0 1 .102.052l-.451.113a8.176 8.176 0 0 0-.636.092c-.016.277-.037.55-.061.82-.004-.19.002-.383.02-.574a.594.594 0 0 0-.061-.205.102.102 0 0 1 .04-.092.117.117 0 0 1-.04-.113h-.164v-.164h-.164v-.164h-.164v-.164h-.164v-.164h-.164v-.164h-.165v-.164h-.164v-.164h-.164v-.164h-.164v-.164h-.164v-.164h-.164v-.164a.16.16 0 0 0 .082-.01c-.04-.01-.082-.015-.123-.01-.004-.036.008-.056.041-.062zm7.608.41c-.314.252-.63.504-.943.758-.02-.028-.045-.036-.072-.02l-.02-.041c-.007-.123-.015-.246-.021-.37-.033-.03-.027-.057.02-.081.044.04.097.07.154.082a.343.343 0 0 0 .02.164c.017.016.042.02.062.01-.02-.11-.026-.225-.02-.338a.073.073 0 0 1-.082-.041.523.523 0 0 0 .102-.062c-.006-.024-.016-.024-.03 0a.117.117 0 0 0-.031-.061c.272-.26.553-.513.84-.759a.061.061 0 0 0 .052-.02c.012.008.014.024.004.036l-.004.005a.22.22 0 0 1-.123.082.088.088 0 0 0 .01.092.155.155 0 0 0-.062.04c.015.013.037.011.048-.005.002-.002.002-.004.004-.004l.02.04c.006.158.015.314.02.472.013.015.032.023.052.02z"/><path fill="#94A3B8" d="M22.64 30.21a.117.117 0 0 1 .03.061c.015-.024.025-.024.031 0a.523.523 0 0 1-.102.062c.014.03.049.049.082.04-.006.114 0 .228.02.34a.053.053 0 0 1-.061-.011.343.343 0 0 1-.02-.164.322.322 0 0 1-.155-.082c-.047.024-.053.051-.02.082l.02.369c.007.014.015.027.021.041.027-.016.051-.008.072.02a8.041 8.041 0 0 0-.533.452l-.8.656c.006-.133 0-.267-.02-.4a.155.155 0 0 1 .06-.041l-.02-.02a.103.103 0 0 0 .062-.072c-.027-.02-.027-.041 0-.062l.102-.123a.35.35 0 0 0 .103-.102c.342-.314.677-.636 1.005-.964a.417.417 0 0 0 .123-.082z"/><path fill="#94A3B8" d="M21.348 31.153a.89.89 0 0 0 .143.062c.015.008.025.024.02.04a.35.35 0 0 1-.102.103l-.061-.205zm-.041.328c-.027.02-.027.041 0 .062a.103.103 0 0 1-.062.071l.02.02a.155.155 0 0 0-.06.042c.02.133.026.267.02.4a40.952 40.952 0 0 0-1.784 1.65c-.185.068-.23.017-.133-.153.424-.47.853-.933 1.281-1.395.232-.24.472-.473.718-.697zm-1.23-.677v.062h.061c.012.178.023.363.03.554l.083.082a.288.288 0 0 1 .072-.02 16.03 16.03 0 0 0-.616.778 40.331 40.331 0 0 0-1.794 2.44c-.076.097-.164.117-.266.062a.336.336 0 0 1 .061-.287c.566-.93 1.144-1.854 1.733-2.768.096-.125.184-.255.266-.39.128-.168.25-.338.37-.513zM17.636 2.79c0-1.41 1.203-2.552 2.687-2.552 1.483 0 2.686 1.143 2.686 2.553s-1.203 2.553-2.686 2.553c-1.484 0-2.687-1.143-2.687-2.553M23.052 7.889c0-1.41 1.203-2.553 2.686-2.553 1.484 0 2.687 1.143 2.687 2.553s-1.203 2.553-2.687 2.553c-1.483 0-2.686-1.143-2.686-2.553M20.788 10.44c0 .347-.123.644-.369.89a1.213 1.213 0 0 1-.89.369c-.348 0-.644-.123-.89-.369a1.213 1.213 0 0 1-.37-.89c0-.348.124-.645.37-.89.246-.246.542-.37.89-.37s.644.124.89.37a1.213 1.213 0 0 1 .368.934M16.769 6.117c0 .368-.13.681-.39.941-.26.26-.574.39-.941.39-.368 0-.681-.13-.941-.39-.26-.26-.39-.573-.39-.941s.13-.681.39-.941c.26-.26.573-.39.941-.39.367 0 .681.13.941.39a1.282 1.282 0 0 1 .389.987M14.051 10.974a.684.684 0 0 1 .188-.949.684.684 0 0 1 .952.167.684.684 0 0 1-.187.95.684.684 0 0 1-.953-.168M23.81 18.644l7.178-8.171 9.416.209c.043 0 .076.037.076.08a.072.072 0 0 1-.037.063l-14.005 8.578-2.627-.759z"/></svg></svg>